<?xml version="1.0" standalone="no"?>
<!DOCTYPE svg PUBLIC "-//W3C//DTD SVG 1.1//EN" "http://www.w3.org/Graphics/SVG/1.1/DTD/svg11.dtd" >
<svg xmlns="http://www.w3.org/2000/svg" xmlns:xlink="http://www.w3.org/1999/xlink" version="1.1">
<metadata>
Created by FontForge 20170924 at Wed Dec 20 01:57:33 2017
 By www-data
(c) 2017 . All rights reserved.
</metadata>
<defs>
<font id="MFXingYanNoncommercial-Regular" horiz-adv-x="1000" >
  <font-face 
    font-family="MF XingYan(Noncommercial)"
    font-weight="400"
    font-stretch="normal"
    units-per-em="1000"
    panose-1="0 0 0 0 0 0 0 0 0 0"
    ascent="880"
    descent="-120"
    x-height="476"
    cap-height="713"
    bbox="-225 -309 1011 821"
    underline-thickness="50"
    underline-position="-100"
    unicode-range="U+0001-FFE5"
  />
<missing-glyph horiz-adv-x="719" 
d="M49 791h620v-959h-620v959zM597 743h-477l239 -392zM621 -81v785l-238 -393zM597 -120l-238 392l-239 -392h477zM96 -81l239 392l-239 393v-785z" />
    <glyph glyph-name=".notdef" horiz-adv-x="719" 
d="M49 791h620v-959h-620v959zM597 743h-477l239 -392zM621 -81v785l-238 -393zM597 -120l-238 392l-239 -392h477zM96 -81l239 392l-239 393v-785z" />
    <glyph glyph-name="space" horiz-adv-x="250" 
 />
    <glyph glyph-name="space" unicode="&#xa0;" horiz-adv-x="250" 
 />
    <glyph glyph-name="space" unicode=" " horiz-adv-x="250" 
 />
    <glyph glyph-name="space" horiz-adv-x="250" 
 />
    <glyph glyph-name="space" horiz-adv-x="250" 
 />
    <glyph glyph-name="space" horiz-adv-x="250" 
 />
    <glyph glyph-name="space" horiz-adv-x="250" 
 />
    <glyph glyph-name="space" horiz-adv-x="250" 
 />
    <glyph glyph-name="space" horiz-adv-x="250" 
 />
    <glyph glyph-name="space" horiz-adv-x="250" 
 />
    <glyph glyph-name="space" horiz-adv-x="250" 
 />
    <glyph glyph-name="space" horiz-adv-x="250" 
 />
    <glyph glyph-name="space" horiz-adv-x="250" 
 />
    <glyph glyph-name="space" horiz-adv-x="250" 
 />
    <glyph glyph-name="space" horiz-adv-x="250" 
 />
    <glyph glyph-name="space" horiz-adv-x="250" 
 />
    <glyph glyph-name="space" horiz-adv-x="250" 
 />
    <glyph glyph-name="space" horiz-adv-x="250" 
 />
    <glyph glyph-name="space" horiz-adv-x="250" 
 />
    <glyph glyph-name="space" horiz-adv-x="250" 
 />
    <glyph glyph-name="space" horiz-adv-x="250" 
 />
    <glyph glyph-name="space" horiz-adv-x="250" 
 />
    <glyph glyph-name="space" horiz-adv-x="250" 
 />
    <glyph glyph-name="space" unicode="&#xa;" horiz-adv-x="250" 
 />
    <glyph glyph-name="space" horiz-adv-x="250" 
 />
    <glyph glyph-name="space" horiz-adv-x="250" 
 />
    <glyph glyph-name="space" horiz-adv-x="250" 
 />
    <glyph glyph-name="space" horiz-adv-x="250" 
 />
    <glyph glyph-name="space" horiz-adv-x="250" 
 />
    <glyph glyph-name="space" horiz-adv-x="250" 
 />
    <glyph glyph-name="space" horiz-adv-x="250" 
 />
    <glyph glyph-name="exclam" unicode="!" horiz-adv-x="262" 
d="M193 134h-129l-17 594h171zM217 -101h-173l16 171h137z" />
    <glyph glyph-name="quotedbl" unicode="&#x22;" horiz-adv-x="422" 
d="M160 587l-116 8l1 186l153 -8zM343 572l-118 8l5 201l153 -8z" />
    <glyph glyph-name="numbersign" unicode="#" horiz-adv-x="743" 
d="M491 721l127 -14l-10 -145l106 3v-147l-116 3l-12 -169l110 -3v-112l-118 -4l-16 -231l-181 11l29 217l-126 -4l-23 -224l-182 18l35 202l-83 -2v146l106 -2l29 169l-117 3v112l137 2l28 173l129 -15l-17 -154l142 4zM297 259l130 -3l23 169l-136 4z" />
    <glyph glyph-name="dollar" unicode="$" horiz-adv-x="643" 
d="M607 514l-219 -1l4 -143h142l77 -83l-20 -296l-189 -1l3 -92h-161l2 91l-214 -1l4 116l213 1l4 140l-218 -1l26 393h202l3 85h117l2 -84l222 1v-125zM187 370h69l4 142h-68zM455 106l8 140l-68 -1l4 -140z" />
    <glyph glyph-name="percent" unicode="%" horiz-adv-x="871" 
d="M727 716l94 -90l-648 -723l-132 119zM251 519l2 82l-55 -7v-71zM403 629l-8 -213l-345 -8l6 296h274zM678 25l2 82l-54 -7l-1 -71zM830 134l-7 -212l-345 -9l5 297h274z" />
    <glyph glyph-name="ampersand" unicode="&#x26;" horiz-adv-x="821" 
d="M707 -54l-80 61l-46 -99l-536 -2l11 359l140 72l-121 93l12 287l462 2l82 -88l8 -223l-172 -87l103 -77l55 103l133 -58l-64 -138l101 -77zM216 35l249 9l32 62l-176 135l-108 -59zM488 484l3 108l-249 -6l4 -98l98 -74z" />
    <glyph glyph-name="quotesingle" unicode="'" horiz-adv-x="234" 
d="M164 566l-118 9l5 199l153 -9z" />
    <glyph glyph-name="parenleft" unicode="(" horiz-adv-x="320" 
d="M289 698q-48 -84 -72 -183t-24 -201.5t24 -201.5t72 -183l-142 -25q-49 91 -73.5 196.5t-24.5 213.5t24.5 213t73.5 196z" />
    <glyph glyph-name="parenright" unicode=")" horiz-adv-x="320" 
d="M173 723q49 -91 73 -196t24 -213t-24 -213.5t-73 -196.5l-142 25q48 84 72 183t24 201.5t-24 201.5t-72 183z" />
    <glyph glyph-name="asterisk" unicode="*" horiz-adv-x="415" 
d="M294 592l91 -48l-71 -99l-51 43l7 -59h-121l7 65l-55 -46l-71 97l85 46l-85 46l70 95l56 -46l-7 71h121l-8 -65l53 43l70 -95z" />
    <glyph glyph-name="plus" unicode="+" horiz-adv-x="682" 
d="M8 382l267 7l10 263h108l9 -259l271 8v-141l-266 6l10 -278h-156l10 281l-263 5v108z" />
    <glyph glyph-name="comma" unicode="," horiz-adv-x="252" 
d="M181 -152l-134 9l4 199l170 -9z" />
    <glyph glyph-name="hyphen" unicode="-" horiz-adv-x="764" 
d="M38 383l676 20v-141l-676 15v106z" />
    <glyph glyph-name="period" unicode="." horiz-adv-x="250" 
d="M191 -147h-133l-16 171h168z" />
    <glyph glyph-name="slash" unicode="/" horiz-adv-x="433" 
d="M309 721l113 -35l-252 -782l-163 54z" />
    <glyph glyph-name="zero" unicode="0" horiz-adv-x="634" 
d="M409 22l5 562l-195 -7l8 -552zM569 622l21 -725l-544 -1l23 808l410 2z" />
    <glyph glyph-name="one" unicode="1" horiz-adv-x="259" 
d="M61 715h136l22 -820h-179z" />
    <glyph glyph-name="two" unicode="2" horiz-adv-x="641" 
d="M60 572l3 133l446 -10l89 -67l-21 -365l-348 -5v-232h358l2 -124l-542 -3l25 482l349 1l12 196z" />
    <glyph glyph-name="three" unicode="3" horiz-adv-x="643" 
d="M581 641l16 -743l-555 -2v119l382 -2l3 227l-374 6v107l377 12l4 221l-387 -6v122l448 1z" />
    <glyph glyph-name="four" unicode="4" horiz-adv-x="678" 
d="M351 -107l10 266l-294 -6l-46 93l74 445l132 -10l-44 -406l181 5l16 430h128l13 -427l135 4v-121l-131 -3l10 -270h-184z" />
    <glyph glyph-name="five" unicode="5" horiz-adv-x="610" 
d="M562 578l-349 -2l-5 -205h281l77 -81l-19 -385l-505 -3l9 112l346 2l8 235l-362 -3l25 448l490 2z" />
    <glyph glyph-name="six" unicode="6" horiz-adv-x="647" 
d="M440 17l3 240l-224 -2l1 -234zM217 372l297 7l84 -66l4 -418l-555 2l9 799l531 6l5 -118l-382 -1z" />
    <glyph glyph-name="seven" unicode="7" horiz-adv-x="566" 
d="M542 631l-187 -739l-186 38l207 656l-355 -5v121l427 2z" />
    <glyph glyph-name="eight" unicode="8" horiz-adv-x="631" 
d="M584 -106l-537 1l11 802l434 6l84 -88zM431 584h-220l4 -225l212 2zM221 19l200 -4l4 225l-208 -1z" />
    <glyph glyph-name="nine" unicode="9" horiz-adv-x="640" 
d="M203 582l-1 -222l231 2l3 215zM433 245l-386 -8l3 464h452l91 -82l-9 -719l-534 -6l-4 118l384 1z" />
    <glyph glyph-name="colon" unicode=":" horiz-adv-x="253" 
d="M192 363h-133l-16 171h168zM192 13h-133l-16 171h168z" />
    <glyph glyph-name="semicolon" unicode=";" horiz-adv-x="249" 
d="M169 2l-126 9l6 190l161 -10zM198 363h-133l-16 170h168z" />
    <glyph glyph-name="less" unicode="&#x3c;" horiz-adv-x="390" 
d="M228 723l129 -48l-197 -360l197 -360l-129 -49l-218 409z" />
    <glyph glyph-name="equal" unicode="=" horiz-adv-x="757" 
d="M45 483l666 20v-142l-666 16v106zM711 137l-666 -15v142l666 -20v-107z" />
    <glyph glyph-name="greater" unicode="&#x3e;" horiz-adv-x="390" 
d="M380 315l-218 -409l-129 49l197 360l-197 360l129 48z" />
    <glyph glyph-name="question" unicode="?" horiz-adv-x="570" 
d="M335 -102h-174l16 162h137zM27 584l3 131l438 -10l80 -68l-11 -309l-219 -5l8 -229l-164 3l13 345l217 2l3 148z" />
    <glyph glyph-name="at" unicode="@" horiz-adv-x="886" 
d="M476 243l3 149l-55 -8l-1 -139zM628 434l-5 -194l46 4l2 341l-450 -7l6 -534l611 -3l1 -128l-792 -2l24 797l653 3l102 -88l12 -506l-562 4l6 389h274z" />
    <glyph glyph-name="A" unicode="A" horiz-adv-x="743" 
d="M452 698l281 -754l-173 -54l-56 184l-258 4l-55 -188l-179 54l282 755zM279 192l188 4l-95 316z" />
    <glyph glyph-name="B" unicode="B" horiz-adv-x="701" 
d="M660 -103l-621 2l11 787l508 8l95 -91l2 -250l-67 -59l69 -53zM502 574l-298 -1l3 -218l291 2zM213 23l279 -3l4 216l-287 -1z" />
    <glyph glyph-name="C" unicode="C" horiz-adv-x="740" 
d="M691 570l-471 2l7 -538l465 -3l1 -125l-646 -1l22 786l621 2z" />
    <glyph glyph-name="D" unicode="D" horiz-adv-x="792" 
d="M581 24l5 559l-366 -6l8 -551zM741 621l4 -617l-86 -106l-612 -1l23 807l569 2z" />
    <glyph glyph-name="E" unicode="E" horiz-adv-x="700" 
d="M651 702v-123l-442 7l3 -226l424 -13v-107l-422 -7l3 -221l439 2v-119l-609 2l16 809z" />
    <glyph glyph-name="F" unicode="F" horiz-adv-x="635" 
d="M626 704v-122l-415 6l2 -237l401 -13v-107l-401 -7l4 -331l-170 -1l16 817z" />
    <glyph glyph-name="G" unicode="G" horiz-adv-x="763" 
d="M725 581l-507 -5l7 -554l323 -2l9 214h-195l15 126l278 1l68 -90l2 -377l-681 -2l24 811l656 3z" />
    <glyph glyph-name="H" unicode="H" horiz-adv-x="727" 
d="M536 709h133l20 -824h-175l10 349l-321 10l9 -359h-175l22 824h133l9 -356l325 12z" />
    <glyph glyph-name="I" unicode="I" horiz-adv-x="253" 
d="M63 713h128l22 -818h-174z" />
    <glyph glyph-name="J" unicode="J" horiz-adv-x="385" 
d="M324 706l16 -814l-327 -2v120l157 -3l10 698z" />
    <glyph glyph-name="K" unicode="K" horiz-adv-x="730" 
d="M566 -108l-274 377l-85 -76l4 -301h-164l15 817h137l5 -345l352 342l107 -108l-281 -249l314 -360z" />
    <glyph glyph-name="L" unicode="L" horiz-adv-x="542" 
d="M198 705l14 -693l323 8v-126l-489 2l18 810z" />
    <glyph glyph-name="M" unicode="M" horiz-adv-x="995" 
d="M819 -106l-77 538l-139 -498h-204l-139 498l-76 -539l-162 22l162 791h155l162 -587l162 587h156l161 -786z" />
    <glyph glyph-name="N" unicode="N" horiz-adv-x="717" 
d="M491 -110l-310 604l17 -603l-161 -1l9 815l173 -1l322 -600l-12 596l154 -1l-10 -808z" />
    <glyph glyph-name="O" unicode="O" horiz-adv-x="766" 
d="M568 19l5 554l-363 -6l7 -545zM727 611l21 -717l-711 -2l22 802l567 3z" />
    <glyph glyph-name="P" unicode="P" horiz-adv-x="757" 
d="M209 -106l-167 1l-2 804l603 2l87 -91l-5 -450l-520 -1zM199 574v-296l370 -2l-1 303z" />
    <glyph glyph-name="Q" unicode="Q" horiz-adv-x="783" 
d="M728 589l15 -689h-174l37 -93l-163 -35l-33 127l-377 -1l24 775l569 2zM361 130l130 29l40 -133h38l4 527l-366 -7l6 -518l170 -1z" />
    <glyph glyph-name="R" unicode="R" horiz-adv-x="735" 
d="M218 -106l-167 1l-2 804l569 2l87 -91l-5 -391h-112l131 -265l-157 -61l-124 325h-224zM208 574v-237l336 -2l-1 244z" />
    <glyph glyph-name="S" unicode="S" horiz-adv-x="687" 
d="M658 577l-447 -2l-4 -214h379l77 -81l-20 -384l-613 -3l11 122l442 2l9 217l-401 -2l-54 104l20 368l597 2z" />
    <glyph glyph-name="T" unicode="T" horiz-adv-x="739" 
d="M13 685l716 19v-147l-284 6l22 -670h-191l23 673l-286 6v113z" />
    <glyph glyph-name="U" unicode="U" horiz-adv-x="746" 
d="M696 701l-6 -804l-640 6l-9 798h171l-8 -685l335 -1l-9 686h166z" />
    <glyph glyph-name="V" unicode="V" horiz-adv-x="733" 
d="M271 -107l-248 773l155 44l188 -607l190 607l154 -44l-247 -772z" />
    <glyph glyph-name="W" unicode="W" horiz-adv-x="1047" 
d="M1011 674l-164 -775h-174l-150 586l-149 -586h-174l-164 775l167 37l86 -562l142 519h185l142 -519l87 561z" />
    <glyph glyph-name="X" unicode="X" horiz-adv-x="735" 
d="M149 710l218 -289l219 289l105 -70l-234 -338l241 -317l-135 -97l-196 283l-195 -283l-135 97l240 317l-233 338z" />
    <glyph glyph-name="Y" unicode="Y" horiz-adv-x="730" 
d="M18 633l111 83l238 -300l234 300l111 -83l-279 -337l17 -400h-169l17 400z" />
    <glyph glyph-name="Z" unicode="Z" horiz-adv-x="757" 
d="M712 575l-467 -555l462 16v-135h-613l-50 121l475 553l-461 -16l-1 135h605z" />
    <glyph glyph-name="bracketleft" unicode="[" horiz-adv-x="335" 
d="M51 749l238 5v-129l-94 3l8 -612l86 5v-129l-242 3z" />
    <glyph glyph-name="backslash" unicode="\" horiz-adv-x="347" 
d="M337 -50l-164 -45l-157 800l113 25z" />
    <glyph glyph-name="bracketright" unicode="]" horiz-adv-x="334" 
d="M287 -105l-242 -3v129l86 -5l8 612l-94 -3v129l238 -5z" />
    <glyph glyph-name="asciicircum" unicode="^" horiz-adv-x="491" 
d="M183 798h124l160 -232l-131 -69l-91 175l-89 -174l-133 68z" />
    <glyph glyph-name="underscore" unicode="_" horiz-adv-x="762" 
d="M39 55l674 17v-133l-674 11v105z" />
    <glyph glyph-name="grave" unicode="`" horiz-adv-x="219" 
d="M15 754l124 28l55 -181l-91 -32z" />
    <glyph glyph-name="a" unicode="a" horiz-adv-x="607" 
d="M371 21l7 339l-165 -7l10 -330zM533 398l4 -378h49v-128l-541 -2l17 593l369 3z" />
    <glyph glyph-name="b" unicode="b" horiz-adv-x="585" 
d="M396 27l2 314l-190 -2l1 -307zM205 460l264 7l84 -85l5 -480l-518 1l10 819h149z" />
    <glyph glyph-name="c" unicode="c" horiz-adv-x="620" 
d="M572 -118l-527 -1l17 600l510 2v-126l-360 -6l10 -337l350 -2v-130z" />
    <glyph glyph-name="d" unicode="d" horiz-adv-x="574" 
d="M357 26l1 294l-177 -1l3 -298zM366 723h151l10 -825l-506 -2l5 550l334 -4z" />
    <glyph glyph-name="e" unicode="e" horiz-adv-x="635" 
d="M219 26l370 -3l1 -129l-544 -2l15 591l448 3l76 -88l2 -273l-371 2zM427 252l3 108l-218 -8l1 -104z" />
    <glyph glyph-name="f" unicode="f" horiz-adv-x="510" 
d="M156 -101l7 382l-151 4v105l154 5l7 320l306 1v-126l-156 -6l2 -183l158 6v-133l-156 4l6 -377z" />
    <glyph glyph-name="g" unicode="g" horiz-adv-x="598" 
d="M198 361l-1 -213l196 2l5 206zM393 29l-351 -8l3 464h419l90 -86l-10 -642l-499 -7l-4 122l349 2z" />
    <glyph glyph-name="h" unicode="h" horiz-adv-x="572" 
d="M377 -96l9 442l-194 -1l8 -441h-163l9 818l142 1l5 -257l249 4l95 -93l5 -473h-165z" />
    <glyph glyph-name="i" unicode="i" horiz-adv-x="265" 
d="M66 432h133l24 -538h-180zM199 509h-133l-16 179h168z" />
    <glyph glyph-name="j" unicode="j" horiz-adv-x="306" 
d="M106 431h151l-11 -673l-241 -7l-4 122l104 2zM248 511h-133l-15 179h167z" />
    <glyph glyph-name="k" unicode="k" horiz-adv-x="560" 
d="M367 293l180 -303l-136 -89l-142 304l-65 -58l6 -247h-164l17 839h129l9 -430l242 248l94 -112z" />
    <glyph glyph-name="l" unicode="l" horiz-adv-x="257" 
d="M63 717h131l23 -826h-178z" />
    <glyph glyph-name="m" unicode="m" horiz-adv-x="861" 
d="M649 -115l9 479l-157 -1l11 -473h-154l13 473h-161l8 -478h-171l9 595l659 7l95 -93l5 -509h-166z" />
    <glyph glyph-name="n" unicode="n" horiz-adv-x="585" 
d="M379 -110l9 475l-182 -1l8 -474h-171l9 592l392 6l95 -93l6 -505h-166z" />
    <glyph glyph-name="o" unicode="o" horiz-adv-x="613" 
d="M396 26l15 323l-197 -6l8 -315zM565 387l12 -490l-536 -2l23 578l400 3z" />
    <glyph glyph-name="p" unicode="p" horiz-adv-x="574" 
d="M198 352l5 -260l183 -2l-1 266zM211 -303h-162l-11 783l421 1l89 -94l-5 -415l-336 -1z" />
    <glyph glyph-name="q" unicode="q" horiz-adv-x="570" 
d="M193 356l-1 -266l183 2l5 260zM371 -29l-336 1v509l415 -1l89 -98l-10 -691h-162z" />
    <glyph glyph-name="r" unicode="r" horiz-adv-x="477" 
d="M63 495h119l5 -132l181 135l108 -109l-284 -175l12 -330h-164z" />
    <glyph glyph-name="s" unicode="s" horiz-adv-x="561" 
d="M519 375l-324 -3l-4 -119h255l77 -84l-19 -278l-470 -4l9 117l321 1l7 124l-276 -3l-54 101l19 268l455 2z" />
    <glyph glyph-name="t" unicode="t" horiz-adv-x="512" 
d="M478 -105l-324 -1l10 430l-145 4v115l148 4l4 226l150 -1l3 -219l166 7v-144l-164 4l5 -293h147v-132z" />
    <glyph glyph-name="u" unicode="u" horiz-adv-x="597" 
d="M550 490l-6 -603l-489 7l-9 596h168l-9 -480l189 -1l-10 481h166z" />
    <glyph glyph-name="v" unicode="v" horiz-adv-x="621" 
d="M171 498l134 -498l145 498l154 -34l-203 -574h-194l-193 574z" />
    <glyph glyph-name="w" unicode="w" horiz-adv-x="825" 
d="M804 467l-145 -582h-134l-114 405l-114 -405h-134l-145 582l136 37l77 -376l109 332h142l109 -332l76 375z" />
    <glyph glyph-name="x" unicode="x" horiz-adv-x="577" 
d="M133 507l156 -197l155 197l99 -71l-165 -237l182 -230l-132 -91l-139 196l-138 -196l-131 91l181 231l-165 236z" />
    <glyph glyph-name="y" unicode="y" horiz-adv-x="679" 
d="M118 505l218 -289l219 289l105 -70l-477 -678l-135 97l198 243l-233 338z" />
    <glyph glyph-name="z" unicode="z" horiz-adv-x="578" 
d="M542 393l-317 -381l310 15v-137h-453l-51 107l318 379l-303 -15l-1 136h446z" />
    <glyph glyph-name="braceleft" unicode="{" horiz-adv-x="397" 
d="M24 376l64 -5l8 350l252 -2v-125l-114 3l6 -579l113 3v-123l-273 2l6 345l-62 -3v134z" />
    <glyph glyph-name="bar" unicode="|" horiz-adv-x="230" 
d="M62 728h108l23 -826h-156z" />
    <glyph glyph-name="braceright" unicode="}" horiz-adv-x="397" 
d="M301 721l7 -350l65 5v-134l-63 3l7 -345l-273 -2v123l113 -3l6 579l-114 -3v125z" />
    <glyph glyph-name="asciitilde" unicode="~" horiz-adv-x="494" 
d="M464 303q-20 -30 -49.5 -44t-62 -13.5t-63.5 13.5t-55 37q-31 31 -62 40t-58 0.5t-49 -32t-35 -57.5v155q52 55 113.5 57.5t124.5 -55.5q29 -27 57.5 -39t54 -6.5t47 29.5t37.5 69v-154z" />
    <glyph glyph-name="cid96" unicode="&#x3000;" 
 />
    <glyph glyph-name="cid97" unicode="&#x3001;" 
d="M63 15l70 94l195 -126l-96 -117z" />
    <glyph glyph-name="cid98" unicode="&#x3002;" 
d="M216 -3l3 72l-44 -7l-1 -62zM334 97l-8 -194l-265 -10l6 271h212z" />
    <glyph glyph-name="periodcentered" unicode="&#xb7;" 
d="M565 252h-133l-16 171h168z" />
    <glyph glyph-name="periodcentered" unicode="&#x30fb;" 
d="M565 252h-133l-16 171h168z" />
    <glyph glyph-name="periodcentered" unicode="&#x2022;" 
d="M565 252h-133l-16 171h168z" />
    <glyph glyph-name="cid104" unicode="&#x3005;" 
d="M252 250l226 -92l227 309l-412 -9l-105 -150l-98 58l206 371l138 -75l-49 -71l461 -1l64 -125l-297 -362l158 -64l-79 -147l-496 254z" />
    <glyph glyph-name="emdash" unicode="&#x2014;" 
d="M103 413l794 20v-141l-794 15v106z" />
    <glyph glyph-name="ellipsis" unicode="&#x2026;" 
d="M239 277h-133l-15 171h167zM890 277h-133l-15 171h167zM565 277h-133l-16 171h168z" />
    <glyph glyph-name="ellipsis" unicode="&#x22ef;" 
d="M239 277h-133l-15 171h167zM890 277h-133l-15 171h167zM565 277h-133l-16 171h168z" />
    <glyph glyph-name="quoteleft" unicode="&#x2018;" 
d="M813 758l120 -11l-5 -201l-155 14z" />
    <glyph glyph-name="quoteright" unicode="&#x2019;" 
d="M182 547l-120 11l5 201l155 -14z" />
    <glyph glyph-name="quotedblleft" unicode="&#x201c;" 
d="M821 757l112 -10l-3 -209l-146 13zM668 761l110 -22l-28 -197l-140 25z" />
    <glyph glyph-name="quotedblright" unicode="&#x201d;" 
d="M329 521l-111 24l42 209l139 -35zM170 539l-109 21l27 199l137 -23z" />
    <glyph glyph-name="cid115" unicode="&#x3008;" 
d="M800 723l129 -48l-197 -360l197 -360l-129 -49l-218 409z" />
    <glyph glyph-name="cid116" unicode="&#x3009;" 
d="M407 315l-218 -409l-129 49l197 360l-197 360l129 48z" />
    <glyph glyph-name="cid117" unicode="&#x300a;" 
d="M932 -48l-110 -43l-129 410l129 412l110 -42l-132 -371zM761 -56l-110 -44l-129 419l129 421l110 -43l-132 -379z" />
    <glyph glyph-name="cid118" unicode="&#x300b;" 
d="M191 318l-132 371l110 42l129 -412l-129 -410l-110 43zM362 318l-132 379l110 43l129 -421l-129 -419l-110 44z" />
    <glyph glyph-name="cid119" unicode="&#x300c;" 
d="M653 26l15 729l264 2v-128l-134 6l10 -608z" />
    <glyph glyph-name="cid120" unicode="&#x300d;" 
d="M341 625l-15 -729l-264 -2v128l134 -6l-10 608z" />
    <glyph glyph-name="cid121" unicode="&#x300e;" 
d="M828 639v-609h-166v727h270v-118h-104zM730 72h31v616h116v21h-147v-637z" />
    <glyph glyph-name="cid122" unicode="&#x300f;" 
d="M167 11v609h166v-727h-270v118h104zM264 578h-30v-616h-116v-21h146v637z" />
    <glyph glyph-name="cid123" unicode="&#x3016;" 
d="M650 752h284q-50 -91 -73 -197.5t-23 -230.5q0 -125 23 -233t73 -199h-284v860zM729 -39h76q-24 78 -33 168t-9 195q0 104 9 192t33 167h-76v-722z" />
    <glyph glyph-name="cid124" unicode="&#x3017;" 
d="M346 -108h-284q50 91 73 199t23 233q0 124 -23 230.5t-73 197.5h284v-860zM267 683h-76q24 -79 33 -167t9 -192q0 -105 -9 -195t-33 -168h76v722z" />
    <glyph glyph-name="cid125" unicode="&#x3010;" 
d="M722 723h209q-43 -91 -64 -191.5t-21 -223.5q0 -124 21 -224.5t64 -190.5h-209v830z" />
    <glyph glyph-name="cid126" unicode="&#x3011;" 
d="M267 -106h-208q42 90 63.5 190.5t21.5 224.5q0 123 -21.5 223.5t-63.5 191.5h208v-830z" />
    <glyph glyph-name="degree" unicode="&#xb0;" horiz-adv-x="354" 
d="M194 611l3 72l-36 -7l-1 -62zM312 711l-8 -194l-257 -10l7 271h203z" />
    <glyph glyph-name="cid166" unicode="&#xff04;" horiz-adv-x="643" 
d="M607 514l-219 -1l4 -143h142l77 -83l-20 -296l-189 -1l3 -92h-161l2 91l-214 -1l4 116l213 1l4 140l-218 -1l26 393h202l3 85h117l2 -84l222 1v-125zM187 370h69l4 142h-68zM455 106l8 140l-68 -1l4 -140z" />
    <glyph glyph-name="cid262" unicode="&#xff01;" 
d="M203 134h-120l-16 594h162zM228 -98h-165l16 171h129z" />
    <glyph glyph-name="cid265" unicode="&#xffe5;" horiz-adv-x="631" 
d="M26 248l219 -4l4 123l-223 6v107l156 4l-141 166l116 74l160 -215l160 215l116 -74l-135 -160l147 3v-134l-224 5l3 -123l221 -5v-109l-217 -5l8 -223h-162l7 220l-215 -4v133z" />
    <glyph glyph-name="cid269" unicode="&#xff08;" 
d="M930 706q-48 -84 -72 -185.5t-24 -207t24 -207t72 -185.5l-142 -26q-49 91 -73.5 199t-24.5 219.5t24.5 219.5t73.5 199z" />
    <glyph glyph-name="cid270" unicode="&#xff09;" 
d="M202 732q49 -91 73 -199t24 -219.5t-24 -219.5t-73 -199l-142 26q48 84 72 185.5t24 207t-24 207t-72 185.5z" />
    <glyph glyph-name="cid273" unicode="&#xff0c;" 
d="M195 -108l-134 9l4 199l170 -9z" />
    <glyph glyph-name="cid287" unicode="&#xff1a;" 
d="M207 363h-133l-16 171h168zM207 13h-133l-16 171h168z" />
    <glyph glyph-name="cid288" unicode="&#xff1b;" 
d="M187 2l-126 9l6 190l161 -10zM216 363h-133l-16 170h168z" />
    <glyph glyph-name="cid292" unicode="&#xff1f;" 
d="M367 -99h-174l16 157h137zM59 596l3 123l438 -9l80 -68l-11 -310l-219 -5l8 -235l-164 3l13 351l217 2l3 156z" />
    <glyph glyph-name="cid401" unicode="&#x306e;" 
d="M552 1q78 25 130 76.5t78.5 115.5t28.5 133t-18.5 129.5t-64 105t-107.5 59.5q-2 -65 -11.5 -139.5t-27 -148.5t-42.5 -142.5t-58 -121.5t-74 -86t-89 -35q-65 -3 -113 35t-74 102.5t-27.5 146.5t25.5 166q26 80 69.5 144t100.5 109t126 69t146 24q83 0 151.5 -35
t116.5 -93t73.5 -132.5t24.5 -153.5q-1 -63 -20 -125.5t-54 -119t-85.5 -104.5t-115.5 -82zM281 73q32 2 65 48.5t60.5 122t48 172.5t27.5 199q-43 -9 -80 -32.5t-68 -57t-56 -74t-44 -83.5q-17 -38 -21.5 -89.5t2 -98t23 -78t43.5 -29.5z" />
    <glyph glyph-name="cid573" unicode="&#xe78d;" 
d="M891 550l-134 9l4 199l170 -9z" />
    <glyph glyph-name="cid573" unicode="&#xfe10;" 
d="M891 550l-134 9l4 199l170 -9z" />
    <glyph glyph-name="cid574" unicode="&#xe78e;" 
d="M816 589l3 72l-44 -7l-1 -62zM934 689l-8 -194l-265 -10l6 271h212z" />
    <glyph glyph-name="cid574" unicode="&#xfe12;" 
d="M816 589l3 72l-44 -7l-1 -62zM934 689l-8 -194l-265 -10l6 271h212z" />
    <glyph glyph-name="cid575" unicode="&#xe78f;" 
d="M665 665l70 94l195 -126l-96 -117z" />
    <glyph glyph-name="cid575" unicode="&#xfe11;" 
d="M665 665l70 94l195 -126l-96 -117z" />
    <glyph glyph-name="cid576" unicode="&#xe790;" 
d="M915 363h-133l-16 171h168zM915 13h-133l-16 171h168z" />
    <glyph glyph-name="cid576" unicode="&#xfe13;" 
d="M915 363h-133l-16 171h168zM915 13h-133l-16 171h168z" />
    <glyph glyph-name="cid577" unicode="&#xe791;" 
d="M886 2l-126 9l6 190l161 -10zM915 363h-133l-16 170h168z" />
    <glyph glyph-name="cid577" unicode="&#xfe14;" 
d="M886 2l-126 9l6 190l161 -10zM915 363h-133l-16 170h168z" />
    <glyph glyph-name="cid578" unicode="&#xe792;" 
d="M909 134h-120l-16 594h162zM934 -98h-165l16 171h129z" />
    <glyph glyph-name="cid578" unicode="&#xfe15;" 
d="M909 134h-120l-16 594h162zM934 -98h-165l16 171h129z" />
    <glyph glyph-name="cid579" unicode="&#xe793;" 
d="M720 -99h-174l16 157h137zM412 596l3 123l438 -9l80 -68l-11 -310l-219 -5l8 -235l-164 3l13 351l217 2l3 156z" />
    <glyph glyph-name="cid579" unicode="&#xfe16;" 
d="M720 -99h-174l16 157h137zM412 596l3 123l438 -9l80 -68l-11 -310l-219 -5l8 -235l-164 3l13 351l217 2l3 156z" />
    <glyph glyph-name="cid580" unicode="&#xfe35;" 
d="M892 -108q-84 48 -185.5 72t-207 24t-207 -24t-185.5 -72l-26 142q91 49 199 73t219.5 24t219.5 -24t199 -73z" />
    <glyph glyph-name="cid581" unicode="&#xfe36;" 
d="M918 619q-91 -49 -199 -73.5t-219.5 -24.5t-219.5 24.5t-199 73.5l26 142q84 -48 185.5 -72t207 -24t207 24t185.5 72z" />
    <glyph glyph-name="cid584" unicode="&#xfe3f;" 
d="M908 24l-48 -129l-360 197l-360 -197l-49 129l409 218z" />
    <glyph glyph-name="cid585" unicode="&#xfe40;" 
d="M500 409l-409 218l49 129l360 -197l360 197l48 -129z" />
    <glyph glyph-name="cid586" unicode="&#xfe3d;" 
d="M132 -106l-43 110l410 129l412 -129l-42 -110l-371 132zM124 65l-44 110l419 129l421 -129l-43 -110l-379 132z" />
    <glyph glyph-name="cid587" unicode="&#xfe3e;" 
d="M498 629l371 132l42 -110l-412 -129l-410 129l43 110zM498 458l379 132l43 -110l-421 -129l-419 129l44 110z" />
    <glyph glyph-name="cid588" unicode="&#xfe41;" 
d="M134 177l729 -15l2 -264h-128l6 134l-608 -10z" />
    <glyph glyph-name="cid589" unicode="&#xfe42;" 
d="M865 481l-729 15l-2 264h128l-6 -134l608 10z" />
    <glyph glyph-name="cid590" unicode="&#xfe43;" 
d="M745 -5h-609v166h727v-270h-118v104zM178 93v-31h616v-116h21v147h-637z" />
    <glyph glyph-name="cid591" unicode="&#xfe44;" 
d="M254 654h609v-166h-727v270h118v-104zM821 557v30h-616v116h-21v-146h637z" />
    <glyph glyph-name="cid592" unicode="&#xe794;" 
d="M930 174v-284q-91 50 -197.5 73t-230.5 23q-125 0 -233 -23t-199 -73v284h860zM139 95v-76q78 24 168 33t195 9q104 0 192 -9t167 -33v76h-722z" />
    <glyph glyph-name="cid592" unicode="&#xfe17;" 
d="M930 174v-284q-91 50 -197.5 73t-230.5 23q-125 0 -233 -23t-199 -73v284h860zM139 95v-76q78 24 168 33t195 9q104 0 192 -9t167 -33v76h-722z" />
    <glyph glyph-name="cid593" unicode="&#xe795;" 
d="M70 475v284q91 -50 199 -73t233 -23q124 0 230.5 23t197.5 73v-284h-860zM861 554v76q-79 -24 -167 -33t-192 -9q-105 0 -195 9t-168 33v-76h722z" />
    <glyph glyph-name="cid593" unicode="&#xfe18;" 
d="M70 475v284q91 -50 199 -73t233 -23q124 0 230.5 23t197.5 73v-284h-860zM861 554v76q-79 -24 -167 -33t-192 -9q-105 0 -195 9t-168 33v-76h722z" />
    <glyph glyph-name="cid594" unicode="&#xfe3b;" 
d="M915 108v-209q-91 43 -191.5 64t-223.5 21q-124 0 -224.5 -21t-190.5 -64v209h830z" />
    <glyph glyph-name="cid595" unicode="&#xfe3c;" 
d="M85 549v208q90 -42 190.5 -63.5t224.5 -21.5q123 0 223.5 21.5t191.5 63.5v-208h-830z" />
    <glyph glyph-name="cid598" unicode="&#xfe31;" 
d="M550 758l20 -794h-141l15 794h106z" />
    <glyph glyph-name="cid599" unicode="&#x205d;" 
d="M414 572v133l171 15v-167zM414 -79v133l171 15v-167zM414 246v133l171 16v-168z" />
    <glyph glyph-name="cid599" unicode="&#xfe19;" 
d="M414 572v133l171 15v-167zM414 -79v133l171 15v-167zM414 246v133l171 16v-168z" />
    <glyph glyph-name="cid599" unicode="&#xe796;" 
d="M414 572v133l171 15v-167zM414 -79v133l171 15v-167zM414 246v133l171 16v-168z" />
    <glyph glyph-name="cid814" horiz-adv-x="262" 
d="M193 134h-129l-17 594h171zM217 -101h-173l16 171h137z" />
    <glyph glyph-name="cid815" horiz-adv-x="422" 
d="M160 587l-116 8l1 186l153 -8zM343 572l-118 8l5 201l153 -8z" />
    <glyph glyph-name="cid816" horiz-adv-x="743" 
d="M491 721l127 -14l-10 -145l106 3v-147l-116 3l-12 -169l110 -3v-112l-118 -4l-16 -231l-181 11l29 217l-126 -4l-23 -224l-182 18l35 202l-83 -2v146l106 -2l29 169l-117 3v112l137 2l28 173l129 -15l-17 -154l142 4zM297 259l130 -3l23 169l-136 4z" />
    <glyph glyph-name="cid817" horiz-adv-x="643" 
d="M607 514l-219 -1l4 -143h142l77 -83l-20 -296l-189 -1l3 -92h-161l2 91l-214 -1l4 116l213 1l4 140l-218 -1l26 393h202l3 85h117l2 -84l222 1v-125zM187 370h69l4 142h-68zM455 106l8 140l-68 -1l4 -140z" />
    <glyph glyph-name="cid818" horiz-adv-x="871" 
d="M727 716l94 -90l-648 -723l-132 119zM251 519l2 82l-55 -7v-71zM403 629l-8 -213l-345 -8l6 296h274zM678 25l2 82l-54 -7l-1 -71zM830 134l-7 -212l-345 -9l5 297h274z" />
    <glyph glyph-name="cid819" horiz-adv-x="821" 
d="M707 -54l-80 61l-46 -99l-536 -2l11 359l140 72l-121 93l12 287l462 2l82 -88l8 -223l-172 -87l103 -77l55 103l133 -58l-64 -138l101 -77zM216 35l249 9l32 62l-176 135l-108 -59zM488 484l3 108l-249 -6l4 -98l98 -74z" />
    <glyph glyph-name="cid820" horiz-adv-x="234" 
d="M164 566l-118 9l5 199l153 -9z" />
    <glyph glyph-name="cid821" horiz-adv-x="320" 
d="M289 698q-48 -84 -72 -183t-24 -201.5t24 -201.5t72 -183l-142 -25q-49 91 -73.5 196.5t-24.5 213.5t24.5 213t73.5 196z" />
    <glyph glyph-name="cid822" horiz-adv-x="320" 
d="M173 723q49 -91 73 -196t24 -213t-24 -213.5t-73 -196.5l-142 25q48 84 72 183t24 201.5t-24 201.5t-72 183z" />
    <glyph glyph-name="cid823" horiz-adv-x="415" 
d="M294 592l91 -48l-71 -99l-51 43l7 -59h-121l7 65l-55 -46l-71 97l85 46l-85 46l70 95l56 -46l-7 71h121l-8 -65l53 43l70 -95z" />
    <glyph glyph-name="cid824" horiz-adv-x="682" 
d="M8 382l267 7l10 263h108l9 -259l271 8v-141l-266 6l10 -278h-156l10 281l-263 5v108z" />
    <glyph glyph-name="cid825" horiz-adv-x="252" 
d="M181 -152l-134 9l4 199l170 -9z" />
    <glyph glyph-name="cid826" horiz-adv-x="764" 
d="M38 383l676 20v-141l-676 15v106z" />
    <glyph glyph-name="cid827" horiz-adv-x="250" 
d="M191 -147h-133l-16 171h168z" />
    <glyph glyph-name="cid828" horiz-adv-x="433" 
d="M309 721l113 -35l-252 -782l-163 54z" />
    <glyph glyph-name="cid829" horiz-adv-x="634" 
d="M409 22l5 562l-195 -7l8 -552zM569 622l21 -725l-544 -1l23 808l410 2z" />
    <glyph glyph-name="cid830" horiz-adv-x="259" 
d="M61 715h136l22 -820h-179z" />
    <glyph glyph-name="cid831" horiz-adv-x="641" 
d="M60 572l3 133l446 -10l89 -67l-21 -365l-348 -5v-232h358l2 -124l-542 -3l25 482l349 1l12 196z" />
    <glyph glyph-name="cid832" horiz-adv-x="643" 
d="M581 641l16 -743l-555 -2v119l382 -2l3 227l-374 6v107l377 12l4 221l-387 -6v122l448 1z" />
    <glyph glyph-name="cid833" horiz-adv-x="678" 
d="M351 -107l10 266l-294 -6l-46 93l74 445l132 -10l-44 -406l181 5l16 430h128l13 -427l135 4v-121l-131 -3l10 -270h-184z" />
    <glyph glyph-name="cid834" horiz-adv-x="610" 
d="M562 578l-349 -2l-5 -205h281l77 -81l-19 -385l-505 -3l9 112l346 2l8 235l-362 -3l25 448l490 2z" />
    <glyph glyph-name="cid835" horiz-adv-x="647" 
d="M440 17l3 240l-224 -2l1 -234zM217 372l297 7l84 -66l4 -418l-555 2l9 799l531 6l5 -118l-382 -1z" />
    <glyph glyph-name="cid836" horiz-adv-x="566" 
d="M542 631l-187 -739l-186 38l207 656l-355 -5v121l427 2z" />
    <glyph glyph-name="cid837" horiz-adv-x="631" 
d="M584 -106l-537 1l11 802l434 6l84 -88zM431 584h-220l4 -225l212 2zM221 19l200 -4l4 225l-208 -1z" />
    <glyph glyph-name="cid838" horiz-adv-x="640" 
d="M203 582l-1 -222l231 2l3 215zM433 245l-386 -8l3 464h452l91 -82l-9 -719l-534 -6l-4 118l384 1z" />
    <glyph glyph-name="cid839" horiz-adv-x="253" 
d="M192 363h-133l-16 171h168zM192 13h-133l-16 171h168z" />
    <glyph glyph-name="cid840" horiz-adv-x="249" 
d="M169 2l-126 9l6 190l161 -10zM198 363h-133l-16 170h168z" />
    <glyph glyph-name="cid841" horiz-adv-x="390" 
d="M228 723l129 -48l-197 -360l197 -360l-129 -49l-218 409z" />
    <glyph glyph-name="cid842" horiz-adv-x="757" 
d="M45 483l666 20v-142l-666 16v106zM711 137l-666 -15v142l666 -20v-107z" />
    <glyph glyph-name="cid843" horiz-adv-x="390" 
d="M380 315l-218 -409l-129 49l197 360l-197 360l129 48z" />
    <glyph glyph-name="cid844" horiz-adv-x="570" 
d="M335 -102h-174l16 162h137zM27 584l3 131l438 -10l80 -68l-11 -309l-219 -5l8 -229l-164 3l13 345l217 2l3 148z" />
    <glyph glyph-name="cid845" horiz-adv-x="886" 
d="M476 243l3 149l-55 -8l-1 -139zM628 434l-5 -194l46 4l2 341l-450 -7l6 -534l611 -3l1 -128l-792 -2l24 797l653 3l102 -88l12 -506l-562 4l6 389h274z" />
    <glyph glyph-name="cid846" horiz-adv-x="743" 
d="M452 698l281 -754l-173 -54l-56 184l-258 4l-55 -188l-179 54l282 755zM279 192l188 4l-95 316z" />
    <glyph glyph-name="cid847" horiz-adv-x="701" 
d="M660 -103l-621 2l11 787l508 8l95 -91l2 -250l-67 -59l69 -53zM502 574l-298 -1l3 -218l291 2zM213 23l279 -3l4 216l-287 -1z" />
    <glyph glyph-name="cid848" horiz-adv-x="740" 
d="M691 570l-471 2l7 -538l465 -3l1 -125l-646 -1l22 786l621 2z" />
    <glyph glyph-name="cid849" horiz-adv-x="792" 
d="M581 24l5 559l-366 -6l8 -551zM741 621l4 -617l-86 -106l-612 -1l23 807l569 2z" />
    <glyph glyph-name="cid850" horiz-adv-x="700" 
d="M651 702v-123l-442 7l3 -226l424 -13v-107l-422 -7l3 -221l439 2v-119l-609 2l16 809z" />
    <glyph glyph-name="cid851" horiz-adv-x="635" 
d="M626 704v-122l-415 6l2 -237l401 -13v-107l-401 -7l4 -331l-170 -1l16 817z" />
    <glyph glyph-name="cid852" horiz-adv-x="763" 
d="M725 581l-507 -5l7 -554l323 -2l9 214h-195l15 126l278 1l68 -90l2 -377l-681 -2l24 811l656 3z" />
    <glyph glyph-name="cid853" horiz-adv-x="727" 
d="M536 709h133l20 -824h-175l10 349l-321 10l9 -359h-175l22 824h133l9 -356l325 12z" />
    <glyph glyph-name="cid854" horiz-adv-x="253" 
d="M63 713h128l22 -818h-174z" />
    <glyph glyph-name="cid855" horiz-adv-x="385" 
d="M324 706l16 -814l-327 -2v120l157 -3l10 698z" />
    <glyph glyph-name="cid856" horiz-adv-x="730" 
d="M566 -108l-274 377l-85 -76l4 -301h-164l15 817h137l5 -345l352 342l107 -108l-281 -249l314 -360z" />
    <glyph glyph-name="cid857" horiz-adv-x="542" 
d="M198 705l14 -693l323 8v-126l-489 2l18 810z" />
    <glyph glyph-name="cid858" horiz-adv-x="995" 
d="M819 -106l-77 538l-139 -498h-204l-139 498l-76 -539l-162 22l162 791h155l162 -587l162 587h156l161 -786z" />
    <glyph glyph-name="cid859" horiz-adv-x="717" 
d="M491 -110l-310 604l17 -603l-161 -1l9 815l173 -1l322 -600l-12 596l154 -1l-10 -808z" />
    <glyph glyph-name="cid860" horiz-adv-x="766" 
d="M568 19l5 554l-363 -6l7 -545zM727 611l21 -717l-711 -2l22 802l567 3z" />
    <glyph glyph-name="cid861" horiz-adv-x="757" 
d="M209 -106l-167 1l-2 804l603 2l87 -91l-5 -450l-520 -1zM199 574v-296l370 -2l-1 303z" />
    <glyph glyph-name="cid862" horiz-adv-x="783" 
d="M728 589l15 -689h-174l37 -93l-163 -35l-33 127l-377 -1l24 775l569 2zM361 130l130 29l40 -133h38l4 527l-366 -7l6 -518l170 -1z" />
    <glyph glyph-name="cid863" horiz-adv-x="735" 
d="M218 -106l-167 1l-2 804l569 2l87 -91l-5 -391h-112l131 -265l-157 -61l-124 325h-224zM208 574v-237l336 -2l-1 244z" />
    <glyph glyph-name="cid864" horiz-adv-x="687" 
d="M658 577l-447 -2l-4 -214h379l77 -81l-20 -384l-613 -3l11 122l442 2l9 217l-401 -2l-54 104l20 368l597 2z" />
    <glyph glyph-name="cid865" horiz-adv-x="739" 
d="M13 685l716 19v-147l-284 6l22 -670h-191l23 673l-286 6v113z" />
    <glyph glyph-name="cid866" horiz-adv-x="746" 
d="M696 701l-6 -804l-640 6l-9 798h171l-8 -685l335 -1l-9 686h166z" />
    <glyph glyph-name="cid867" horiz-adv-x="733" 
d="M271 -107l-248 773l155 44l188 -607l190 607l154 -44l-247 -772z" />
    <glyph glyph-name="cid868" horiz-adv-x="1047" 
d="M1011 674l-164 -775h-174l-150 586l-149 -586h-174l-164 775l167 37l86 -562l142 519h185l142 -519l87 561z" />
    <glyph glyph-name="cid869" horiz-adv-x="735" 
d="M149 710l218 -289l219 289l105 -70l-234 -338l241 -317l-135 -97l-196 283l-195 -283l-135 97l240 317l-233 338z" />
    <glyph glyph-name="cid870" horiz-adv-x="730" 
d="M18 633l111 83l238 -300l234 300l111 -83l-279 -337l17 -400h-169l17 400z" />
    <glyph glyph-name="cid871" horiz-adv-x="757" 
d="M712 575l-467 -555l462 16v-135h-613l-50 121l475 553l-461 -16l-1 135h605z" />
    <glyph glyph-name="cid872" horiz-adv-x="335" 
d="M51 749l238 5v-129l-94 3l8 -612l86 5v-129l-242 3z" />
    <glyph glyph-name="cid873" horiz-adv-x="347" 
d="M337 -50l-164 -45l-157 800l113 25z" />
    <glyph glyph-name="cid874" horiz-adv-x="334" 
d="M287 -105l-242 -3v129l86 -5l8 612l-94 -3v129l238 -5z" />
    <glyph glyph-name="cid875" horiz-adv-x="491" 
d="M183 798h124l160 -232l-131 -69l-91 175l-89 -174l-133 68z" />
    <glyph glyph-name="cid876" horiz-adv-x="762" 
d="M39 55l674 17v-133l-674 11v105z" />
    <glyph glyph-name="cid877" horiz-adv-x="219" 
d="M15 754l124 28l55 -181l-91 -32z" />
    <glyph glyph-name="cid878" horiz-adv-x="607" 
d="M371 21l7 339l-165 -7l10 -330zM533 398l4 -378h49v-128l-541 -2l17 593l369 3z" />
    <glyph glyph-name="cid879" horiz-adv-x="585" 
d="M396 27l2 314l-190 -2l1 -307zM205 460l264 7l84 -85l5 -480l-518 1l10 819h149z" />
    <glyph glyph-name="cid880" horiz-adv-x="620" 
d="M572 -118l-527 -1l17 600l510 2v-126l-360 -6l10 -337l350 -2v-130z" />
    <glyph glyph-name="cid881" horiz-adv-x="574" 
d="M357 26l1 294l-177 -1l3 -298zM366 723h151l10 -825l-506 -2l5 550l334 -4z" />
    <glyph glyph-name="cid882" horiz-adv-x="635" 
d="M219 26l370 -3l1 -129l-544 -2l15 591l448 3l76 -88l2 -273l-371 2zM427 252l3 108l-218 -8l1 -104z" />
    <glyph glyph-name="cid883" horiz-adv-x="510" 
d="M156 -101l7 382l-151 4v105l154 5l7 320l306 1v-126l-156 -6l2 -183l158 6v-133l-156 4l6 -377z" />
    <glyph glyph-name="cid884" horiz-adv-x="598" 
d="M198 361l-1 -213l196 2l5 206zM393 29l-351 -8l3 464h419l90 -86l-10 -642l-499 -7l-4 122l349 2z" />
    <glyph glyph-name="cid885" horiz-adv-x="572" 
d="M377 -96l9 442l-194 -1l8 -441h-163l9 818l142 1l5 -257l249 4l95 -93l5 -473h-165z" />
    <glyph glyph-name="cid886" horiz-adv-x="265" 
d="M66 432h133l24 -538h-180zM199 509h-133l-16 179h168z" />
    <glyph glyph-name="cid887" horiz-adv-x="306" 
d="M106 431h151l-11 -673l-241 -7l-4 122l104 2zM248 511h-133l-15 179h167z" />
    <glyph glyph-name="cid888" horiz-adv-x="560" 
d="M367 293l180 -303l-136 -89l-142 304l-65 -58l6 -247h-164l17 839h129l9 -430l242 248l94 -112z" />
    <glyph glyph-name="cid889" horiz-adv-x="257" 
d="M63 717h131l23 -826h-178z" />
    <glyph glyph-name="cid890" horiz-adv-x="861" 
d="M649 -115l9 479l-157 -1l11 -473h-154l13 473h-161l8 -478h-171l9 595l659 7l95 -93l5 -509h-166z" />
    <glyph glyph-name="cid891" horiz-adv-x="585" 
d="M379 -110l9 475l-182 -1l8 -474h-171l9 592l392 6l95 -93l6 -505h-166z" />
    <glyph glyph-name="cid892" horiz-adv-x="613" 
d="M396 26l15 323l-197 -6l8 -315zM565 387l12 -490l-536 -2l23 578l400 3z" />
    <glyph glyph-name="cid893" horiz-adv-x="574" 
d="M198 352l5 -260l183 -2l-1 266zM211 -303h-162l-11 783l421 1l89 -94l-5 -415l-336 -1z" />
    <glyph glyph-name="cid894" horiz-adv-x="570" 
d="M193 356l-1 -266l183 2l5 260zM371 -29l-336 1v509l415 -1l89 -98l-10 -691h-162z" />
    <glyph glyph-name="cid895" horiz-adv-x="477" 
d="M63 495h119l5 -132l181 135l108 -109l-284 -175l12 -330h-164z" />
    <glyph glyph-name="cid896" horiz-adv-x="561" 
d="M519 375l-324 -3l-4 -119h255l77 -84l-19 -278l-470 -4l9 117l321 1l7 124l-276 -3l-54 101l19 268l455 2z" />
    <glyph glyph-name="cid897" horiz-adv-x="512" 
d="M478 -105l-324 -1l10 430l-145 4v115l148 4l4 226l150 -1l3 -219l166 7v-144l-164 4l5 -293h147v-132z" />
    <glyph glyph-name="cid898" horiz-adv-x="597" 
d="M550 490l-6 -603l-489 7l-9 596h168l-9 -480l189 -1l-10 481h166z" />
    <glyph glyph-name="cid899" horiz-adv-x="621" 
d="M171 498l134 -498l145 498l154 -34l-203 -574h-194l-193 574z" />
    <glyph glyph-name="cid900" horiz-adv-x="825" 
d="M804 467l-145 -582h-134l-114 405l-114 -405h-134l-145 582l136 37l77 -376l109 332h142l109 -332l76 375z" />
    <glyph glyph-name="cid901" horiz-adv-x="577" 
d="M133 507l156 -197l155 197l99 -71l-165 -237l182 -230l-132 -91l-139 196l-138 -196l-131 91l181 231l-165 236z" />
    <glyph glyph-name="cid902" horiz-adv-x="679" 
d="M118 505l218 -289l219 289l105 -70l-477 -678l-135 97l198 243l-233 338z" />
    <glyph glyph-name="cid903" horiz-adv-x="578" 
d="M542 393l-317 -381l310 15v-137h-453l-51 107l318 379l-303 -15l-1 136h446z" />
    <glyph glyph-name="cid904" horiz-adv-x="397" 
d="M24 376l64 -5l8 350l252 -2v-125l-114 3l6 -579l113 3v-123l-273 2l6 345l-62 -3v134z" />
    <glyph glyph-name="cid905" horiz-adv-x="230" 
d="M62 728h108l23 -826h-156z" />
    <glyph glyph-name="cid906" horiz-adv-x="397" 
d="M301 721l7 -350l65 5v-134l-63 3l7 -345l-273 -2v123l113 -3l6 579l-114 -3v125z" />
    <glyph glyph-name="cid907" horiz-adv-x="494" 
d="M464 303q-20 -30 -49.5 -44t-62 -13.5t-63.5 13.5t-55 37q-31 31 -62 40t-58 0.5t-49 -32t-35 -57.5v155q52 55 113.5 57.5t124.5 -55.5q29 -27 57.5 -39t54 -6.5t47 29.5t37.5 69v-154z" />
    <glyph glyph-name="cid940" unicode="&#x554a;" 
d="M458 419l26 162l-50 -8l21 -674l-142 1q4 199 7.5 399t3.5 398l195 2l85 -80l-59 -226l55 -75l-18 -327l-117 27l6 114l17 -5l6 122l-36 60v110zM302 555l-8 -505l-252 -10l7 579h173zM957 714l1 -132h-31l10 -680l-196 -5l3 104l55 4l13 579l-198 4l2 109zM791 465v-386
l-180 4l5 437h133zM184 165l2 337l-36 -8v-337zM711 175l1 248l-23 -5l5 -239z" />
    <glyph glyph-name="cid941" unicode="&#x963f;" 
d="M229 427l40 168l-72 -8l25 -698l-173 1l13 821l244 2l113 -80l-81 -231l72 -75l-22 -311l-155 28l8 114l27 -5l13 99l-52 65v110zM949 713l2 -145h-47l15 -673l-267 -6l5 128l90 4l14 549l-331 4l3 123zM723 448l1 -361l-286 3l7 418h219zM599 189l2 216l-35 -4l2 -208z
" />
    <glyph glyph-name="cid942" unicode="&#x57c3;" 
d="M381 -9l133 106l-129 -1v122l204 -6l8 68l-81 2l-23 -51l-112 28l51 188l147 -27l-16 -35l358 7l2 -121l-181 5l8 -68l202 -5l2 -100l-237 -3l-215 -218zM352 483l1 -141l-73 2l-5 -207l83 6l5 -112l-317 -51v143l81 5l-4 224l-72 4v115l70 3l-3 194h170l-5 -188z
M713 678l-125 -106l177 15l-23 67l94 37l110 -205l-126 -61l-21 60l-356 -32l-36 116l190 178zM869 -118l-187 123l60 85l206 -75z" />
    <glyph glyph-name="cid943" unicode="&#x6328;" 
d="M295 724l-1 -145l74 4l4 -131l-78 1v-124l66 11l16 -108l-82 -23v-311l-220 -10l9 122l52 2l-1 154l-65 -18l-26 142l91 14v151l-81 1v113l80 3v152h162zM383 -11l133 106l-129 -1v122l204 -6l8 68l-81 2l-23 -51l-112 28l50 188l148 -27l-16 -35l358 7l2 -121l-181 5
l8 -68l202 -5l2 -100l-238 -3l-214 -218zM715 676l-125 -106l177 15l-23 67l94 37l109 -205l-125 -61l-21 60l-356 -32l-36 116l190 178zM870 -120l-186 123l60 85l206 -75z" />
    <glyph glyph-name="cid944" unicode="&#x54ce;" 
d="M382 539l-11 -525l-325 5l1 598h266zM393 1l184 204l-131 174l101 72l126 -140l127 140l102 -72l-132 -174l184 -204l-140 -110l-140 186l-141 -186zM635 735l-3 -70l82 3l-2 67h156l-3 -61l79 4l2 -150l-88 1l-3 -59h-134l-3 61l-92 2l-3 -63h-133l-3 66l-86 2l3 118
l79 3l-3 76h155zM238 137l-3 369l-43 -7l-3 -364z" />
    <glyph glyph-name="cid945" unicode="&#x5509;" 
d="M383 539l-11 -525l-325 5l1 598h266zM396 -8l129 105l-125 -1v122l196 -6l8 66l-76 1l-19 -48l-113 28l42 186l147 -27l-15 -35l349 13l2 -121l-172 2l7 -69l194 -5l2 -100l-225 -3l-210 -218zM720 676l-122 -104l157 14l-20 58l94 37l109 -195l-125 -61l-22 60l-339 -32
l-36 116l185 174zM869 -118l-168 123l59 83l188 -75zM239 137l-3 369l-43 -7l-3 -364z" />
    <glyph glyph-name="cid946" unicode="&#x54c0;" 
d="M817 -122l-312 286l59 62l-121 -1l41 -39l-114 -79l65 2l11 -77l105 17l3 -123l-280 -46l-5 155l-117 -82l-99 129l265 142l-176 -1l11 296l592 11l98 -92l8 -210l-244 -2l136 -88l103 74l79 -107l-69 -40l90 -58zM909 694l2 -140l-830 11l3 114l328 6l-6 53h180l-5 -50z
M654 344l3 58h-320l2 -61z" />
    <glyph glyph-name="cid947" unicode="&#x7691;" 
d="M415 -111l20 344l327 10l10 62h-355l2 122l425 11l80 -62l6 -261l-339 -2l6 -91h201l3 54l153 -4l-7 -172zM393 486l-9 -510l-332 -2l-6 584h84l29 126l151 -41l-40 -85h40zM423 465l10 220h129l4 -99h34l12 147h135l12 -149h42l2 101h132l-4 -215zM247 443l-55 -8
l-1 -121l55 5zM244 91l1 119l-54 -1v-116z" />
    <glyph glyph-name="cid948" unicode="&#x764c;" 
d="M952 561l-572 12q-2 -40 -6.5 -94.5t-10 -116t-12.5 -126.5t-15 -126t-16.5 -114t-16.5 -90l-184 47q12 32 26.5 81.5t28.5 112.5l-83 -32l-42 127l157 55q14 72 27 143.5t21 135.5l-42 1l10 94l295 7l-10 55h171l-5 -52l278 6zM377 -111l16 188h135l3 -88h53l13 114h129
l12 -115l70 -1l1 90h136l-4 -184zM874 495l6 -139l-437 -1l9 189l340 2zM945 284l4 -164l-280 -1l10 214l193 3zM648 284l6 -164l-280 -1l9 214l194 3zM132 348l-84 124l108 72l66 -144zM713 440l2 26l-105 2v-26zM529 206l2 43l-33 3l-1 -43zM825 206l3 43l-34 3v-43z" />
    <glyph glyph-name="cid949" unicode="&#x853c;" 
d="M340 173l77 109h-28l-1 239h450l69 -50l-7 -182l-355 -5l-11 -21l317 1l93 -75l-21 -299l-191 -3l8 84l33 -1l27 204l-313 -7l-20 -39zM419 731l-5 -48l169 4l-3 44h185l-4 -39l171 5l3 -125l-185 2l-4 -37h-151l-3 39l-188 2l-4 -41h-151l-4 43l-181 3l4 92l171 4l-4 52
h184zM353 53l7 -114l-228 -47v345h-77l3 107l136 9l93 -66v-57v-37.5t0.5 -27t0.5 -27v-37.5v-57zM718 7l3 -73l-336 -5l-9 189l148 -1l-8 -104zM530 51l83 111l72 -24l-15 -37l52 15l50 -70l-87 -29l-23 67l-27 -67zM179 373l-70 109l142 47l42 -120zM750 451l-208 -3
l-2 -17h209zM748 355v18l-212 -6l-1 -14z" />
    <glyph glyph-name="cid950" unicode="&#x77ee;" 
d="M49 -55q31 75 56 150.5t43 153.5h-96v121l121 5q5 28 8.5 55.5t5.5 56.5l-24 1l-30 -75l-95 26l58 278l145 -34l-31 -77l185 6v-131l-82 2q-2 -27 -3.5 -52.5t-3.5 -51.5l91 4l5 -133h-109q-3 -22 -6.5 -43t-5.5 -41l62 35l105 -153l-128 -69l-51 125q-8 -49 -19 -96.5
t-23 -97.5zM606 312l4 60l-125 -93l-68 93l157 77l38 -45l3 52l-187 2l1 103l193 7l1 33l-146 -7v85l376 55l36 -122l-139 -7l2 -31l185 8l3 -128l-181 1l4 -59l43 50l156 -77l-68 -93l-130 97l5 -62zM716 280l-16 -28l245 7l1 -110l-108 1l55 -51l-80 -47l140 -47l-94 -122
l-183 91l-153 -90l-120 108l124 54l-72 35l38 74l-78 1l4 89l123 3l31 60zM646 153l-20 -36l35 -12l107 46z" />
    <glyph glyph-name="cid951" unicode="&#x827e;" 
d="M788 -110l-288 220l-289 -220l-135 127l294 192l-193 148l87 91l235 -154l236 154l88 -91l-194 -149l294 -191zM419 734l-5 -71l170 3l-4 68h182l-5 -64l175 5l3 -156l-188 2l-4 -61h-148l-4 64l-186 2l-5 -66h-148l-4 68l-184 2l4 124l174 4l-4 76h181z" />
    <glyph glyph-name="cid952" unicode="&#x788d;" 
d="M420 99l1 121l296 -11l-1 48l-267 4l1 96l479 11l2 -113h-59v-50l87 -3l1 -98l-89 -1l-1 -201l-210 -5l7 108l51 -1l-1 97l-187 -1l134 -57l-64 -111l-148 102l43 65h-75zM399 325l-5 -338l-257 -7l2 249l-21 -42l-79 49l104 276l-67 2l6 109l316 19l3 -136l-124 3
l-61 -123h130zM919 663l4 -272l-478 3l7 315l394 13zM284 87l2 194h-31l-1 -194h30zM772 488l1 25l-178 -4l1 -24zM777 621l-185 -1v-21l183 -6z" />
    <glyph glyph-name="cid953" unicode="&#x7231;" 
d="M900 474l-3 -87l-161 -3v42l-246 -6l40 -24l-28 -34l424 -4v-87l-516 -19l-21 -25h416l49 -103l-145 -67l182 -42l-85 -132l-272 95l-206 -94l-99 120l122 39l-57 21l49 71l-31 -1l-119 -141l-120 95l155 157l-145 -4l2 126l260 -3l52 54l-116 -3l-2 -29l-162 -1v125
l131 2l-60 49l46 38l-109 -2l4 87l711 55l32 -128l-106 -2l59 -48l-52 -42l39 1zM641 546l62 61l-172 -2l61 -59l-36 -30l118 2zM372 546l-40 -33l132 2l-58 46l51 42l-140 -3zM646 140l-268 -5l149 -34z" />
    <glyph glyph-name="cid954" unicode="&#x9698;" 
d="M222 428l38 164l-70 -7l24 -695l-168 1l13 818l252 2l89 -80l-73 -229l66 -75l-21 -308l-148 27l8 114l27 -5l12 97l-49 66v110zM920 162l-3 -159l36 -2l-1 -103l-563 -2v132l33 -1l1 205l436 5zM931 570v-123l-520 9v99zM863 251l-162 90l40 94l176 -56zM426 379l176 56
l39 -94l-162 -90zM706 668l141 70l49 -111l-152 -48zM598 579l-152 48l49 111l141 -70zM666 16l19 -1l4 115l-28 -1zM554 20l22 -1l4 108h-26v-107zM789 133l-23 -1l2 -121l18 -1z" />
    <glyph glyph-name="cid955" unicode="&#x978d;" 
d="M180 -107l2 104l-131 5l2 97l132 5l1 47h-119l4 248l120 2l1 38l-96 -4l5 140l-59 2l1 93l62 3l2 58l110 -1l1 -52l60 4l1 47l110 -1v-40l60 3v-125l-58 1l2 -120l-79 -3l1 -40l56 1l61 -69l-6 -183l-105 -1l1 -43l124 5l1 -126l-122 4l3 -99h-148zM455 286v104l131 6
l56 107l131 -53l-27 -47l211 9v-134l-94 1l49 -52l-118 -121l150 -108l-100 -119l-149 125l-122 -125l-110 117l120 101l-106 88l51 100zM950 589l-2 -122l-143 -1v75l-196 -7l-1 -76l-146 3l9 186l161 5l-7 79h163l-6 -75l101 4zM679 282l-37 -63l45 -34l112 95zM220 532
l56 -1v40l-57 1zM160 237h27l2 73l-29 -2v-71zM341 238l2 82l-26 -2l2 -80h22z" />
    <glyph glyph-name="cid956" unicode="&#x6c28;" 
d="M388 714l-24 -27l516 16v-101l-585 3l-22 -26l570 -11l-1 -72l-601 -11l3 60l-80 -94l-111 41l153 266zM72 95l2 78l163 5l44 57l138 -30l-18 -23l273 9l2 -96h-125l37 -54l-50 -18l113 -27l-61 -112l-214 78l-210 -78l-64 110l104 29l-68 24l36 48h-102zM728 473
l106 -51l26 -392l69 8l17 -114l-232 -34l-22 490l-506 -3l3 81zM668 278l-1 -78h-141v41l-303 1l-1 -42l-142 1l10 124l210 1l-5 32h159l-4 -32l144 1zM334 95l-16 -21l41 -10l114 31h-139z" />
    <glyph glyph-name="cid957" unicode="&#x5b89;" 
d="M75 255l3 113l219 8l83 134l167 -54l-48 -73l422 15l4 -142l-190 -1l59 -90l-114 -56l209 -72l-87 -158l-309 139l-285 -139l-90 158l180 69l-132 60l55 89h-146zM914 595l-3 -129h-184l-1 81l-453 -12l-1 -83l-185 3l14 210l322 8l-8 67h189l-7 -63l211 4zM414 255
l-31 -46l97 -33l207 79h-273z" />
    <glyph glyph-name="cid958" unicode="&#x4ffa;" 
d="M556 -115l6 166l-162 2l6 267l-87 76l92 116l-42 1l2 111l130 2l89 114l98 -56l-36 -54l269 8v-136l-55 1l99 -117l-93 -72l4 -266l-155 1l2 -52l77 3v32l130 3l-3 -138zM143 -111l24 517l-47 -59l-86 72l202 316l124 -90l-149 -185h91l23 -571h-182zM578 472h129l2 -55
l65 1l-60 88l-145 3l-68 -101l74 3zM756 322l-44 -2l2 -47l41 -1zM528 277l42 -1l1 38l-43 -1v-36zM754 147v42h-37l1 -43zM528 142l38 1v40l-38 -2v-39z" />
    <glyph glyph-name="cid959" unicode="&#x6309;" 
d="M395 283v105l138 4l54 107l135 -53l-25 -47l257 11v-134l-108 1l47 -55l-127 -111l165 -101l-88 -131l-186 137l-156 -137l-107 120l144 105l-110 81l49 97zM298 733l-1 -147l76 4l3 -131l-79 1v-130l68 10l15 -107l-83 -23v-313l-222 -9l9 122l54 1l-1 155l-66 -18
l-26 143l92 14v157l-82 2v113l81 3v153h162zM947 582l-1 -115l-149 -1v77l-246 -7l-1 -78l-149 3l10 188l187 5l-5 79h168l-7 -75l117 4zM629 279l-34 -60l54 -35l128 93z" />
    <glyph glyph-name="cid960" unicode="&#x6697;" 
d="M389 572l-6 -580l-333 -19l3 682l260 -6zM914 190l-6 -294l-464 -6l5 369h394zM950 425v-134l-543 7v111l98 3l-34 72l150 39l25 -107l64 1l26 106l150 -39l-31 -62zM919 669v-133l-482 15l1 106l166 4l-10 73h169l-12 -70zM243 530l-51 4l1 -167l50 -3v166zM243 96v159
l-50 -1l1 -162zM757 157l-151 -6v-32l150 -3zM756 -5v38l-150 -4v-34h150z" />
    <glyph glyph-name="cid961" unicode="&#x5cb8;" 
d="M928 322l-629 7q-4 -106 -14.5 -217.5t-33.5 -217.5l-191 48q35 94 57.5 194t36.5 195l-41 1l4 116l810 19zM524 -112l5 95l-220 -3l1 137l228 -5l3 49l-178 3l4 113l519 15v-137l-187 3l4 -51l233 -6l4 -112l-224 -3l9 -98h-201zM136 486l14 208h175l5 -82l103 -1
l14 127h149l16 -128l116 -1l2 85h176l-6 -203z" />
    <glyph glyph-name="cid962" unicode="&#x80fa;" 
d="M248 11l2 115h-50l4 -233h-155l14 803l257 18l68 -72l11 -748l-171 2l-7 115h27zM413 299v104l135 6l56 105l132 -53l-26 -46l241 10v-134l-120 2l53 -62l-111 -110l155 -106l-93 -130l-166 133l-133 -133l-110 126l126 100l-110 90l49 97zM945 605l-2 -120l-144 -1v74
l-234 -9l-1 -78l-147 3l10 188l177 5l-6 68h166l-5 -63l119 4zM642 295l-35 -61l54 -36l119 95zM257 580l-63 -1l1 -113l60 2zM199 244l53 2l1 101h-56z" />
    <glyph glyph-name="cid963" unicode="&#x6848;" 
d="M71 432l1 87l264 7l67 56l133 -32l-23 -20l413 12l3 -109l-199 -1l54 -47l-94 -29l192 -40l-88 -99l-294 81l-286 -89l-90 103l175 40l-131 36l54 44h-151zM925 208v-119l-128 1l118 -79l-132 -112l-125 143l64 49l-143 2l21 -203h-201l15 204l-145 2l72 -54l-124 -143
l-133 112l128 86l-138 2v91l346 7l5 59h138l5 -55zM900 642l-3 -86l-165 -3v48l-460 -13l-1 -48l-172 3l14 138l303 6l-6 46h179l-6 -42l225 6zM395 432l-12 -11l112 -24l149 35h-249z" />
    <glyph glyph-name="cid964" unicode="&#x80ae;" 
d="M251 12l2 117h-51l3 -235h-159l14 799l266 18l69 -71l12 -745l-173 2l-9 115h26zM422 -86q35 128 51 265t21 275l318 9l83 -93l10 -332l43 13l5 -138l-221 -24l6 435l-100 5q0 -52 -1 -103.5t-4 -105.5t-9 -111.5t-15 -120.5zM941 658v-150l-497 13v121l167 4l-5 89h175
l-10 -83zM260 577l-64 -1l1 -108l61 2zM201 247l54 2l1 100h-57z" />
    <glyph glyph-name="cid965" unicode="&#x6602;" 
d="M855 677l6 -292l-722 12l11 326l591 14zM488 -108l13 470h325l100 -60l-7 -331l-216 -6l1 104l66 1l-5 173l-110 -3l17 -348h-184zM458 -22l-384 -26l10 407l373 10l12 -116l-213 -4l9 -167l193 20v-124zM675 636l-346 -1l1 -27l343 -7zM666 483l2 32l-334 -4l1 -25z" />
    <glyph glyph-name="cid966" unicode="&#x76ce;" 
d="M836 627l2 -125l75 -1l7 -102l-370 -2l-267 -194l454 2l118 -65l2 -119l68 1l2 -121l-855 2l3 99l67 2l6 199h66l-107 81l197 111l-225 -1l4 119l78 -1l5 166l260 4l5 54l142 -1l3 -50l161 3zM836 177l-279 127l48 81l298 -74zM660 584l-77 -1l5 -77l70 -1zM341 509
l72 -1l5 73l-78 -1zM488 12l35 1l5 83l-46 -1zM317 7l35 1l5 85l-42 -1zM688 99l-40 -1l2 -82l33 1z" />
    <glyph glyph-name="cid967" unicode="&#x51f9;" 
d="M773 707l136 -70l19 -731l-857 -4q2 96 6 197.5t8.5 204t9 203.5t8.5 196l261 3l103 -85l5 -220l63 3l5 298zM684 569l-2 -296l-369 -11l6 303l-59 1l2 -518l474 10l3 509z" />
    <glyph glyph-name="cid968" unicode="&#x6556;" 
d="M62 546v108l130 5l-1 55h172l-1 -49l131 4v-128l-134 1l-1 -34l107 -2v-107l-109 -4l-1 -33l151 6v-128l-238 2l-5 -38l146 1l77 -72l-1 -228l-218 -8l9 109l45 1l6 84l-79 -3l-25 -200l-177 35l80 321l-76 1v107l152 5l-1 34l-110 -3v125l106 -2l-1 33zM822 -112
l-90 152l-68 -154l-156 75l129 240l-90 153l100 68l63 -86l84 158l114 -49l-104 -239l150 -207zM488 446l86 295l148 -54l-23 -50l238 9l-1 -134l-294 3l-47 -104z" />
    <glyph glyph-name="cid969" unicode="&#x71ac;" 
d="M52 167l100 185l-91 -2v105l141 -2l2 23l-108 2l-1 79l117 5l2 26l-140 -3l1 105l149 -3l4 42l132 -2l3 -42l155 -3l2 -85l-151 -5l2 -23l127 6v-103l-121 1l1 -24l140 -2v-85l-214 -5l-11 -34l128 2l85 -47l-1 -167l-212 -3l7 83l45 2l4 41l-87 -1l-45 -131zM841 113
l-102 112l-89 -118l-118 101l113 120l-67 75l78 72l71 -60l89 95l88 -70l-81 -106l125 -106zM526 498l69 243l142 -44l-19 -41l224 12l-2 -141l-279 9l-33 -66zM52 -47l109 157l101 -58l-85 -168zM817 -117l-98 163l91 65l125 -142zM372 -119l-67 156l105 47l84 -144z
M580 -116l-67 158l104 46l85 -144z" />
    <glyph glyph-name="cid970" unicode="&#x7ff1;" 
d="M738 574v131l129 1l92 -68l2 -731l-188 -8l7 116l52 2l3 118l-47 -86l-61 79l3 -229l-185 -10l7 117l47 2l2 114l-39 -85l-72 98l87 104l25 -24l2 116l-47 -29l-70 156l85 41l32 -105l3 195l-105 -11v130l127 1l93 -65l5 -483l89 90l22 -20l2 96l-42 -25l-70 156l85 41
l30 -94l5 180zM51 215v94l82 3l26 41h-79l6 315l85 3l21 68l144 -19l-22 -44l93 4l57 -70l5 -257h-182l-18 -37l229 7v-116h-31l37 -49l-122 -66l-49 117l-115 2l-58 -119l-122 66l35 56zM196 -111l5 74l-127 1l4 104l129 5l7 98h122l5 -94l129 5l4 -122l-126 2l5 -73h-157z
M338 581l-126 -1v-28h125zM336 448v25l-124 -6v-26z" />
    <glyph glyph-name="cid971" unicode="&#x8884;" 
d="M928 561l-161 -5l-37 -137l226 -8v-124l-262 -3l-107 -396l-171 54l119 341l-112 -1v31l-63 -55l-60 62l61 86l63 -59l1 82l160 -6l44 129l-169 -5l2 113l446 47zM345 87l-40 66l17 -258h-176l19 298l-39 -49l-84 125l176 189l-147 -14v127l259 -3l52 -97l-139 -177h53
l3 -52l28 26l105 -95zM800 -106l-103 325l116 42l145 -304zM194 583l-61 119l143 41l32 -126z" />
    <glyph glyph-name="cid972" unicode="&#x50b2;" 
d="M309 -99l58 367l-48 1v93l89 4l2 43l-64 -1v108l68 -3v44l-83 2v94l87 4l3 65h118l3 -59l95 5v-114l-90 1l2 -46l72 -3v-93l-67 -2l2 -37l92 4v-114l-161 2l-4 -44l109 -1l53 -66l-2 -214l-162 -7l7 101l21 1l11 82l-46 -3l-19 -229zM115 -107l23 549l-27 -29l-79 69
l177 256l114 -88l-148 -166h87l22 -591h-169zM846 -113l-36 101l-25 -103l-142 34l90 281l-68 187l88 43l30 -69l47 146l98 -24l-69 -288l108 -235zM642 463l45 271l143 -35l-19 -55l134 12l4 -126l-175 2l-31 -91z" />
    <glyph glyph-name="cid973" unicode="&#x5965;" 
d="M889 592l12 -354h-176l3 337l-460 -8l5 -329h-175l14 437l257 1l23 63l178 -16l-28 -46l245 1zM70 83l1 97l306 7l77 72l134 -49l-16 -20l357 8l-1 -118l-442 1l-157 -198l-177 89l116 110zM411 265l5 53l-37 -57l-96 33l65 70l72 -18l3 30l-126 1l1 76l135 2l11 97h122
l8 -95l116 2v-85l-109 1l3 -29l73 18l64 -70l-96 -33l-40 59l5 -55h-179zM610 73l241 -76l-106 -115l-212 108zM588 474l12 74l108 -8l-26 -72zM322 468l-25 72l108 8l11 -74z" />
    <glyph glyph-name="cid974" unicode="&#x61ca;" 
d="M332 570l60 -65l3 171l168 1l11 63l150 -17l-16 -45l156 1l63 -78l9 -362h-138l2 337l-281 -7l4 -330h-137l5 227l-52 -61l-35 59l20 -574h-173l25 839h119l6 -190zM734 216l-19 -33l240 7v-117h-172l144 -89l-89 -102l-140 135l52 56h-99l-111 -191l-146 69l91 123
l-119 1l1 97l195 6l58 79zM787 465v-85l-73 1l6 -116h-119l6 118l-73 2l1 72l77 2l6 100h86l5 -97zM156 484l-19 -259l-93 12l42 258zM772 370l19 -82l-59 -7l-6 80zM596 361l-7 -80l-58 7l19 82zM555 472l-18 72l60 8l8 -74zM717 478l7 74l60 -8l-17 -72z" />
    <glyph glyph-name="cid975" unicode="&#x6fb3;" 
d="M923 601l9 -361h-148l2 336l-302 -7l4 -329h-147l10 436l180 1l16 61l161 -18l-22 -42l168 1zM715 217l-21 -33l258 7v-117l-184 1l154 -89l-95 -103l-151 136l56 56h-106l-120 -192l-157 70l99 123l-129 1l1 96l209 6l63 79zM772 466v-85l-76 1l7 -116h-135l8 118l-76 2
l1 72l80 2l6 99h98l6 -96zM304 175l-94 -288l-163 63l143 272zM231 491l-169 139l105 107l147 -160zM222 247l-169 139l105 106l146 -159zM756 371l19 -82l-59 -7l-7 80zM564 362l-8 -80l-59 7l20 82zM523 473l-20 71l62 8l9 -73zM699 479l8 73l62 -8l-19 -71z" />
    <glyph glyph-name="cid976" unicode="&#x82ad;" 
d="M91 -111l13 572l642 10l116 -63l10 -283l-573 -2l1 -103h426l4 66l188 -8l-9 -178zM411 730l-5 -61l185 5l-3 56h182l-5 -51l166 3l4 -147l-180 2l-4 -49h-147l-4 51l-205 3l-3 -54h-149l-3 56l-176 3l4 114l164 4l-4 65h183zM293 243l92 1l11 99h-107zM673 251l8 92
h-107l8 -94z" />
    <glyph glyph-name="cid977" unicode="&#x634c;" 
d="M258 732v-152l47 3l4 -127l-51 1v-137l42 7l12 -107l-54 -15v-306l-189 -9l6 119l41 1l-1 154l-52 -15l-20 142l72 9v160l-62 2v107l61 3v160h144zM326 170l1 120l76 4l24 94l116 -17l-12 -71l80 5l80 -71l-2 -326l-173 -7l-4 113l31 -1l4 166l-35 -2l-44 -290l-157 34
l62 251zM956 732l-7 -833l-211 -9l7 122l65 1l-1 719h147zM677 656l3 -255l-348 -1l6 314l276 15zM708 144l1 409l79 -1l-5 -409zM537 514l1 96l-65 -6v-87z" />
    <glyph glyph-name="cid978" unicode="&#x6252;" 
d="M316 722l-1 -143l81 3l4 -131l-85 1v-119l75 11l15 -107l-90 -24v-310l-243 -9l8 121l67 2l-1 153l-70 -18l-25 143l95 13v147l-85 1v113l84 3v150h171zM842 726l106 -814l-181 -24l-63 823zM629 659l-63 -771l-181 24l106 763z" />
    <glyph glyph-name="cid979" unicode="&#x53ed;" 
d="M257 138l-3 358l-51 -6l-3 -354zM405 529l-11 -514l-341 5v587h283zM641 687l-55 -796l-182 21l99 790zM846 731l100 -816l-178 -24l-60 825z" />
    <glyph glyph-name="cid980" unicode="&#x5427;" 
d="M414 -105l7 811l416 13l80 -86l7 -397l-356 -2l1 -193h234l3 116l147 -7l-6 -242zM390 529l-12 -525l-331 6l1 597h272zM242 127l-3 369l-42 -7l-3 -363zM777 376l3 200h-46l8 -201zM566 370l32 1l10 205h-45z" />
    <glyph glyph-name="cid981" unicode="&#x7b06;" 
d="M105 -111l13 538l641 10l116 -53l11 -267l-577 -1l1 -104h429l4 62l189 -5l-9 -171zM831 435l-131 72l62 61l-77 2l-53 -111l-135 27l85 259l173 -32l-21 -43l196 10v-118l-117 4l91 -64zM400 440l-131 67l63 61l-77 2l-54 -111l-134 27l83 259l174 -32l-21 -43l197 10
v-118l-115 4l88 -58zM303 227l102 2l11 90h-116zM696 233l7 86h-120l9 -88z" />
    <glyph glyph-name="cid982" unicode="&#x2f0b;" 
d="M723 725l194 -797l-199 -37l-136 811zM418 697l-137 -806l-198 37l195 792z" />
    <glyph glyph-name="cid982" unicode="&#x516b;" 
d="M723 725l194 -797l-199 -37l-136 811zM418 697l-137 -806l-198 37l195 792z" />
    <glyph glyph-name="cid983" unicode="&#x75a4;" 
d="M428 -107l7 605l413 11l72 -59l6 -302l-336 -2l1 -123h207l3 74l143 -4l-7 -189zM948 532l-532 11q-3 -42 -8 -95.5t-11 -112t-13.5 -119.5t-15.5 -117.5t-16.5 -106t-16.5 -84.5l-198 47q13 32 28.5 82t31.5 113l-99 -36l-45 127l179 57q14 63 25.5 126t21.5 122l-45 1
l10 111l278 6l-11 71h185l-6 -68l257 7zM145 343l-93 124l115 79l75 -150zM772 265l4 124h-42l7 -126zM587 257l29 1l8 131h-39z" />
    <glyph glyph-name="cid984" unicode="&#x5df4;" 
d="M83 -103l13 811l648 13l115 -80l11 -397l-579 -2l1 -189h431l4 112l189 -7l-9 -248zM670 395l8 173h-116l15 -175zM284 385l91 2l12 181h-106z" />
    <glyph glyph-name="cid985" unicode="&#x62d4;" 
d="M955 584v-136l-326 5l-14 -74l279 10l61 -122l-133 -166l132 -109l-106 -110l-111 114l-90 -114l-112 79l-10 -57l-170 32l129 520l-82 2l2 107l107 3l42 169l126 -25l-27 -139l112 4l-50 83l90 62l98 -100l-67 -43zM302 722l-1 -145l80 4l4 -131l-84 1v-125l74 12
l15 -108l-89 -24v-308l-229 -10l9 122l62 2l-1 153l-71 -19l-26 142l97 14v150l-87 2v113l86 3v152h161zM648 245l69 -58l71 76l-195 -1l-15 -80zM544 3l91 97l-61 62z" />
    <glyph glyph-name="cid986" unicode="&#x8dcb;" 
d="M480 -38l135 146l-56 56l-31 -133l-151 38l108 382l-68 3l7 104l92 3l50 175l123 -27l-34 -144l295 9l-2 -137l-322 11l-15 -67l266 10l55 -113l-128 -165l147 -111l-112 -119l-121 121l-95 -123zM398 640l-7 -274l-56 -2l3 -79l55 4l-2 -117l-49 3l6 -135l50 5v-109
l-350 -44l1 122l28 2l10 252l85 1l5 -244l21 2l7 333l-134 -4l6 360h242zM796 730l93 -72l-86 -78l-78 89zM260 460l2 153l-51 -5l-1 -145zM623 250l73 -55l65 71l-178 -3l-17 -67z" />
    <glyph glyph-name="cid987" unicode="&#x9776;" 
d="M466 -104l7 805l386 14l80 -88l7 -391l-328 -2l2 -192h195l3 102l138 -7l-6 -228zM182 -111l2 108l-131 5l1 97l132 5l1 47h-118l3 248l121 2l1 38l-96 -4l5 140l-59 2l1 93l62 3l2 58l110 -1l1 -51l60 3l1 47l110 -1v-40l60 3v-125l-58 1l2 -119l-79 -4l1 -40l56 1
l60 -68l-5 -184l-105 -1l1 -42l124 4l1 -126l-122 5l3 -104h-148zM802 376l2 195h-45l10 -196zM617 370l29 1l9 200h-41zM222 532l56 -1v40l-57 1zM162 237h27l2 73l-29 -2v-71zM343 238l2 82l-26 -1l1 -81h23z" />
    <glyph glyph-name="cid988" unicode="&#x628a;" 
d="M399 -109l8 804l439 13l80 -87l6 -385l-370 -2l1 -197l239 1l3 110l147 -7l-6 -240zM299 733l-1 -145l77 4l3 -131l-80 1v-135l70 12l15 -108l-85 -24v-309l-226 -10l9 122l58 2l-1 153l-65 -18l-25 142l90 13v163l-80 1v113l79 3v151h162zM559 370l36 1l9 194h-48z
M777 377v188h-47l9 -190z" />
    <glyph glyph-name="cid989" unicode="&#x8019;" 
d="M455 -106l8 808l392 13l76 -88l7 -392l-335 -2l1 -193h216l3 97l134 -6l-6 -224zM418 657l1 -116h-102l1 -38l79 4v-116l-77 1l1 -41l114 -2v-103l-112 -3l2 -63l32 27l90 -134l-91 -71l-29 76l4 -186h-163l6 181l-26 -136l-106 43l82 228l53 -23l2 55l-114 -2v120
l118 -3l2 40l-82 2v96l84 4l2 44l-107 1v97l110 6l3 89h118l2 -83zM798 376l5 195h-45l8 -196zM600 369l29 1l10 201h-42z" />
    <glyph glyph-name="cid990" unicode="&#x575d;" 
d="M395 -55l127 273l-127 3l11 484l435 9l89 -88l6 -399l-164 -3l7 361l-226 -9l6 -277l72 157l124 -45l-168 -522zM370 478l1 -142l-86 4l-4 -203l95 5l5 -112l-336 -51v143l89 5l-4 220l-80 3v115l79 3l-3 190h168l-5 -184zM796 190l159 -221l-160 -80l-106 248z" />
    <glyph glyph-name="cid991" unicode="&#x9738;" 
d="M776 -16v38l-107 1l1 -136h-168l32 481l301 7l87 -61l11 -425l-208 4l3 91h48zM414 402l9 128l-183 -1l-6 -122h-156l19 209l333 -2l1 20l-272 3l2 71l641 26l1 -104l-234 2l2 -19l256 -1l82 -44l12 -154h-167l5 118l-182 -1l9 -129h-172zM207 -113l1 35l-135 3l3 68
l135 4l1 23l-122 -1l4 166l126 1v19l-101 -1l6 86l-58 1v66l62 1l1 25h119v-23l71 2l1 20h119v-17l56 2v-82l-54 1l2 -80h-92l1 -19l60 1l66 -40l-7 -128h-112l1 -21l129 3v-85l-125 3l2 -33h-160zM270 469l123 -29l-25 -53l-118 41zM614 462l123 -22l-26 -53l-118 34z
M285 525l128 -16l-23 -56l-121 34zM623 523l124 -14l-23 -56l-118 32zM668 107l108 1v42h-109zM776 276l-110 -1v-43l110 3v41zM252 272l67 -1v16l-68 1zM381 86l2 37l-27 -1l1 -36h24zM190 86h25l2 31l-26 -1z" />
    <glyph glyph-name="cid992" unicode="&#x7f62;" 
d="M851 369v-124l-269 3l4 -43l347 -2l4 -111l-437 -3l-107 -89l248 18l-24 32l129 38l158 -145l-161 -61l-30 41l-546 -35l-60 98h-3l166 103l-208 -1v123l335 -4l5 43l-271 3l3 104l279 4l5 51h146l4 -48zM873 653l5 -220l-774 -3l10 290l657 13zM700 544l3 71l-59 -1
l6 -70h50zM284 547l49 -1l6 65h-55v-64zM470 545h43l5 68l-51 -1z" />
    <glyph glyph-name="cid993" unicode="&#x7238;" 
d="M869 250l-360 159l-248 -110l441 17l106 -58l2 -205l-446 -5l3 -52h361l2 33l158 6l-4 -143l-693 -1l12 382l-75 -33l-74 139l291 102l-65 30l24 46l-104 -87l-109 120l275 159l82 -72l-97 -81l160 -56l153 55l-94 76l81 74l276 -156l-106 -121l-123 99l37 -57l-59 -27
l269 -92zM662 145l2 70l-79 -2l7 -69zM360 144h68l7 64l-78 -3z" />
    <glyph glyph-name="cid994" unicode="&#x2f69;" 
d="M882 534l24 -641l-813 -2l26 738l244 1l34 114l175 -29l-42 -84h230zM710 491l-424 -8l3 -159l419 15zM705 37l1 143l-415 6l3 -146z" />
    <glyph glyph-name="cid994" unicode="&#x767d;" 
d="M882 534l24 -641l-813 -2l26 738l244 1l34 114l175 -29l-42 -84h230zM710 491l-424 -8l3 -159l419 15zM705 37l1 143l-415 6l3 -146z" />
    <glyph glyph-name="cid995" unicode="&#x67cf;" 
d="M955 534l-8 -640l-495 -2l-5 732h155l26 116l157 -40l-35 -76h117zM356 410l77 -98l-65 -96l-36 59l13 -386h-177l13 340l-39 -133l-97 74l102 232l39 -21l3 78l-102 4v109l106 5l6 150h119l4 -143l91 5l3 -138l-90 3l3 -73zM799 500l-195 -6v-185l194 11zM796 18l1 176
l-193 -2v-172z" />
    <glyph glyph-name="cid996" unicode="&#x767e;" 
d="M868 387l23 -495l-783 -1l25 581l272 1l19 76l-342 5l6 136l825 20l4 -167l-318 4l-29 -73l186 1zM691 36l1 77l-387 6l3 -80zM696 334l-396 -7l2 -76l393 15z" />
    <glyph glyph-name="cid997" unicode="&#x6446;" 
d="M894 367v-122l-158 2l2 -39l210 -3l3 -102l-109 -2l108 -144l-118 -67l-22 43l-387 -38l-43 105l95 96l-115 -1l1 122l211 -5l3 38l-158 3l2 102l164 3l4 59h135l4 -55zM295 732l-1 -151l67 3l5 -127l-72 1v-126l48 7l15 -104l-63 -19v-316l-222 -10l8 119l53 2l-1 157
l-59 -18l-24 142l83 13v156l-71 1v108l70 3v159h164zM921 658l4 -225l-538 -3l8 288l461 12zM589 13l170 14l-21 42l66 32l-158 -2zM791 541l1 73l-36 -1l4 -72h31zM641 543l30 -1l3 71l-36 -1zM524 545l27 -1l5 67h-32v-66z" />
    <glyph glyph-name="cid998" unicode="&#x4f70;" 
d="M945 397l-8 -492l-520 -11l6 597h159l16 78l-203 3l5 117l550 21l3 -144l-188 2l-36 -77h129zM167 -110l25 522l-56 -66l-89 72l210 317l126 -100l-152 -178h101l25 -567h-190zM780 24l1 113l-196 -7v-110zM783 366l-198 -6v-104l197 -6z" />
    <glyph glyph-name="cid999" unicode="&#x8d25;" 
d="M44 -81l78 258l-73 2l10 515l324 12l63 -80l3 -438l-136 -3l10 391l-148 -15l3 -197l27 87l102 -31l-93 -535zM828 -115l-116 173l-92 -175l-150 81l149 234l-93 140l94 70l74 -93l109 171l105 -59l-121 -228l168 -211zM462 436l97 298l155 -54l-26 -51l259 12l-1 -141
l-317 9l-57 -114zM373 147l87 -203l-138 -54l-56 216z" />
    <glyph glyph-name="cid1000" unicode="&#x62dc;" 
d="M623 -99l4 132l-111 -2l8 130l108 -4l2 62l-88 1l-1 110l93 3l2 71l-95 -2l6 130l93 -4l2 56l-118 2l1 117l391 15l1 -138l-133 1l3 -58l109 -4l-1 -109l-103 -3l3 -68l94 4l7 -130l-94 2l3 -63l119 -4l-1 -110l-113 -2l7 -135h-198zM464 719l15 -139l-115 -4l-3 -100
l110 -4l-3 -121l-112 -3l-6 -99l137 4l7 -138l-156 2q-7 -64 -15.5 -120.5t-19.5 -103.5l-201 38q13 41 25.5 88t23.5 101l-79 2v118l103 3q5 26 9 51t8 51l-98 -2l8 143l107 -4q2 23 4 45l4 44l-124 -4l-6 117z" />
    <glyph glyph-name="cid1001" unicode="&#x7a17;" 
d="M453 189l64 60l-64 -1l5 416h123l35 74l155 -34l-31 -40h134l76 -77l-5 -332l-269 -4l-96 -112zM416 501l4 -138l-97 1l3 -85l35 31l88 -104l-79 -101l-40 75l11 -291h-176l12 304l-39 -181l-91 62l81 232l52 -30l4 91l-105 2v109l109 8l4 82l-88 -7l-12 94l300 78
l24 -149l-100 -8l3 -82zM659 -112l6 125l-232 -1v111l239 9l6 87h138l4 -82l133 5l-1 -129h-124l6 -125h-175zM599 506l52 -1l2 59l-54 -1v-57zM811 568l-50 -1l2 -63l47 -1zM599 348h47l2 62l-49 -1v-61zM809 350v63l-43 -1l2 -63z" />
    <glyph glyph-name="cid1002" unicode="&#x6591;" 
d="M311 -51l106 296l-94 156l100 60l48 -65l37 100l-187 4l6 121l98 4l-11 109h179l-8 -104l94 4l-2 -142l-41 1l-62 -233l130 -172l-119 -118l-61 100l-48 -180zM706 256v132h50l3 183l-61 1l4 121l244 8l-1 -132h-56l3 -181h50l3 -111l-50 -5l4 -198l52 1l-1 -131l-255 2
l4 121l54 2l3 191zM61 -68l-12 157l59 7l2 170l-50 -4v132h50l3 177l-61 1l4 121l244 8v-132h-57l4 -175h49l4 -111l-51 -4l4 -163l55 8l16 -111z" />
    <glyph glyph-name="cid1003" unicode="&#x73ed;" 
d="M659 256v132h71l2 164l-83 1l6 121l290 8l-1 -131h-81l4 -163h73l4 -110l-75 -6l3 -180l79 2l-1 -131l-305 2l6 121l75 2l2 173zM63 -49l-14 157l74 8l2 150l-64 -4v133h66l2 157l-77 1l5 121l278 8l-1 -131h-75l3 -157h67l4 -111l-69 -5l3 -145l76 10l18 -110zM387 -81
q26 85 45.5 181.5t33 201t22.5 214t14 221.5l119 -1q1 -113 -2.5 -228.5t-10 -225.5t-17 -211.5t-24.5 -185.5zM342 221l35 293l77 -4l-19 -297z" />
    <glyph glyph-name="cid1004" unicode="&#x642c;" 
d="M502 -7v54l-44 -26l-23 68v-197h-126l3 303h-24v124l25 -1l3 301l74 4l21 110l136 -28l-26 -72l42 4l57 -69l6 -676h-159l-3 100zM279 210l-51 -15v-295l-178 -8l6 119l41 1l-1 145l-38 -11l-22 138l60 9v148l-52 1v108l51 3v165h134l-1 -157l49 3l4 -127l-53 1v-126
l35 5zM632 -25l80 114l-57 76l71 67l49 -51l50 71l-176 -12l3 128l251 5l59 -97l-102 -182l104 -105l-95 -106l-73 95l-53 -95zM906 648l4 -136l36 6l3 -121l-155 1l10 201l-33 -1l-19 -216l-117 27l45 299l168 8zM458 350l-23 58v-92l69 -2v63zM489 168l14 -68v100l-68 -2
v-60zM489 483l15 -68l1 96l-69 -1l-1 -58z" />
    <glyph glyph-name="cid1005" unicode="&#x6273;" 
d="M899 734l16 -146l-352 -16l-2 -111l338 19l50 -109l-138 -230l146 -144l-121 -108l-102 125l-75 -125l-130 81l-9 -84l-178 25q32 151 53.5 314t32.5 341l-39 -1l4 114zM294 722l-1 -145l75 4l4 -131l-79 1v-124l68 11l15 -108l-83 -23v-304l-221 -9l8 121l54 2l-1 147
l-64 -18l-26 142l90 14v150l-80 2v113l79 3v152h162zM622 329l82 -83l73 104l-220 -6q-1 -19 -1.5 -38t-2.5 -39zM628 139l-77 93q-6 -114 -18 -227z" />
    <glyph glyph-name="cid1006" unicode="&#x822c;" 
d="M331 -3v65l-65 -27l-33 65v-206h-148l4 301l-42 -1v137l44 -1l4 302l106 6l24 95l146 -28l-31 -59l54 4l70 -71l8 -685h-195l-4 102zM480 -8l109 103l-75 60l88 79l80 -50l74 70l-247 -15v131l376 5l56 -109l-136 -157l148 -91l-100 -129l-142 112l-99 -115zM889 639
l7 -108l52 6l3 -133l-206 1l11 177l-82 -4l-29 -183l-163 24l76 277l276 8zM313 491l21 -66l1 100l-101 -1l-1 -65zM266 358l-33 64v-95l100 -2l1 61zM313 168l19 -58v90l-99 -2v-62z" />
    <glyph glyph-name="cid1007" unicode="&#x9881;" 
d="M394 737l127 -295l2 52l110 3l21 92l-150 3l7 112l426 15l4 -133l-138 2l-35 -87l96 3l68 -65l6 -310l-130 -4l11 247l-185 -1l5 -182q11 32 20 65.5t18 68.5l117 -14q-8 -58 -19 -111.5t-26.5 -105.5t-35.5 -102t-47 -101l-161 46q32 48 59 93t47 92l-102 3l10 288
l-128 -51l-99 339zM91 208v119l308 15l81 -74l-2 -369l-200 -7l-4 122l53 -2l14 204l-63 -2l-51 -326l-163 33l80 288zM264 656l-85 -294l-144 50l129 287zM872 -110l-131 124l71 85l152 -95z" />
    <glyph glyph-name="cid1008" unicode="&#x677f;" 
d="M902 731l16 -145l-331 -17l-2 -110l316 18l51 -110l-127 -229l135 -142l-117 -107l-91 117l-65 -117l-133 84l-9 -84l-178 25q64 297 87 650l-39 -2l4 114zM342 416l80 -95l-79 -89l-24 45l12 -380h-175l11 340l-37 -133l-91 73l95 231l38 -21l3 75l-97 3v110l101 5
l6 155h120l5 -148l85 4l3 -136l-84 2l2 -72zM646 328l77 -82l68 101l-209 -6q-1 -18 -1.5 -36t-2.5 -37zM649 136l-73 93q-4 -57 -8 -114.5t-11 -114.5z" />
    <glyph glyph-name="cid1009" unicode="&#x7248;" 
d="M897 731l16 -146l-288 -15v-113l262 12l61 -101l-110 -229l127 -154l-129 -96l-68 105l-50 -105l-114 57l-7 -59l-178 22q16 79 27.5 158.5t20 160.5t14.5 164.5t11 171.5l-34 -2l4 114zM35 -83q13 90 23 190.5t17 201t10.5 195.5t4.5 175h117l3 -184l48 4l-6 222h135
l-11 -214l62 4l1 -136l-228 3v-82l120 7l71 -65l3 -340h-152l16 286h-61q-2 -71 -5 -142.5t-10 -146.5zM692 318l53 -66l50 86h-171q-1 -17 -1 -34.5v-35.5zM676 134l-54 83q-2 -48 -4.5 -96.5t-7.5 -97.5z" />
    <glyph glyph-name="cid1010" unicode="&#x626e;" 
d="M293 724l-1 -137l70 3l4 -131l-74 1v-137l64 11l15 -108l-79 -22v-306l-219 -10l9 122l53 2l-1 148l-63 -18l-26 142l89 15v163l-79 2v113l78 3v144h160zM425 206v125l398 15l84 -74l-3 -373l-241 -7l-4 122l75 -2l16 202l-94 -3l-95 -328l-169 53l114 271zM787 740
l168 -312l-146 -67l-134 330zM637 659l-129 -299l-147 67l163 281z" />
    <glyph glyph-name="cid1011" unicode="&#x62cc;" 
d="M927 475l2 -142l-171 2l3 -111l189 8l2 -149l-188 3l6 -195h-185l6 197l-189 3l5 118l188 8l4 121l-174 2l4 113l174 7l9 275h136l7 -267zM309 733l-1 -146l85 3l3 -131l-88 1v-131l78 11l15 -107l-93 -24v-311l-233 -10l9 122l65 2l-1 157l-76 -20l-25 142l101 14v157
l-91 2v113l91 4v152h161zM769 537l50 164l133 -57l-82 -144zM485 499l-83 145l133 56l50 -164z" />
    <glyph glyph-name="cid1012" unicode="&#x4f34;" 
d="M926 456l1 -137l-177 2l3 -113l195 8l2 -149l-194 2l5 -178h-187l7 181l-201 3l5 118l200 8l4 122l-186 3l4 108l187 7l10 281h136l7 -274zM154 -107l25 504l-41 -51l-89 72l201 317l129 -96l-148 -180h88l25 -566h-190zM767 521l50 163l133 -56l-81 -144zM473 484
l-82 144l133 56l50 -163z" />
    <glyph glyph-name="cid1013" unicode="&#x74e3;" 
d="M561 113l27 -183l-51 -18l-2 42l-99 -38l21 664l-26 -3q0 -47 0.5 -106t0 -122t-1.5 -128t-3 -125.5t-4.5 -113.5t-6.5 -92l-130 41q11 38 21 91.5t17.5 117t13 132.5t9 137.5t5.5 133.5t2 119l281 68l30 -129l-41 -5q7 -87 15 -167t17.5 -158t21.5 -155.5t27 -160.5
l-103 -61q-12 67 -20.5 149t-15 172t-10.5 185t-7 188l-20 -2l-7 -571h11l-3 96zM313 380v-116l-73 2q0 -18 -0.5 -38.5t-0.5 -41.5l65 4v-112h-69q-2 -49 -5.5 -97.5t-8.5 -90.5l-150 28q11 44 18.5 83.5t14.5 77.5l-45 1l1 92l56 4q3 25 5 48.5t4 44.5l-73 2l1 102z
M740 -103l9 182l-58 1v92l63 5l3 92l-75 2l1 102l262 7v-116l-76 2l3 -80l64 4v-112h-58l9 -181h-147zM307 659l1 -116l-251 5l-1 99l71 3l-9 72h142l-8 -66zM939 659v-116l-250 5l-1 99l69 3l-7 72h141l-7 -66zM730 386l-48 109l95 36l32 -114zM823 417l30 114l95 -36
l-47 -109zM99 386l-47 109l94 36l31 -114zM191 417l32 114l94 -36l-48 -109z" />
    <glyph glyph-name="cid1014" unicode="&#x534a;" 
d="M881 474l4 -147l-297 3l4 -121l323 10l4 -157l-323 3l5 -174h-199l8 175l-329 3l7 127l327 9l6 127l-306 3l7 117l305 8l12 274l139 -2l7 -267zM281 486l-159 108l116 122l136 -138zM626 578l136 138l116 -122l-160 -108z" />
    <glyph glyph-name="cid1015" unicode="&#x529e;" 
d="M156 -81l138 518l-146 -4v147l185 3l42 155l147 -35l-24 -118l176 3l95 -96l6 -591l-327 -7l8 144l116 -1l23 411l-124 -5l-110 -554zM28 165l76 211l121 -25l-37 -218zM817 138l-27 213l116 25l66 -205z" />
    <glyph glyph-name="cid1016" unicode="&#x7eca;" 
d="M925 457l2 -138l-166 3l3 -114l183 8l2 -149l-181 3l5 -179h-188l7 181l-183 3l5 118l183 8l4 123l-169 2l3 108l170 7l11 282h136l6 -274zM338 696l-134 -211l56 1l42 61l107 -47l-133 -251l109 6l6 -108l-275 -37l-44 105l108 156l-94 -6l-36 119l176 256zM93 -91
l-21 136l318 51l10 -112zM771 521l50 164l128 -56l-81 -145zM491 484l-82 145l128 56l50 -164z" />
    <glyph glyph-name="cid1017" unicode="&#x90a6;" 
d="M521 631v-142l-159 1l-4 -62l129 -3v-118l-139 -4l-9 -77l190 8v-142l-210 2q-11 -60 -24.5 -111t-28.5 -95l-184 38q20 39 37 81t31 89l-100 2v118l132 5q3 18 7 38t7 40l-110 -3v138l128 -2q2 15 3 29.5t3 30.5l-162 3v117l170 7l6 113l135 -6l-2 -102zM743 425l43 167
l-77 -7l27 -688l-182 1l14 811l272 2l110 -80l-86 -232l82 -75l-23 -319l-175 28l8 114l35 -5l12 113l-60 60v110z" />
    <glyph glyph-name="cid1018" unicode="&#x5e2e;" 
d="M688 63l8 51h-119l21 -223h-202l15 222h-101l13 -172l-210 3l34 292l271 9l4 51h139l4 -47l208 8l96 -66l12 -247l-267 -2l-2 121h76zM488 704l3 -116l-141 2l-1 -25l119 -3l3 -96l-126 -3l-1 -25l169 4l4 -116l-177 3l-2 -58l-176 10l7 51l-101 2l4 96l113 3l3 26
l-73 -1l3 113l87 -2l4 23l-115 3l4 97l126 4l7 43l125 -7l-2 -32zM725 574l40 56l-70 -3l18 -322l-177 6l12 410l306 2l62 -89l-70 -64l85 -51l-27 -184l-174 15l8 80l44 -3l17 54l-74 33v60z" />
    <glyph glyph-name="cid1019" unicode="&#x6886;" 
d="M815 424l26 169l-53 -8l21 -691h-149l11 816l208 2l88 -80l-61 -234l58 -75l-18 -332l-127 27l7 114l20 -4l10 126l-41 60v110zM640 633v-142l-79 1q0 -16 -0.5 -31.5t-1.5 -31.5l58 -2v-117l-64 -3l-6 -77l98 7v-143l-110 2q-7 -61 -15.5 -113t-17.5 -95l-158 35
q13 41 24 84t21 92l-49 1v118l69 4q3 19 5 38.5t4 39.5l-53 -2v139l66 -3q2 15 2 30t1 31l-88 2v118l95 6l4 111l118 -6v-98zM288 398l60 -88l-57 -88l-23 51l9 -380l-157 1l9 361l-28 -152l-68 64l64 232l36 -21l2 90l-73 3l2 108l75 5l4 145h114l3 -137l59 5l2 -137l-58 2
l2 -92z" />
    <glyph glyph-name="cid1020" unicode="&#x699c;" 
d="M353 424l79 -62l4 106l86 2l-30 57l144 28l22 -83l67 1l22 80l143 -28l-25 -49l28 1l57 -59l1 -101l-142 -3l3 59l-237 -6v-56l-145 2l1 31l-61 -81l-42 51l14 -423h-176l13 378l-43 -146l-97 73l102 233l43 -23l2 67l-105 4v109l109 5l6 142h119l4 -135l89 5l4 -138
l-89 3l2 -74zM960 299l1 -122l-315 6l-7 -43l204 1l78 -51l6 -190l-240 -5l5 99l80 -1v44l-154 -5l-28 -149l-170 35l90 267l-90 1v101l195 4l-6 51h162l-5 -47zM945 686l1 -121l-511 6l1 101l180 5l-7 58h172l-6 -54z" />
    <glyph glyph-name="cid1021" unicode="&#x8180;" 
d="M244 12l2 110l-47 -1l4 -227h-155l14 803l251 17l71 -71l11 -747l-166 2l-8 114h23zM951 299l1 -122l-313 6l-8 -43l203 1l78 -51l6 -190l-224 -4l5 99l64 -1v43l-151 -5l-25 -146l-168 34l79 265l-88 1v101l201 4l-6 51h154l-4 -48zM942 411l1 -93l-143 -2l3 59l-238 -6
v-56l-146 2l7 155l86 1l-28 56l137 28l21 -81l77 1l22 80l137 -28l-26 -49l29 1zM936 683l1 -120l-512 5l1 101l181 5l-6 58h164l-6 -53zM254 580l-61 -1l1 -111l58 2zM198 240l50 2l2 108l-54 -1z" />
    <glyph glyph-name="cid1022" unicode="&#x7ed1;" 
d="M804 419l26 165l-54 -8l21 -682h-149q4 199 8 403.5t4 403.5l208 2l88 -80l-62 -229l58 -75l-18 -328l-126 28l6 114l20 -5l11 121l-41 60v110zM634 631v-139l-79 1q-1 -17 -1.5 -34.5t-0.5 -34.5l58 -2v-115l-63 -3l-4 -72l92 6v-141l-104 2q-6 -61 -14.5 -114.5
t-17.5 -97.5l-158 36q13 42 24 86t20 93l-60 2v116l79 5l9 73l-63 -3v138l74 -3l4 65l-97 2v116l102 6l4 108l118 -5v-95zM265 701l-99 -217l33 1l31 62l92 -35l-103 -264l85 6l4 -108l-214 -38l-34 106l80 156l-68 -6l-29 119l130 257zM77 -93l-17 136l247 51l9 -112z" />
    <glyph glyph-name="cid1023" unicode="&#x68d2;" 
d="M348 425l67 -78l1 44l65 1l14 32l-41 -1v118l93 -3l15 34l-124 1l1 102l172 5l30 64l116 -26l-14 -35l194 5l1 -123l-239 4l-14 -35l229 -7l2 -94l-274 -6l-12 -31l324 7l1 -122l-29 1l37 -61l-65 -28l3 -89l-145 2l3 -43l189 -3l2 -104l-185 -3l4 -63h-166l1 60l-184 -3
l5 124l183 -4l2 41l-140 2l1 82l-67 29l32 71l-21 1v16l-55 -78l-36 60l14 -402h-177l12 352l-39 -138l-97 82l102 233l40 -21l3 82l-103 4v109l107 5l5 134h119l4 -127l91 5l4 -138l-90 3l1 -79zM616 265h132l2 -44l57 3l-26 61l-193 4l-29 -76l55 2z" />
    <glyph glyph-name="cid1024" unicode="&#x78c5;" 
d="M399 324l-5 -338l-255 -7l1 249l-20 -41l-79 49l103 276l-66 2l6 109l314 18l3 -135l-123 2l-61 -123h129zM957 299l1 -122l-313 5l-9 -42l204 1l78 -51l6 -190l-225 -4l5 99l65 -1v43l-156 -5l-31 -146l-159 34l88 265l-97 1v101l201 4l-6 51h152l-5 -48zM947 411l1 -93
l-142 -2l3 59l-241 -6v-56l-145 2l7 155l86 1l-28 56l134 28l21 -82l85 2l22 80l134 -28l-26 -49l29 1zM942 683l1 -120l-514 5l1 101l181 5l-7 58h163l-6 -53zM285 86l2 195h-31l-1 -195h30z" />
    <glyph glyph-name="cid1025" unicode="&#x868c;" 
d="M464 473v121l158 6l3 133h132l5 -128l166 5v-139l-161 1l3 -83l154 -6v-120l-149 -1l2 -86l172 6v-140l-167 1l6 -154h-184l3 155l-165 1v121l168 4l3 91l-131 -1v140l134 -5l2 77zM50 -82v147l128 12l-2 118l-126 2l4 375h118l-2 152h139l-2 -152h57l65 -67l-7 -313
l-121 1l-1 -103l22 2l-3 52l87 15l45 -214l-116 -22l-4 55zM149 287l26 -1l-2 191l-24 -1v-189zM325 282l6 200l-26 -1l-2 -199h22z" />
    <glyph glyph-name="cid1026" unicode="&#x9551;" 
d="M956 298l1 -122l-323 5l-9 -42l214 1l78 -51l6 -189l-224 -5l4 99l62 -1v43l-162 -5l-31 -146l-167 37l91 262l-101 2v100l207 4l-6 52h158l-5 -49zM352 464l4 -137l-59 2l3 -84l76 -3v-110l-70 -2l5 -87l43 12l22 -121l-239 -56l6 245l-78 -3v136l81 -4l2 82l-62 3v109z
M946 410l1 -92l-142 -3l3 59l-258 -6v-56l-145 2l7 155l90 2l-29 55l141 28l22 -81l79 1l22 80l140 -28l-26 -49l35 1zM941 682l1 -120l-531 6l1 100l185 5l-6 52h168l-4 -47zM43 505l57 241l158 -54l-22 -45l142 9v-126l-198 6l-32 -63z" />
    <glyph glyph-name="cid1027" unicode="&#x508d;" 
d="M955 298l1 -121l-328 5l-9 -42l219 1l78 -52l6 -194l-262 -5l4 99l93 -1v49l-161 -6l-33 -155l-178 38l90 270l-101 2v101l211 4l-5 51h171l-5 -47zM151 -112l26 512l-45 -53l-89 72l208 316l124 -97l-150 -179h89l24 -570zM950 413l1 -95l-152 -3l3 59l-269 -5v-56
l-155 2l7 154l90 2l-27 46l153 28l22 -71l84 1l22 70l153 -28l-24 -39l33 1zM940 676l1 -120l-552 6l1 100l193 5l-6 55h176l-6 -50z" />
    <glyph glyph-name="cid1028" unicode="&#x8c24;" 
d="M948 299l1 -122l-365 6l-10 -43l258 1l77 -51l6 -189l-243 -5l5 99l74 -1v44l-201 -6l-32 -146l-170 38l91 261l-101 2v100l229 4l-5 51h167l-5 -48zM336 75l7 -132l-219 -50v454l-74 -1l3 133l150 11l78 -72l3 -354zM939 411l1 -92l-154 -3l3 59l-284 -6v-56l-157 2
l7 155l94 2l-27 50l153 29l21 -77l96 1l21 76l153 -29l-23 -44l35 1zM933 687l1 -127l-580 9l1 100l208 7l-6 47h179l-5 -42zM184 534l-88 144l150 63l54 -161z" />
    <glyph glyph-name="cid1029" unicode="&#x82de;" 
d="M185 -111l26 346l-40 -61l-118 55l143 293l178 -41l-20 -30l412 1l118 -56l7 -348l-223 -5l3 109l43 -1l13 185l-453 -6l-20 -30l299 1l90 -58l5 -182l-275 -5l4 -54l416 3v26l154 3l-5 -135zM415 733l-5 -64l193 5l-4 59h182l-5 -54l167 3v-135l-176 1l-5 -57h-148
l-4 59l-211 3l-3 -34h-148l-3 36l-173 3l3 104l163 3l-4 68h181zM493 154l4 52l-129 -3l2 -50z" />
    <glyph glyph-name="cid1030" unicode="&#x80de;" 
d="M422 -110l18 504l-51 20l8 -520l-171 2l-7 115h27l2 115h-50l4 -233h-155l14 801l258 18l67 -71l3 -186l88 284l148 -38l-23 -54h242l75 -76l6 -471l-179 -6l1 105l22 -1l11 319l-237 -7l-24 -56l153 1l58 -80l3 -244l-161 -7l4 -113l237 4v54l139 4l-4 -170zM255 578
l-63 -1l1 -112l60 2zM197 245l53 2l1 99h-56zM609 236l3 112l-43 -7l2 -105h38z" />
    <glyph glyph-name="cid1031" unicode="&#x5305;" 
d="M181 -112l26 473l-40 -63l-111 68l161 380l187 -77l-23 -36l375 1l123 -85l8 -447l-227 -5l3 128l37 -1l14 277l-422 -8l-34 -53l290 1l91 -79l4 -241l-260 -5l5 -99l377 4v54l178 4l-6 -179zM474 243l4 77l-101 -5l2 -73z" />
    <glyph glyph-name="cid1032" unicode="&#x8912;" 
d="M554 174l12 117l-80 -1l58 -26l-59 -94l-118 59l70 60l-69 -1v106l207 -3l2 18l-155 1l11 165l362 1l81 -46l6 -122h-149l2 -19l201 -3v-88l-73 -1l98 -74l-117 -59l-76 98l73 34l-100 -2l9 -120h-196zM926 708l1 -116l-837 9v89l323 7l-6 38h203l-6 -34zM69 33l376 146
l67 -69l-122 -64l62 4l8 -52l97 11l3 -87l-272 -32l-1 104l-129 -67zM148 174l17 185l-55 -35l-71 75l216 191l121 -93l-137 -89l74 -1l22 -233h-187zM822 -112l-298 199l82 68l107 -46l101 60l79 -85l-57 -30l122 -54zM708 478l3 29l-111 -3v-22z" />
    <glyph glyph-name="cid1033" unicode="&#x5265;" 
d="M68 296v117l333 9v34l-283 -4v106l284 8l1 38l-304 -6l-2 119h397l74 -74l-4 -216l52 2l1 -132l-197 -1l17 -403l-219 -6l9 101l37 2l7 306h-203zM954 733l-9 -832l-242 -9l9 124l76 1l-1 716h167zM647 136l2 420h112l-6 -421zM512 123l138 -129l-105 -91l-102 158z
M253 61l-102 -158l-105 91l138 129zM160 124l-86 92l105 70l57 -102zM460 184l57 102l105 -70l-86 -92z" />
    <glyph glyph-name="cid1034" unicode="&#x8584;" 
d="M945 490l1 -89l-239 3l1 -17l135 2l78 -35l7 -240h-145v32l-62 1l2 -35h-176l1 36h-45l1 -35h-164l25 270l196 2l1 21l-214 3l5 72l213 3l2 42h133l2 -39l62 1l-11 25l140 12l5 -35h46zM426 732l-5 -46l168 4l-3 42h186l-4 -38l169 5l3 -128l-184 2l-3 -35h-151l-3 36
l-188 2l-4 -38h-151l-3 40l-181 2v98l173 3l-3 51h184zM872 105v-25l71 2l3 -90l-72 1l3 -98l-219 -7l5 79l55 1l-2 28l-214 2l129 -24l-34 -82l-173 52l22 55l-96 1l5 72l356 5l-2 28h163zM335 19l-210 -131l-72 135l239 95zM244 148l-181 45l55 135l169 -84zM281 329
l-174 74l73 117l155 -94zM786 315l-74 1l1 -20h73v19zM502 294l54 1l1 22l-55 1v-24zM718 211h66l1 17l-68 1zM503 209l48 1l1 22h-50z" />
    <glyph glyph-name="cid1035" unicode="&#x96f9;" 
d="M175 -112l27 261l-31 -37l-118 43l136 219l178 -32l-22 -25l420 1l119 -43l7 -258l-224 -3l3 91l44 -1l13 120l-465 -5l-19 -23l310 1l89 -44l6 -132l-284 -4l5 -40l423 2l1 19l153 2l-4 -105zM414 374l10 156l-184 -1l-6 -150h-156l19 237l333 -2l2 21l-273 3l2 72
l641 26l1 -105l-234 2l1 -20l257 -1l82 -44l12 -194h-166l4 158l-183 -2l10 -156h-172zM270 456l123 -32l-25 -59l-118 46zM614 449l123 -25l-26 -59l-118 38zM285 518l128 -18l-23 -61l-121 37zM623 516l124 -16l-23 -61l-118 34zM492 93l4 33l-138 -3l2 -31z" />
    <glyph glyph-name="cid1036" unicode="&#x4fdd;" 
d="M566 -108l16 344l-219 2v113l225 6l2 47h-177l6 308h403l80 -83l-9 -224l-169 -1l3 -43l225 5v-133l-219 2l17 -343h-184zM147 -108l25 508l-45 -47l-90 72l238 320l120 -115l-171 -177h88l25 -561h-190zM806 -98l-44 293l111 27l90 -281zM353 -59l89 281l110 -27
l-43 -293zM738 516l3 84l-163 -7l-1 -75z" />
    <glyph glyph-name="cid1037" unicode="&#x5821;" 
d="M553 238l13 155l-86 1l64 -36l-70 -121l-116 71l86 86l-73 1v98l204 6l2 31l-167 1l11 188l373 8l93 -52l4 -147l-160 1l2 -24l198 8v-122h-68l93 -102l-116 -71l-75 137l65 37h-91l9 -154h-195zM91 -111l1 137l312 -8l5 40l-257 4l2 106l266 5l6 47l161 2l6 -47l272 5
l2 -130l-259 5l6 -43l313 -9l1 -99zM156 211l18 254l-58 -46l-73 77l216 250l120 -113l-138 -113l78 -1l21 -308h-184zM721 607l3 42l-139 -6v-31z" />
    <glyph glyph-name="cid1038" unicode="&#x9971;" 
d="M411 -105l17 497l-52 20l100 329l156 -38l-27 -60h241l76 -76l5 -466l-179 -7l2 106l22 -1l12 314l-238 -7l-23 -53l149 1l60 -77l4 -242l-172 -6l3 -113l246 3v54l143 4l-4 -170zM219 401l36 106l-68 -8l-32 -120l-111 19l49 344l153 -31l-22 -79l97 1l70 -75l-42 -193z
M270 357l1 -291l71 12l3 -121l-230 -78l13 473zM605 241l7 107l-51 -8l1 -99h43z" />
    <glyph glyph-name="cid1039" unicode="&#x5b9d;" 
d="M918 14v-116l-836 -7l3 132l318 -3l10 126l-258 -5l3 144l264 -8l6 68l-319 6l1 111l782 10l-2 -133l-310 5l4 -72l261 -7l-1 -111l-76 -2l79 -97l-81 -39zM921 605l-2 -109h-185v70l-472 -12v-63l-184 3l14 181l323 7l-6 59h182l-6 -55l229 5zM598 18l94 -1l-48 97
l85 38l-139 -3z" />
    <glyph glyph-name="cid1040" unicode="&#x62b1;" 
d="M295 723l-1 -135l70 2l3 -109l86 258l152 -39l-26 -60h258l80 -76l6 -470l-189 -7l2 105l26 -1l13 320l-257 -8l-23 -52l161 1l61 -80l3 -244l-172 -7l4 -113l252 4v54l148 4l-4 -170l-555 -13l18 489l-71 25l19 58l-65 1v-130l63 11l16 -108l-79 -23v-312l-222 -10
l9 122l54 2l-1 154l-62 -17l-25 142l87 13v159l-77 1v113l76 3v143h162zM590 233l3 112l-48 -7l2 -105h43z" />
    <glyph glyph-name="cid1041" unicode="&#x62a5;" 
d="M406 -105l19 826h417l75 -90l-9 -197l-223 -2l-11 103l78 6l3 63l-189 -5l3 -195l303 2l73 -94l-118 -206l123 -121l-109 -101l-85 98l-55 -98l-123 73l1 -62h-173zM306 733l-1 -147l80 4l4 -131l-84 1v-129l73 11l16 -107l-89 -24v-310l-229 -9l9 122l62 1l-1 154
l-72 -19l-25 143l97 14v155l-87 2v113l86 3v153h161zM661 268l66 -64l61 88l-216 -12l1 -75zM573 192l4 -205l78 112z" />
    <glyph glyph-name="cid1042" unicode="&#x66b4;" 
d="M661 86l38 50l-54 39l-295 -3l-45 -32l41 -54l-90 -39l-35 33l-65 -46l-81 99l73 37l-74 -1v107l177 -2l3 34l-117 2l2 89l123 1l4 39l-105 2l11 287l546 6l114 -53l5 -249l-98 1l2 -27l121 2v-109l-114 2l2 -33l173 -2l3 -88l-90 -1l88 -44l-81 -99l-61 42l-31 -29z
M582 154l29 -256l-248 -7l8 86l46 1l20 176h145zM837 -111l-221 109l43 67l244 -72zM101 -7l244 72l42 -67l-220 -109zM649 522l2 24l-298 -2l1 -19zM658 641l-307 3v-19l305 -7zM422 402l160 2l3 31l-165 2zM432 272l137 -2l3 32l-143 3z" />
    <glyph glyph-name="cid1043" unicode="&#x8c79;" 
d="M513 739l149 -48l-21 -52l230 5l81 -90l4 -654l-284 -6l6 121l109 -1l21 506l-223 -12l-56 -133l-74 28l-79 -31l48 -93l13 -383l-246 -3l3 94l82 1l3 46l-178 -67l-35 88l223 114l1 22l-195 -75l-35 88l201 100l-15 18l-155 -60l-39 88l363 176l22 -56zM413 635
l-331 -115l-39 83l315 145zM615 381l122 -225l-148 -67l-85 247zM141 415l-46 76l110 50l25 -83zM281 478l-44 76l107 45l26 -79z" />
    <glyph glyph-name="cid1044" unicode="&#x9c8d;" 
d="M454 -108l17 515l-55 21l92 311l144 -38l-25 -59h230l70 -76l4 -467l-170 -6l2 106l20 -1l11 314l-225 -8l-22 -52l147 1l53 -71l3 -247l-150 -7l3 -114l216 4v54l138 4l-3 -171zM425 396l-6 -308l-363 -12l4 401h168l33 78l-91 -5l-28 -60l-93 26l49 218l145 -35
l-22 -45l106 -1l63 -70l-37 -106h17zM426 55l5 -100l-382 -61l-6 136zM632 240l3 105l-39 -7l2 -98h34zM308 379l-37 -2l3 -59h33zM174 320h31l1 54l-32 -1v-53zM173 179l28 2l2 57l-30 -1v-58zM305 188l1 52h-28l3 -54z" />
    <glyph glyph-name="cid1045" unicode="&#x7206;" 
d="M35 -65q32 88 57.5 180t42.5 190t25.5 203.5t7.5 222.5l126 -5q5 -121 -4.5 -253.5t-29.5 -261.5l62 24l45 -101l75 50h-52l3 95h91l3 38h-73v79l79 3l4 39l-66 -1l2 285h405l69 -63l-7 -212l-56 -1l1 -34l74 2l5 -97h-74l1 -37h92l2 -84l-74 -2l95 -71l-84 -72l-49 48
l-66 -30l-33 64l34 32l-26 26l-177 -4l-18 -21l36 -33l-34 -64l-64 29l-42 -47l-62 51l27 -58l-133 -40l-28 130q-13 -69 -27.5 -132t-30.5 -118zM725 165l12 -269l-204 -4l9 83l43 1l9 189h131zM775 62l175 -57l-54 -104l-143 99zM564 0l-144 -99l-54 104l175 57zM296 385
l27 181l82 -26l-48 -172zM78 367l-44 174l80 19l24 -176zM757 637l-173 -3l-1 -26l173 -1zM754 521l1 24l-174 -4l-1 -23zM624 404l91 3l3 36l-95 -2zM631 279h72l4 38h-78z" />
    <glyph glyph-name="cid1046" unicode="&#x676f;" 
d="M946 716l2 -154l-252 7l-47 -147h99l23 -533h-177l16 407l-66 -215l-150 60l166 432l-133 5l5 123zM350 416l92 -93l-82 -89l-34 52l12 -396h-181l12 348l-39 -134l-95 73l99 231l40 -21l3 75l-101 3v110l105 5l5 155h126l5 -148l88 4l4 -136l-89 2l3 -72zM875 435
l89 -309l-146 -45l-47 327z" />
    <glyph glyph-name="cid1047" unicode="&#x7891;" 
d="M434 184l73 73l-65 -1l5 409h119l37 81l155 -33l-36 -48h148l83 -67l-7 -335l-280 -4l-84 -107zM402 325l-6 -339l-289 -7l1 216l-68 40l106 278l-68 2l6 109l322 18l3 -136l-128 3l-61 -124h128zM664 -109l7 133h-248v111l254 7l4 89h139l4 -84l136 5v-128h-130l6 -133
h-172zM278 95l2 176h-46l-1 -176h45zM807 570l-49 -1l2 -61h46zM591 511l49 -1l2 56l-51 -1v-54zM591 355h43l2 63l-45 -1v-62zM805 357v64l-42 -1l2 -64z" />
    <glyph glyph-name="cid1048" unicode="&#x60b2;" 
d="M544 219l17 514l151 -2l1 -53l200 10l-1 -131l-195 4l1 -31l168 -9v-115l-165 1l1 -31l200 5l1 -125l-197 10l2 -49zM275 221l1 46l-199 -11l1 125l202 -5l1 31l-167 -1v115l170 9l1 31l-197 -4l-1 131l202 -10l2 53l146 2l17 -510zM248 -110l21 258l148 -3l13 -131
l170 -3l7 54l139 -8l3 -165zM41 -33l83 203l123 -27l-37 -215zM820 189l139 -164l-135 -79l-108 190zM495 51l-62 119l133 37l35 -118z" />
    <glyph glyph-name="cid1049" unicode="&#x5351;" 
d="M875 582l-10 -313l-365 -3l-162 -112l170 4l8 80l138 -2l6 -74l259 7v-132h-249l12 -143h-200l14 144l-416 1v109l176 4l-74 60l94 52l-151 -1l7 396h211l25 86l181 -34l-28 -52h261zM702 557l-130 -2l4 -43l125 -1zM701 369v43l-116 -1l4 -43zM314 514l111 -1l5 41
l-118 -1zM320 367h91l3 42l-95 -1z" />
    <glyph glyph-name="cid1050" unicode="&#x5317;" 
d="M544 -101l3 831h190l-4 -192l182 52l27 -158l-212 -35l-8 -366l55 5l1 107h158l-11 -242zM265 -106l6 148l-187 -26l-19 156l213 21l7 203l-227 1l7 136l226 6l9 191h146l20 -836h-201z" />
    <glyph glyph-name="cid1051" unicode="&#x8f88;" 
d="M908 28v-101l-285 3l3 -40h-193l3 41l-344 3v83l352 4l3 31l-297 -3l-32 71l74 82l-100 1v82l179 2l48 54l171 -18l-29 -33l447 7v-101l-525 4l-50 -58l121 2l4 37h141l3 -35l245 4v-94l-237 -2l3 -30zM527 347l17 388l154 -2l1 -41l214 9v-105l-210 3l1 -17l183 -7
l-1 -86h-178l1 -21l213 4l1 -96l-211 8l2 -38zM289 349l1 35l-213 -8l1 96l216 -4l1 21h-181v86l185 7l1 17l-212 -3l-1 105l216 -9l2 41l149 2l17 -385z" />
    <glyph glyph-name="cid1052" unicode="&#x80cc;" 
d="M683 -17v27l-358 -3l1 -120h-205l32 471l606 12l104 -60l9 -421h-269l-10 93zM534 388l4 343h182l-3 -63l198 26l18 -118l-223 -16l-3 -60l68 2v40h157l-11 -153zM267 388l5 54l-200 -13l-5 108l214 9l3 38l-212 1l6 99l215 2l4 45h146l20 -343h-196zM687 254l-364 4v-41
l363 6zM324 90l361 6v32l-361 -3v-35z" />
    <glyph glyph-name="cid1053" unicode="&#x8d1d;" 
d="M104 -15l180 247h-157l18 470l582 24l115 -62l14 -423h-182l7 342l-381 -3l4 -321l169 230l123 -66l-311 -544zM603 264l293 -269l-140 -120l-247 304z" />
    <glyph glyph-name="cid1054" unicode="&#x94a1;" 
d="M422 -55l122 275l-118 2l10 468l422 10l80 -79l6 -394l-163 -2l8 356l-208 -12l5 -253l56 125l114 -42l-152 -510zM374 464l3 -137l-71 2l4 -84l88 -4v-110l-82 -2l4 -86l58 12l22 -121l-253 -56l5 245l-84 -3v136l87 -4l2 82l-68 3v109zM46 505l57 241l158 -54l-23 -45
l162 9v-126l-217 6l-32 -63zM802 190l152 -220l-160 -81l-99 248z" />
    <glyph glyph-name="cid1055" unicode="&#x500d;" 
d="M910 146l-18 -253l-476 4v326h425zM158 -110l26 518l-50 -59l-89 72l210 317l129 -90l-158 -189h97l25 -569h-190zM953 381l1 -109l-577 -13v125l138 -1l-72 74l116 71l67 -107l-62 -38l201 -1l-65 39l68 107l116 -71l-74 -75zM924 671l3 -134l-529 7l7 109l177 6l-9 63
h182l-10 -57zM738 6l3 109l-158 -6l-3 -97z" />
    <glyph glyph-name="cid1056" unicode="&#x72c8;" 
d="M397 -59l129 279l-120 2l10 478l422 9l89 -88l6 -394l-164 -2l7 365l-212 -11l5 -264l63 137l124 -45l-167 -523zM262 739l43 -114l58 31l40 -97l-68 -44l7 -624l-244 9l3 131l68 -14l3 141l-71 -49l-56 117l129 69l3 120l-80 -51l-59 124l128 65l-65 131zM802 187
l159 -221l-160 -81l-106 248z" />
    <glyph glyph-name="cid1057" unicode="&#x5907;" 
d="M54 328l277 96l-45 20l49 80l147 -47l161 56l-344 3l-78 -107l-120 48l142 278l171 -62l-32 -44l422 10l74 -157l-207 -86l275 -88l-65 -147l-57 25l7 -318l-675 11l10 304l-41 -17zM304 261l374 10l-171 76zM642 171l-76 -2l4 -44l71 -1zM639 -14l1 47l-61 -1l5 -45z
M349 -11h57l2 40l-59 -1v-39zM349 130l65 -1l2 36l-67 -1v-34z" />
    <glyph glyph-name="cid1058" unicode="&#x60eb;" 
d="M54 439l273 66l-42 13l49 58l150 -33l158 39l-336 3l-76 -76l-118 43l140 191l171 -40l-29 -30l434 8l50 -120l-202 -61l269 -59l-65 -109l-56 17l6 -229l-300 4l76 -56l-60 -66l-117 74l48 48l-322 5l11 219l-41 -12zM245 -112l17 214l139 -3l14 -114l189 -4l16 78
l129 -19l-6 -150zM37 -39l84 143l108 -26l-37 -157zM855 108l107 -113l-138 -68l-73 138zM300 388l378 7l-173 54zM646 322l-80 -2l4 -33h75zM343 292l70 -2l2 28l-72 -1v-25zM643 193v30l-64 -1l4 -29h60zM343 195l62 -1l2 26l-64 -1v-24z" />
    <glyph glyph-name="cid1059" unicode="&#x7119;" 
d="M46 -65q33 88 58.5 180t42.5 190t25 203.5t6 222.5l130 -5q5 -121 -3.5 -254t-27.5 -262l67 25l89 -217l-140 -40l-30 151q-12 -68 -26 -129.5t-31 -115.5zM918 151l-18 -257l-448 3v322h397zM951 374l3 -112l-535 -6l4 125l129 -2l-72 74l116 71l67 -107l-64 -39l176 -3
l-68 42l68 107l115 -71l-77 -78zM922 668l3 -134l-481 7l2 109l158 6l-10 65h180l-12 -60zM312 385l29 181l83 -26l-50 -172zM92 367l-46 174l82 19l25 -176zM747 7l2 104l-130 -6l-3 -93z" />
    <glyph glyph-name="cid1060" unicode="&#x88ab;" 
d="M285 338l58 86l59 -59q5 72 7.5 143t4.5 140l207 1l3 79h120l4 -77l127 2l71 -62l6 -151h-144l9 96l-62 -1l7 -134l138 2l53 -90l-141 -193l144 -123l-110 -108l-114 121l-89 -121l-110 85l-6 -86l-175 16q11 57 19.5 124.5t15.5 142.5l-59 -64l-39 67l17 -281h-166
l17 314l-35 -48l-79 126l165 185l-138 -14v127l244 -3l49 -98l-127 -170h45l3 -50l27 26l80 -77q3 29 4.5 58.5t3.5 59.5l-57 -53zM631 276l79 -68l77 87l-243 -9q-1 -72 -3 -142.5t-6 -136.5l96 109l-80 86zM186 595l-57 107l134 41l31 -114zM546 399l65 1l5 133l-70 -1
v-133z" />
    <glyph glyph-name="cid1061" unicode="&#x5954;" 
d="M925 188l1 -147l-122 1l13 -148h-194l8 151l-288 3l-21 -159l-188 25l36 136l-97 2l3 119l127 2l29 110l140 -17l-13 -89l280 5l4 82h143l7 -79zM556 699l-44 -42l402 9v-136l-66 1l94 -72l-122 -106l-195 181l-237 4l-209 -202l-122 113l113 91l-86 1l3 108l224 5
l125 100zM730 433l2 -133l-148 2l5 -75h-180l5 78l-148 3l4 111l151 5l6 78h141l6 -74z" />
    <glyph glyph-name="cid1062" unicode="&#x82ef;" 
d="M398 -111l3 65l-86 1l1 112l90 4l9 219l-353 3l4 127l355 8l4 77h138l3 -74l367 8l4 -154l-362 3l13 -210l94 5l2 -133l-88 1l4 -62h-202zM406 733l-5 -63l194 6l-3 57h183l-4 -53l162 4l3 -155l-177 1l-3 -51h-149l-3 53l-213 3l-4 -56h-148l-4 58l-173 2l7 123l159 4
l-4 67h182zM62 -8l161 281l121 -38l-99 -310zM754 -75l-99 310l120 38l162 -281z" />
    <glyph glyph-name="cid1063" unicode="&#x672c;" 
d="M398 -110l3 104l-94 2l2 132l97 5l10 338l-316 2l4 141l317 10l4 109h138l4 -106l328 11l4 -172l-325 3l14 -324l99 6l1 -163l-93 2l5 -100h-202zM56 -12l168 455l133 -27l-109 -480zM751 -64l-109 480l132 27l169 -455z" />
    <glyph glyph-name="cid1064" unicode="&#x7b28;" 
d="M399 -110l3 63l-87 1l2 112l90 4l9 204l-354 4l4 112l356 8l3 62h138l3 -59l368 8l3 -139l-362 3l12 -195l95 4l2 -134l-88 2l4 -60h-201zM401 457l-131 62l62 57l-76 3l-54 -105l-134 25l83 246l174 -31l-21 -40l197 9v-111l-114 2l87 -54zM832 457l-131 62l62 57l-77 3
l-53 -105l-135 25l85 246l173 -31l-21 -40l196 9v-111l-114 2l88 -54zM754 -73l-99 295l120 39l162 -267zM62 -6l162 267l120 -39l-99 -295z" />
    <glyph glyph-name="cid1065" unicode="&#x5d29;" 
d="M742 -8l1 50l-71 1v-154h-155l-7 574l298 12l93 -57l11 -529h-200l-5 103h35zM318 -8l1 50l-71 1v-154h-155l-6 574l296 12l93 -57l13 -529h-201l-5 103h35zM102 505l15 189h180l4 -71l97 -1l15 116h149l16 -117l113 -1l2 74h182l-6 -184zM248 142h74l2 60l-76 2v-62z
M673 142h74l2 60l-76 2v-62zM249 303h79l2 56l-81 -1v-55zM674 303h78l2 56l-80 -1v-55z" />
    <glyph glyph-name="cid1066" unicode="&#x7ef7;" 
d="M498 1l1 134l-42 1l3 -240h-138l16 812l221 7l67 -67l3 -756l-154 5l3 104h20zM822 1l1 134l-42 1l2 -240h-137l15 812l222 7l67 -67l3 -756l-154 5l2 104h21zM273 705l-104 -220l29 1l30 61l94 -37l-103 -261l75 6l5 -108l-204 -37l-33 105l78 156l-68 -6l-26 119
l131 256zM78 -75l-16 126l236 41l7 -111zM453 599l1 -144h48l2 145zM828 600l-50 -1l1 -144h47zM780 234h44l1 122l-46 2zM456 234h44l1 122l-46 2z" />
    <glyph glyph-name="cid1067" unicode="&#x752d;" 
d="M415 -109l8 118h-99l1 -122h-190l32 494l608 19l103 -67l10 -445h-215l-12 99l57 1v22h-91l8 -119h-220zM405 419l25 117l-268 -128l-78 124l250 86l-224 4v96l780 16v-124l-296 4l-98 -47h85l26 -147zM843 402l-193 117l53 81l213 -73zM322 232l115 3l3 38h-118v-41z
M722 274h-111l3 -36l107 3zM323 98l106 2l3 34l-109 -1v-35zM622 104l98 2v30l-100 -1z" />
    <glyph glyph-name="cid1068" unicode="&#x6cf5;" 
d="M48 439l136 151l-119 2l7 112l863 22l4 -144l-591 6l-39 -58l454 12l104 -56l4 -211l-281 1l4 -54l67 32l82 -76l118 72l80 -90l-111 -60l122 -110l-152 -94l-201 256l19 -259l-302 -4l8 107l83 2l20 279l-212 1l5 117l-36 -54zM72 120l1 110l226 11l98 -95l-196 -250
l-152 89l159 134zM680 382l2 49l-271 -2v-42z" />
    <glyph glyph-name="cid1069" unicode="&#x8e66;" 
d="M345 641l-7 -274l-43 -2l3 -79l51 4l-2 -116l-46 3l5 -134l48 5v-108l-310 -44l1 121l18 2l9 251h76l5 -243l17 2l8 332l-121 -3l6 356h213zM833 -7l1 50l-39 1l2 -152h-127l6 574l210 11l66 -56l3 -529h-143l-3 101h24zM532 -7l1 49l-39 2l2 -152h-127l7 574l209 11
l66 -56l3 -529h-143l-3 101h24zM384 498l10 195h134l4 -83l49 -1l11 127h134l12 -128h59l1 85h139l-5 -190zM222 460l2 152l-42 -6l-1 -143zM544 365h-53v-63h51zM844 365h-51v-63h49zM493 140h43l2 64l-46 1zM794 140h43l2 64l-45 1v-65z" />
    <glyph glyph-name="cid1070" unicode="&#x8ff8;" 
d="M914 638l2 -141l-92 1l4 -101l118 -3v-118l-114 -1l8 -199h-182l10 197h-83l-13 -190l-178 14l25 175l-81 -1l3 141l99 -3l13 94l-83 1v116l103 3l-64 58l114 82l73 -104l-48 -33l181 6l-39 27l73 104l114 -82l-51 -46zM72 386l-1 124l143 5l96 -64l4 -370l634 -46
l-45 -156l-635 90l-88 -89l-129 108l82 77l6 319zM220 532l-129 127l133 89l96 -141zM595 405l81 -3l4 98l-77 1z" />
    <glyph glyph-name="cid1071" unicode="&#x903c;" 
d="M71 383l-1 124l134 5l90 -64l3 -401l651 -20l-45 -150l-675 61l-57 -60l-120 106l77 76l5 321zM926 312l-8 -254l-581 8l-1 312h516zM879 561l4 -158l-505 -2l8 199l398 6zM927 733v-113l-593 7l2 92zM209 529l-120 128l124 88l90 -141zM723 490l2 34l-181 -1v-29z
M763 286l-59 -1l1 -26l57 -1zM491 153h58l1 25l-59 -1v-24zM760 153v28l-50 -1l2 -27h48zM494 263l62 -1l1 21h-62z" />
    <glyph glyph-name="cid1072" unicode="&#x2fd0;" 
d="M872 340l-10 -207l-735 -6l7 274h649zM821 631l-11 -207l-632 -4l8 270l183 -3l38 55l173 -24l-39 -33l191 -2zM186 -86l39 92l-148 2l1 94l844 20l-3 -125l-164 2l19 -110h-201l19 112l-193 3l-23 -123zM637 624l-276 1v-19l275 -2zM360 546l274 -1l1 18l-275 -3v-14z
M633 484v20l-273 -6v-12zM687 324l-120 -2l4 -23l115 -1zM683 208l1 24l-104 -1l3 -24zM309 300h104l2 21h-106v-21zM309 207h90l4 22h-94v-22z" />
    <glyph glyph-name="cid1072" unicode="&#x9f3b;" 
d="M872 340l-10 -207l-735 -6l7 274h649zM821 631l-11 -207l-632 -4l8 270l183 -3l38 55l173 -24l-39 -33l191 -2zM186 -86l39 92l-148 2l1 94l844 20l-3 -125l-164 2l19 -110h-201l19 112l-193 3l-23 -123zM637 624l-276 1v-19l275 -2zM360 546l274 -1l1 18l-275 -3v-14z
M633 484v20l-273 -6v-12zM687 324l-120 -2l4 -23l115 -1zM683 208l1 24l-104 -1l3 -24zM309 300h104l2 21h-106v-21zM309 207h90l4 22h-94v-22z" />
    <glyph glyph-name="cid1073" unicode="&#x2f50;" 
d="M488 -85l1 804h181l-1 -222l208 69l41 -142l-250 -58l-1 -321l80 4l7 151l160 -22l-23 -278zM98 719h183l-4 -228l175 22l4 -148l-181 -4l-5 -301l183 13l3 -127l-374 -54z" />
    <glyph glyph-name="cid1073" unicode="&#x6bd4;" 
d="M488 -85l1 804h181l-1 -222l208 69l41 -142l-250 -58l-1 -321l80 4l7 151l160 -22l-23 -278zM98 719h183l-4 -228l175 22l4 -148l-181 -4l-5 -301l183 13l3 -127l-374 -54z" />
    <glyph glyph-name="cid1074" unicode="&#x9119;" 
d="M566 229l-9 -328l-505 -9l6 410h173l2 30l-193 3v100l200 8l2 29l-164 -3l7 245h378l76 -73l-9 -162l-154 -4l1 -28l200 8v-128l-193 3l2 -28h94zM768 416l35 177l-67 -9l24 -693l-172 1l14 817l245 2l113 -80l-77 -241l72 -74l-22 -322l-161 28l8 113l28 -4l12 115
l-52 61v109zM427 -5l3 210l-239 -4v-206h236zM413 146l-10 -131l-198 -2l7 172h157zM381 573l3 44l-146 -4l-1 -39zM319 81l4 38l-27 -2l-1 -36h24z" />
    <glyph glyph-name="cid1075" unicode="&#x7b14;" 
d="M394 -111l2 147l-320 -19l-3 112l326 13v32l-277 -11l-1 114l281 6v34l-300 -4l-5 94l718 27l-114 59l62 62l-77 2l-53 -112l-135 27l85 263l173 -33l-21 -43l196 9v-119l-115 4l89 -59l-64 -59l32 1l16 -114l-304 -3v-32l272 7l10 -101l-285 -11v-32l322 13l10 -98
l-334 -19l-1 -50l170 5l2 42l176 -14l-22 -137zM401 426l-131 67l63 62l-77 2l-54 -112l-134 27l83 263l174 -33l-21 -43l197 9v-119l-115 4l88 -59z" />
    <glyph glyph-name="cid1076" unicode="&#x5f7c;" 
d="M795 431l4 74l-50 -1l5 -103l119 1l66 -99l-135 -181l146 -132l-117 -104l-112 125l-90 -122l-108 81l-6 -82l-174 17q12 70 21 156t15.5 180t11 191.5t7.5 191.5h203l4 99h133l5 -99h119l76 -67l7 -126h-150zM138 -107l23 352l-42 -34l-70 93l213 210l97 -114l-154 -120
h102l19 -387h-188zM353 632l-227 -186l-74 91l196 203zM630 282l71 -66l72 83l-241 -11q0 -137 -6 -279l96 113l-76 85zM532 401h60l4 99l-64 -1v-98z" />
    <glyph glyph-name="cid1077" unicode="&#x78a7;" 
d="M63 29l126 155l-102 1l6 98l840 14l3 -119l-570 4l-28 -39h450l90 -57v-195l-637 2l8 123l-48 -69zM916 623l6 -304l-426 2l7 362l115 2l14 61l149 -23l-19 -34l85 1zM123 451l2 117l84 -5l2 31l-108 3l1 97l360 10l-1 -118l-108 3l2 -33l86 -3v-94l-81 -2l2 -34l107 -2
l1 -103l-378 -6l1 117l106 -3l2 27zM685 -5l2 46l-247 -2l9 -43zM775 429v30l-128 -5v-32zM776 578l-129 3v-31l128 -1z" />
    <glyph glyph-name="cid1078" unicode="&#x84d6;" 
d="M905 452l3 -242l-798 -7l12 302l294 3l18 49l167 -17l-20 -31l226 3zM408 734l-5 -50l189 5l-3 45h185l-4 -40l151 4l4 -125l-167 2l-3 -38h-151l-3 40l-207 3l-4 -43h-151l-4 45l-163 2l5 92l150 4l-3 54h184zM507 -95l7 286h152l4 -40l235 32l14 -111l-240 -15l4 -45
l99 3l3 33l133 -2l9 -141h-420zM108 191h160l1 -43l201 17l3 -112l-202 -1l1 -37l201 10l3 -103l-385 -36zM737 296v130l-63 -1l19 -39l-62 -20l79 -19l-30 -51h57zM284 298h53l-28 49l79 19l-62 20l16 34h-56zM399 421l110 -26l124 29zM419 297l184 -1l-94 30z" />
    <glyph glyph-name="cid1079" unicode="&#x853d;" 
d="M229 -98l11 234l-18 -123l-32 7l2 -126l-123 3l19 428l160 3l8 185l111 -2l5 -181l90 2l72 -65l10 -367l-141 -1l-1 87l23 1v34l-34 -8l-14 90l6 -201h-154zM416 731l-4 -49l168 4l-3 45h185l-4 -41l171 5l3 -125l-185 2l-4 -38h-151l-4 41l-187 2l-4 -43h-151l-3 45
l-182 3l4 92l171 4l-4 53h184zM813 -110l-71 105l-59 -102l-130 81l106 143l-58 86l92 64l41 -47l72 98l92 -55l-82 -140l123 -142zM541 284l77 237l148 -40l-24 -42l179 9v-122l-239 9l-49 -88zM145 339l-71 115l111 49l46 -119zM391 387l44 113l110 -49l-67 -109zM407 174
l19 -85l1 137l-52 -2l1 -57zM205 174l36 -9l2 52l-55 -3l1 -111z" />
    <glyph glyph-name="cid1080" unicode="&#x6bd5;" 
d="M933 202l4 -162l-354 4l14 -152h-196l10 154l-349 5l4 124l353 11l6 81h138l6 -77zM505 288l7 434l161 5l5 -92l190 64l33 -158l-218 -34l6 -106l83 5l3 68l141 -3l10 -184zM106 724l176 -3l-3 -93l192 23v-146l-196 -3l-3 -81l199 11v-126l-381 -53z" />
    <glyph glyph-name="cid1081" unicode="&#x6bd9;" 
d="M921 424l1 -129l-238 -1l3 -83l182 59l43 -133l-221 -46l3 -67l77 -3l13 59l132 -17l-12 -155l-378 -3l13 388l-203 -1l-23 -32l151 4l55 -108l-153 -282l-153 71l46 62l-59 39l47 76l76 -27l41 56l-127 -1l-67 -97l-93 51l91 187h-84v100zM509 445l6 278l134 4l5 -60
l178 53l28 -113l-199 -29l3 -43l91 3l1 33l118 -2l9 -124h-374zM154 725l138 -3l1 -45l183 17l3 -104l-184 -2l1 -51l184 14l2 -89l-342 -43z" />
    <glyph glyph-name="cid1082" unicode="&#x6bd6;" 
d="M267 -109l3 58l-114 -53l-79 130l201 78l9 188l152 -2l5 -121l371 146l49 -91l-414 -192l2 -29l137 5l7 66l146 -3l3 -173zM499 369l8 359l151 4l4 -84l206 75l33 -140l-231 -44l5 -68l105 2l3 48l134 -2l10 -150h-362l59 -105l-105 -46l-77 102l96 49h-39zM99 729
l156 -2l1 -68l209 20l3 -129l-209 -2l1 -58l209 15l2 -108l-388 -50zM859 155l80 -174l-150 -33l-41 185zM244 273l-27 -179l-157 23l65 167z" />
    <glyph glyph-name="cid1083" unicode="&#x5e01;" 
d="M709 108l9 228l-136 1l22 -447h-202l15 449l-117 1l13 -358l-209 3l33 482l284 6l4 100l-339 -7l3 116l796 52l28 -150l-343 -8l5 -100l219 6l95 -86l13 -411l-260 -2l-2 125h69z" />
    <glyph glyph-name="cid1084" unicode="&#x5e87;" 
d="M934 530l-624 3q0 -70 -4 -149.5t-11.5 -162t-18 -163.5t-24.5 -154l-199 49q38 128 68 275t46 306l-56 1l9 116l351 8l-12 79h183l-5 -75l291 7zM625 -105l1 599l157 -1l-1 -128l119 54l45 -112l-165 -57l-1 -243l36 1l5 99l120 -12l-9 -202zM484 495l5 -145l104 12
l2 -125l-103 3l7 -194l85 12l20 -117l-280 -55l15 605z" />
    <glyph glyph-name="cid1085" unicode="&#x75f9;" 
d="M951 541l-573 12q-3 -41 -7 -94.5t-9.5 -113t-12.5 -122t-14.5 -120.5t-16 -109t-16.5 -88l-184 47q12 32 26.5 81t28.5 110l-82 -32l-43 127l158 55q14 66 25.5 133t19.5 129l-40 1l10 108l293 7l-8 61h171l-4 -58l277 6zM902 458l16 -273l-524 -3l17 334l404 2z
M688 -103l14 144l-106 2l-28 -154l-168 41l54 117l-95 2l5 104l585 11l3 -129l-116 3l14 -141h-162zM131 342l-84 124l108 72l66 -143zM717 433l2 -36l49 2v35zM547 392l44 2l4 37l-48 -1v-38zM545 267h36l3 35h-39v-35zM771 268l-1 31l-43 1l3 -32h41z" />
    <glyph glyph-name="cid1086" unicode="&#x95ed;" 
d="M734 -5l10 554h-354v131l431 7l88 -81l20 -714l-287 -2l-7 105h99zM668 498v-52l48 2l2 -128l-50 1l1 -307l-202 -1l3 110l39 -1l-3 203l-224 5l1 102l222 8l-1 58h164zM268 -103h-198l29 577h146zM474 291l-37 -267l-160 29l80 255zM251 512l-161 119l116 114l141 -148z
" />
    <glyph glyph-name="cid1087" unicode="&#x655d;" 
d="M217 -97l10 323l-18 -157l-36 11l2 -187l-126 3l19 592l168 4l7 232h116l4 -230l103 3l68 -74l10 -522l-146 -2l-1 111h24v70l-36 -11l-16 135l7 -301h-159zM819 -112l-67 118l-43 -120l-157 65l103 224l-97 169l98 65l63 -92l79 171l113 -41l-96 -267l136 -194zM534 454
l89 287l148 -54l-26 -53l195 10l-1 -135l-253 4l-44 -95zM116 509l-58 163l120 33l31 -169zM393 536l31 169l120 -33l-58 -163zM401 288l21 -125l2 217l-58 -4l2 -99zM193 288l35 -12l3 91l-59 -4l1 -192z" />
    <glyph glyph-name="cid1088" unicode="&#x5f0a;" 
d="M916 161l4 -142l-148 3l11 -125h-195l9 127l-209 3l-34 -135l-192 51l38 87l-129 2l6 113l175 3l35 80l146 -27l-13 -49l186 3l5 66l144 -1l4 -62zM239 240l8 159l-18 -75l-35 11l2 -101l-124 2l19 338l166 4l7 149l104 -2l5 -145l107 3l58 -58l9 -286l-147 -1l-1 64h30
v32l-33 -10l-18 71l6 -155h-145zM823 228l-75 89l-84 -83l-107 102l108 79l-43 51l79 58l52 -46l79 58l73 -64l-69 -68l92 -80zM550 532l72 203l148 -42l-30 -43l185 8l-3 -110l-245 9l-40 -57zM160 584l-70 100l97 40l48 -103zM397 628l45 94l98 -40l-68 -91zM412 455
l18 -50l1 81l-55 -3l1 -41zM214 455l35 -14l2 37l-59 -2l1 -77z" />
    <glyph glyph-name="cid1089" unicode="&#x5fc5;" 
d="M262 -103l2 99l-112 -91l-107 128l226 168l10 322l157 -2l5 -193l371 276l83 -99l-449 -362l4 -120l133 -2l7 98l150 -8l3 -213zM845 301l109 -263l-156 -52l-67 281zM241 463l-35 -273l-161 29l72 261zM562 480l-162 176l127 85l143 -190z" />
    <glyph glyph-name="cid1090" unicode="&#x8f9f;" 
d="M233 315q0 -58 -2 -120t-5.5 -119t-8 -105t-9.5 -79l-165 29q32 170 50 367.5t27 419.5l299 4l68 -90l3 -300zM636 -110l8 153l-113 1l1 116l119 4l4 76l-143 -4v131l88 -1l-58 92l127 56l48 -119l-66 -29l163 -1l-66 30l47 119l128 -56l-59 -93h92v-116l-142 -5l4 -74
l120 5l4 -134l-118 1l8 -152h-196zM498 210l4 -301l-258 -1l7 357l182 21zM938 663l3 -133l-415 5l1 109l123 6l-9 81h190l-11 -73zM249 565q-1 -11 -1.5 -25.5t-1 -30t-1 -30.5t-1.5 -26l96 -1l4 121zM391 27l2 127l-36 -7v-117z" />
    <glyph glyph-name="cid1091" unicode="&#x58c1;" 
d="M156 62l2 99l275 5l4 42l166 2l3 -41l280 4l3 -124l-270 5l4 -44l327 -8l1 -95l-858 -16l2 131l325 -7l4 42zM945 488l-1 -85l-139 -4l3 -26l116 5v-109l-109 1l5 -51h-183l5 53l-108 2l-1 90l117 4l3 28l-144 -3l3 112l99 -4l-47 46l50 46l-86 3l1 85l123 4l-5 49h151
l-4 -43l125 6v-111l-65 2l45 -41l-57 -55zM247 480q-4 -40 -8 -79t-8.5 -74t-9 -63.5t-8.5 -46.5l-164 38q31 108 53.5 222t40.5 242l275 2l73 -67l4 -169zM507 381l3 -151l-260 -1l7 206l181 13zM713 529l-37 -31l116 -5l-43 36l49 59l-137 4zM263 620l-4 -51h98l3 56z
M396 310l2 50l-32 -5l-1 -43z" />
    <glyph glyph-name="cid1092" unicode="&#x81c2;" 
d="M683 -29v25l-348 -1l3 -107h-206l27 406l601 9l103 -51l9 -363h-269l-10 81zM947 533l-1 -66l-137 -3l2 -18l115 3l1 -86l-109 1l5 -41h-183l4 43l-107 1l-1 71l117 3l3 20l-145 -2l4 88l102 -4l-51 40l50 36l-87 2l3 67l123 4l-4 40h159l-4 -35l116 3v-87l-64 1l44 -31
l-61 -47zM245 515q-3 -63 -10.5 -116.5t-12.5 -81.5l-170 37q25 83 42.5 175t34.5 194l290 2l73 -52v-154zM501 454l4 -134h-252l7 174l181 10zM333 68l352 4v29l-353 -2zM687 204l-358 3l1 -27l356 6zM716 569l-42 -28l125 -4l-47 32l48 46l-135 3zM249 634
q0 -10 -0.5 -14.5t-1.5 -15.5l105 -1v36zM391 389l2 41l-24 -4l-1 -35z" />
    <glyph glyph-name="cid1093" unicode="&#x907f;" 
d="M67 383l-1 124l123 5l89 -64l3 -405l670 -25l-44 -141l-685 64l-55 -63l-119 106l73 76l5 321zM440 396q-4 -102 -6.5 -187.5t-11.5 -148.5l-131 24q10 70 17.5 147t13 158t8.5 164t5 166l231 3l48 -86l4 -235zM713 49l5 82l-71 3v99l76 4l4 60l-91 -2v117l305 -13
l-1 -98l-90 -2l2 -56l74 3v-120l-68 2l5 -79h-150zM625 309l3 -250l-181 -1l5 298l130 16zM922 689v-125l-281 12l1 95l69 4l-5 57h150l-4 -48zM198 534l-125 123l123 88l94 -136zM932 530l-45 -112l-86 25l26 116zM749 559l26 -116l-86 -25l-46 112zM452 603l-3 -95l53 -2
l3 103zM549 155l1 110l-23 -6v-101z" />
    <glyph glyph-name="cid1094" unicode="&#x965b;" 
d="M224 427l38 166l-69 -7l24 -695l-168 1l13 818l252 2l89 -80l-73 -231l65 -75l-20 -308l-148 28l8 114l27 -5l12 96l-50 66v110zM915 215v-109l-163 -5l5 -77l194 8v-141l-548 10v109l191 7l6 79l-161 -4v136l168 -4l5 69h125l6 -73zM822 437l31 3l-1 51l88 3l8 -163
l-266 -23l3 422h140l-1 -80l96 24l28 -124l-125 -21zM567 445l86 8l11 -108l-245 -60l-1 445h152l-1 -93l92 8v-121h-93z" />
    <glyph glyph-name="cid1095" unicode="&#x97ad;" 
d="M579 -69l45 103l-60 32l40 84l62 -24l20 44l-104 1l4 385l130 5l1 41l-121 2l2 101l356 23l2 -129l-139 2l1 -35l73 2l54 -64l4 -336l-140 1l-31 -88l182 -70l-58 -124l-161 86l-30 -90zM147 -109l1 99l-106 4v95l109 4l1 46h-97l3 247l100 2l1 37l-75 -3l5 144l-50 2v92
l52 2l2 61l100 -1l1 -54l47 2l1 50h99v-44l49 3v-119l-47 1l2 -127l-74 -3l1 -40l46 1l52 -61l-5 -190l-87 -1l1 -40l104 5v-125l-102 4l3 -93h-137zM410 -108l19 484l-15 -30l-74 43l128 348l116 -54l-120 -236h77l18 -555h-149zM196 520h44v44l-45 1zM853 463h-32l2 -49
h30v49zM135 224h19l2 73l-21 -1v-72zM680 418l32 -1l1 45h-33v-44zM291 224l2 83l-19 -2l2 -81h15zM680 263l28 1l1 50l-29 -2v-49zM852 272v47h-26l2 -49z" />
    <glyph glyph-name="cid1096" unicode="&#x8fb9;" 
d="M357 117l102 335l-107 -3v138h149l45 148l138 -25l-27 -123l174 1l86 -77l-6 -426l-263 -4l8 125l67 1l24 252l-121 -4l-84 -374zM72 383l-2 124l144 5l95 -64l4 -371l635 -44l-46 -156l-636 88l-87 -87l-128 106l81 79l6 318zM219 529l-128 128l133 88l96 -141z" />
    <glyph glyph-name="cid1097" unicode="&#x7f16;" 
d="M942 608l-7 -224l-405 5q-1 -118 -4.5 -244.5t-14.5 -258.5l-169 18q13 84 23 170t17.5 169.5t12 162t7.5 147.5h-38l16 103l207 10l-9 60h166l-8 -53l123 7zM677 -66l3 134h-21l-4 -168h-115l12 450l321 13l69 -58l10 -409l-147 2l-5 36h-45l2 134h-15l1 -135zM309 696
l-121 -210l46 1l37 60l98 -46l-120 -250l83 6l6 -108l-231 -36l-39 104l96 155l-84 -6l-32 119l157 255zM87 -88l-19 136l267 50l10 -111zM784 494l8 61l-261 -2v-61zM661 159l20 1l3 94h-21zM844 255h-23v-92l20 1zM742 161l18 1l2 92h-21zM836 -12l2 80h-16v-80h14z" />
    <glyph glyph-name="cid1098" unicode="&#x8d2c;" 
d="M919 -111l-318 67l-61 -66l-119 109l323 299l-292 -24v145l205 4l-90 111l63 38l-183 -7l2 117l467 51l21 -149l-229 -9l57 -114l-61 -37l170 3l59 -117l-233 -249l254 -22zM45 -81l71 257l-66 2l8 516l298 12l57 -80l2 -439l-124 -3l9 382l-134 -15l2 -185l24 85l94 -31
l-85 -536zM346 143l86 -203l-127 -54l-57 216z" />
    <glyph glyph-name="cid1099" unicode="&#x6241;" 
d="M911 608l13 -236l-614 -5q-9 -134 -28 -252t-41 -210l-187 47q22 67 41 141t34.5 151t27 156t18.5 156h-39l22 107l297 10l-8 58l182 3l-5 -55l193 6zM633 -95l6 129h-35l6 -129h-130l7 130h-30l2 -141h-161l27 428l504 13l99 -65l18 -372h-177l1 93h21l1 42h-37l7 -128
h-129zM737 482l4 72l-424 1q0 -17 -0.5 -32.5t-0.5 -32.5zM599 150l45 2l3 66l-51 -2zM795 222l-50 -2l3 -64l46 2zM456 144l37 1l4 69l-41 -1v-69z" />
    <glyph glyph-name="cid1100" unicode="&#x4fbf;" 
d="M398 -45l54 66l-90 27l31 97l139 -30l38 46l-162 1l7 380l190 4l1 43l-217 3l2 104l567 23l2 -133l-223 2l2 -38l121 4l75 -63l6 -332l-223 1l-47 -74l287 -60l-41 -145l-316 95l-62 -97zM148 -110l25 508l-44 -52l-90 72l213 316l122 -97l-150 -178h89l25 -569h-190z
M813 447l-69 -1l2 -43l66 -1zM811 265v42l-60 -2l2 -42zM542 256l53 2l1 42l-54 -2v-42zM542 408l58 -2l2 39h-60v-37z" />
    <glyph glyph-name="cid1101" unicode="&#x53d8;" 
d="M834 -123l-331 120l-295 -123l-104 137l193 60l-92 34l55 75l-100 -1l4 110l664 14l63 -142l-194 -82l214 -61zM905 674l-1 -109l-214 -5l17 -230l-173 1l9 226l-77 -2l11 -225l-175 -5l17 226l-214 -5l3 130l315 -1l-9 61h181l-8 -61zM57 426l154 113l80 -84l-134 -128z
M843 327l-135 128l80 84l154 -113zM651 182l-313 -2l160 -45z" />
    <glyph glyph-name="cid1102" unicode="&#x535e;" 
d="M918 583l4 -168l-356 3l23 -529h-204l16 531l-323 3l7 137l372 10l-97 101l150 87l95 -149l-62 -37zM753 368l157 -280l-164 -71l-113 297z" />
    <glyph glyph-name="cid1103" unicode="&#x8fa8;" 
d="M955 389v-117l-96 3l3 -78l69 5v-120h-65l6 -193l-174 1l10 193h-70v101l77 5l4 91l-99 4l1 103h78l-66 80l96 60l56 -101l-57 -39l122 1l-55 40l58 96l92 -62l-66 -74zM374 392v-116l-83 1q-1 -19 -2 -38.5t-3 -42.5l75 5v-118l-82 1q-5 -52 -10.5 -102.5t-12.5 -95.5
l-183 35q14 44 26 85t21 80l-61 1v98l83 4q5 25 8 47.5t6 43.5l-111 2l2 103l74 1l-65 81l97 60l55 -101l-59 -39l122 2l-52 39l57 96l91 -62l-65 -72zM402 -82q26 86 45.5 183t33 202t22.5 215.5t14 222.5l99 -1q1 -113 -1.5 -229.5t-9.5 -227.5t-17.5 -212.5t-24.5 -186.5
zM862 736l-8 -72l82 3v-119l-303 5l-1 103l75 3l-5 77h160zM301 736l-6 -72l73 3l1 -117l-303 6l-2 100l83 3l-5 77h159zM380 222l35 278l63 -4l-19 -282z" />
    <glyph glyph-name="cid1104" unicode="&#x8fa9;" 
d="M702 -110l12 189h-64v93l69 4l6 99l-88 2l2 101l67 2l-59 79l89 58l50 -99l-52 -38l109 3l-48 38l54 93l83 -60l-58 -70l71 2v-116l-80 2l3 -86l63 3v-111h-60l7 -189zM361 386v-116l-82 2q-1 -20 -1.5 -42t-2.5 -45l73 4v-111h-81q-4 -50 -9 -99t-12 -92l-166 34
q13 42 23 81t19 77h-55v93l74 4q5 26 8 51t6 47l-101 3l1 101l68 2l-59 79l88 58l51 -99l-53 -38l110 3l-48 38l53 93l84 -60l-58 -70zM582 75l48 13l7 -113l-201 -62l3 467l-62 -1l2 123l195 14zM873 736l-8 -90l68 3v-116l-277 6l-2 99l65 3l-6 95h160zM293 736l-9 -90
l66 3v-116l-278 6v99l67 3l-7 95h161zM483 540l-69 143l130 48l47 -155z" />
    <glyph glyph-name="cid1105" unicode="&#x8fab;" 
d="M703 -110l12 187h-65l1 93l69 4l6 100l-88 2l1 102l69 1l-61 80l89 58l50 -99l-53 -39l112 3l-49 39l53 93l83 -60l-59 -71l72 2v-116l-79 2l3 -87l62 4v-112h-59l7 -187zM361 385v-116l-81 2l-4 -80l73 5l-1 -111h-80q-4 -51 -9 -102t-13 -96l-166 34q13 44 23.5 85
t19.5 80h-56l1 93l74 4l13 90l-101 3l1 102l70 1l-61 80l88 58l52 -99l-55 -39l113 3l-49 39l52 93l84 -60l-59 -71zM597 673l-109 -220l26 2l36 67l92 -47l-103 -247l84 17l7 -101l-216 -47l-38 106l78 143l-66 -8l-30 119l125 257zM873 736l-8 -92l68 2l1 -116l-278 6
l-1 99l64 3l-6 98h160zM295 736l-9 -92l64 2l1 -116l-278 6l-1 99l69 3l-7 98h161zM395 -90l-19 133l257 57l8 -107z" />
    <glyph glyph-name="cid1106" unicode="&#x904d;" 
d="M908 621l10 -180l-434 -4q-3 -102 -9 -195t-15 -171l-159 29q10 49 19 107t17 120.5t14.5 127t11.5 126.5h-25l13 92l196 8l-6 47l162 2l-3 -44l114 5zM70 383l-1 124l131 5l86 -64l4 -401l658 -20l-45 -150l-679 61l-56 -60l-117 106l75 76l4 321zM719 64l2 104h-22
l5 -104h-84l4 105h-23l1 -115h-116l20 356l345 11l70 -52l11 -320h-123v78h12l1 41h-28l5 -104h-80zM205 529l-117 128l120 88l89 -141zM757 533l3 50l-273 -2q0 -11 -0.5 -21t-0.5 -21zM825 326l-38 -2l3 -56l34 1zM600 260l28 1l3 59l-31 -1v-59zM696 263l28 2l1 57
l-32 -1z" />
    <glyph glyph-name="cid1107" unicode="&#x6807;" 
d="M343 416l83 -94l-70 -99l-37 59l14 -393h-177l12 347l-39 -133l-96 73l101 233l40 -21l3 79l-103 4v109l107 5l5 148h119l5 -142l90 5l4 -138l-90 3l3 -74zM949 450v-125l-189 -2l24 -422l-218 -9l8 117l29 2l6 311l-174 -1v139zM912 712l6 -139l-452 4l7 124zM397 -21
l71 282l103 -17l-35 -286zM827 -30l-24 274l104 17l60 -271z" />
    <glyph glyph-name="cid1108" unicode="&#x5f6a;" 
d="M405 735l-4 -39l170 15l-1 -114h-177l-3 -33l134 6l63 -69l-4 -95l-117 10l2 35l-228 -6q0 -65 -1 -136.5t-4 -143.5t-8.5 -141t-13.5 -130l-163 32q26 127 41.5 259t20.5 257h-27l8 110l162 7l-12 176h162zM398 47q-1 -23 -3 -42t-4.5 -37t-6.5 -37t-9 -40l-145 35
q23 51 36 104t20 113l211 9l70 -62l10 -74l224 12l2 58l144 1l-1 -163l-505 -34v159zM308 168l-2 114l-43 -6l-10 102l52 2l-1 51h139l-2 -41l104 8l15 -79l-123 -18l-1 -36l42 1l1 27l99 2l-3 -125zM591 134l277 196l82 -118l-299 -156zM590 326l231 202l94 -110l-256 -165
zM606 542l196 195l100 -105l-224 -159z" />
    <glyph glyph-name="cid1109" unicode="&#x8198;" 
d="M235 8l2 114l-46 -1l4 -231h-149l13 810l241 17l69 -70l11 -755l-159 2l-9 114h23zM936 515l2 -179l-530 2l6 225l132 2l1 44l-144 3v93l539 19l1 -123l-139 2l1 -31l75 2zM939 178l2 -100l-196 -2l15 -178l-207 -8l5 102l37 1l5 82l-195 -2v115zM893 316v-111l-441 9
l2 96zM392 -46l88 114l76 -49l-58 -126zM848 -107l-58 126l76 49l88 -114zM244 583l-58 -1v-114l57 1zM189 240l50 1l2 109l-53 -1zM654 568l43 1l1 36l-46 1zM661 429h32l1 43h-35zM836 427l2 45h-28l2 -45h24zM513 431l29 -1l1 42h-29z" />
    <glyph glyph-name="cid1110" unicode="&#x8868;" 
d="M819 -112l-308 301l72 62h-65l-127 -107l67 3l-1 -122l114 9l3 -113l-300 -38l10 171l-125 -105l-105 142l246 157l-211 -2v131l313 -3l2 28l-209 3v112l217 4l2 28l-293 -2v131l301 -5l4 63h143l4 -65l300 -4v-112l-292 -4l2 -27l226 4v-132l-219 3l2 -28l322 -4v-112
l-299 -3l115 -85l132 61l80 -99l-103 -40l107 -78z" />
    <glyph glyph-name="cid1111" unicode="&#x9cd6;" 
d="M850 192l5 -189h-711l9 193l-81 21l146 165l9 -1l7 103l-13 -67l-37 10l2 -58h-114l19 249l152 3l6 112l109 -2l5 -108l104 2l55 -44l9 -212h-112l1 59l-38 -11l-11 58l5 -106h-86l93 -17l-23 -20l316 7l68 -55l-31 -37l56 1zM933 -10l4 -101l-875 13v75zM822 344l-88 76
l-85 -62l-104 81l100 55l-39 34l75 49l55 -34l93 51l75 -50l-79 -58l102 -64zM532 580l72 162l139 -30l-22 -26l203 5l-3 -92l-262 8l-46 -57zM150 625l-59 76l100 29l37 -78zM384 659l34 69l101 -30l-57 -67zM558 264l-273 -1l-26 -24l284 5zM400 526l21 -63l3 89l-57 -2
l2 -35zM680 175l-111 -1l3 -20h108v21zM203 526l33 -12l2 32l-56 -1l1 -75zM678 73v19l-95 -2l2 -19zM329 156l97 -1l3 18h-100v-17zM328 67l85 1l2 19l-87 -1v-19z" />
    <glyph glyph-name="cid1112" unicode="&#x618b;" 
d="M433 258v27l-35 -14l-22 102l7 -197h-148l8 178l-18 -83l-38 15l2 -118l-117 1l19 379l161 2l9 175l106 -2l5 -170l107 3l58 -54l10 -330l-40 -1l91 -69l-55 -76l-114 72l52 73h-76l-1 87h29zM245 -110l17 251l139 -2l14 -136l189 -5l16 93l129 -21l-6 -178zM816 157
l-75 92l-75 -93l-114 93l104 104l-63 78l87 62l57 -58l88 88l82 -69l-85 -105l105 -107zM547 516l74 217l148 -46l-27 -43l191 8l1 -119l-254 12l-38 -62zM37 -22l81 171l108 -32l-34 -187zM867 155l95 -138l-138 -77l-62 166zM153 565l-70 103l109 44l48 -107zM388 608
l45 101l109 -44l-68 -97zM216 418l29 -15l2 40l-61 -2v-108zM408 427l26 -85l1 110l-60 -3l1 -38z" />
    <glyph glyph-name="cid1113" unicode="&#x522b;" 
d="M56 159v131l119 4l34 96l127 -35l-15 -56l173 6l98 -66l-3 -334l-252 -7l-5 127l87 -1l8 143l-139 -4l-68 -282l-174 49l82 230zM954 728l-9 -825l-265 -8l9 121l89 1l-1 711h177zM569 651l4 -247l-498 -1l8 303l404 15zM624 138l2 409h117l-6 -409h-113zM408 523l2 71
l-167 -7v-62z" />
    <glyph glyph-name="cid1114" unicode="&#x762a;" 
d="M436 -109v190l-53 -18l-35 104l196 46l-152 1l9 311l145 2l13 42l151 -13l-11 -26l114 1l92 -44l6 -275h-143l188 -46l-33 -104l-50 17l14 -59l-304 -20l-2 -29l176 7v21h144l-8 -107zM947 571l-571 10q-2 -39 -6.5 -93.5t-10 -116.5t-12.5 -128t-15 -128t-16.5 -115.5
t-16.5 -91.5l-185 47q12 32 26.5 81.5t28.5 112.5l-82 -32l-43 127l158 55q15 73 27.5 146t20.5 139l-43 1l10 91l292 7l-7 52h171l-4 -48l277 8zM128 350l-85 124l108 72l66 -145zM508 106h83l-3 -32l232 24l-163 59zM545 358l215 2v20l-215 -4v-18zM762 454h-215v-18h214z
M758 289v13l-215 1v-18z" />
    <glyph glyph-name="cid1115" unicode="&#x5f6c;" 
d="M306 404l83 -92l-72 -89l-28 46l11 -376h-159l10 319l-30 -119l-84 73l89 231l31 -19l3 81l-87 4v109l91 6l5 147h107l4 -139l76 4l2 -137l-75 3l3 -77zM609 404l83 -83l-71 -90l-30 47l13 -385h-160l11 321l-31 -121l-84 73l89 231l32 -20l3 82l-87 4v109l92 6l5 147
h104l4 -140l78 5l2 -137l-77 3l3 -79zM650 -11l222 237l90 -136l-244 -200zM661 252l182 219l100 -114l-220 -195zM675 513l167 225l106 -106l-198 -202z" />
    <glyph glyph-name="cid1116" unicode="&#x658c;" 
d="M786 732l36 -216l126 7v-147h-103l53 -311l33 22l33 -120l-174 -89l-84 499l-320 2l1 116l297 14l-34 209zM277 -23l-49 82l-38 -155l-155 52l94 271l-84 142l81 59l49 -63l32 93l-162 2l5 120l86 2l-7 103h153l-4 -99l89 3l-1 -132h-40l-53 -217l115 -145zM711 262v-128
l-53 4l3 -66l65 8l4 -111l-337 -76l-21 147l28 3l6 235l85 -2l9 -222l23 3l9 286l116 -2l4 -86zM630 643l1 -97l-224 -14v123zM905 713l35 -142l-104 -16l-12 145z" />
    <glyph glyph-name="cid1117" unicode="&#x6fd2;" 
d="M388 136l12 190l127 -2l5 -109l44 34l40 -69l10 339l87 3l8 78l-103 3v104l313 14l3 -125l-95 2l-16 -71l53 2l52 -67l4 -337l-96 -4l8 284h-135l2 -188q13 56 24 119l93 -15q-8 -71 -18 -137.5t-24 -131.5l46 54l126 -122l-89 -99l-90 135q-8 -34 -18 -68t-23 -68
l-130 46q23 47 41.5 93t33.5 94l-68 2l1 36l-279 -271l-89 110l183 142h-43zM592 656l1 -106l-58 -4l3 -73l62 5l1 -135l-341 8l1 103l31 2l-4 219h96l-5 -212l23 1l10 264h115l2 -69zM251 207l-65 -322l-145 42l109 315zM153 274l-105 149l115 69l82 -165zM164 523
l-109 148l116 68l84 -164zM379 308l-22 -194l-103 17l46 190z" />
    <glyph glyph-name="cid1118" unicode="&#x6ee8;" 
d="M338 9l175 48l-201 2l5 99l59 1l8 334l503 31l17 -120l-367 -9l1 -47l386 10l2 -117l-110 1l4 -71l128 4l3 -121l-187 1l170 -46l-61 -125l-192 103l32 69l-155 1l32 -70l-192 -103zM950 608l-1 -75h-163v45l-286 -5l-1 -40h-165l4 139l221 3l-4 49h175l-6 -46l156 2z
M306 175l-94 -288l-163 63l143 272zM233 491l-169 139l105 107l147 -160zM224 247l-170 139l106 106l146 -159zM543 164l117 4l2 75l-121 1z" />
    <glyph glyph-name="cid1119" unicode="&#x5bbe;" 
d="M116 -1l211 58l-252 2l7 99l66 1l10 335l649 32l18 -120l-482 -10l1 -50l552 11l3 -117l-176 1l6 -70l193 4l3 -121l-244 1l204 -56l-72 -115l-231 111l42 60l-249 2l44 -67l-232 -106zM922 616l-3 -79h-184l-1 48l-471 -11l-1 -43l-183 3l14 142l322 6l-6 53h182l-6 -49
l239 5zM350 164l188 3l5 75l-195 1z" />
    <glyph glyph-name="cid1120" unicode="&#x6448;" 
d="M387 5l166 52l-181 2l4 99l39 1l8 334l456 31l17 -120l-328 -9l1 -48l365 11l2 -117l-111 1l4 -71l121 4l3 -121l-178 1l161 -50l-61 -121l-177 103l31 69l-136 1l32 -70l-177 -103zM292 732l-1 -155l65 3l3 -131l-69 1v-126l67 11l6 -108l-74 -22l-1 -307l-212 -10
l9 122l48 2l-1 148l-60 -17l-25 142l85 14v153l-75 1v113l74 3v163h161zM952 611l-1 -75h-154v45l-257 -5l-1 -40h-156l4 139l198 3l-4 57h175l-7 -55l133 2zM573 164l105 3l3 76h-110z" />
    <glyph glyph-name="cid1121" unicode="&#x5175;" 
d="M922 246l3 -143l-850 7l7 113l66 2l10 471l700 42l17 -141l-533 -13l2 -89l552 15l3 -143l-177 1l9 -128zM815 -129l-226 125l67 98l240 -95zM104 -1l240 95l67 -98l-226 -125zM351 231l185 5l7 134l-196 1z" />
    <glyph glyph-name="cid1122" unicode="&#x51b0;" 
d="M794 -30l-101 397l17 -473l-257 -4l7 121l59 2l25 721h136l6 -180l72 29l32 -86l83 75l81 -116l-119 -80l123 -327zM290 406l1 119l157 12l65 -99l-75 -462l-169 46l95 383zM288 320l-75 -366l-172 45l117 350zM144 408l-103 217l150 59l79 -231z" />
    <glyph glyph-name="cid1123" unicode="&#x67c4;" 
d="M807 -3l1 69l-89 -25l-20 143l-19 -143l-116 24l4 -177h-164l23 602l191 6l15 90l-221 6v109l542 21v-145l-201 6l-12 -83l136 5l75 -80l9 -538l-232 -1l-3 110zM334 408l76 -94l-70 -100l-28 53l10 -379h-167l11 347l-36 -128l-92 73l96 232l36 -20l3 76l-95 4v109l99 5
l5 149h117l3 -143l85 5l3 -138l-84 3l2 -84zM771 316l39 -135l3 195h-89l-9 -75zM562 157l37 220h-42z" />
    <glyph glyph-name="cid1124" unicode="&#x4e19;" 
d="M899 724l3 -173l-305 3l-25 -84l235 8l96 -70l12 -515l-304 -2l-2 122h122l2 132l-101 -96l-138 154l-43 -152l-170 54l8 -214l-204 2l34 564l284 9l36 89l-341 4l7 140zM573 307l160 -118l3 150l-202 -1l-27 -96zM280 156l72 181h-79z" />
    <glyph glyph-name="cid1125" unicode="&#x79c9;" 
d="M399 -112l12 232l-112 1l58 -40l-136 -193l-139 93l153 141l-93 1v97l273 -2l1 26l-341 5l2 93l345 3l1 29l-281 -1v95l286 2l2 25l-351 -2l2 115l353 -7l2 28l-319 -2l2 92l729 25l34 -112l-303 -3l1 -31l339 -6l1 -94l-337 -2v-25l176 2l92 -70l1 -53l69 1l3 -113
l-70 1l3 -123h-87l147 -135l-139 -93l-136 193l52 36l-101 1l7 -230h-201zM682 375l-97 -1l1 -27l95 1zM680 217v24l-91 1l1 -25h90z" />
    <glyph glyph-name="cid1126" unicode="&#x997c;" 
d="M934 637l2 -143l-73 1l4 -172l86 -3v-112l-83 -1l7 -314h-175l13 313l-86 -1l-12 -316l-176 8l34 306l-75 -1l3 139l88 -3l18 164l-92 2l4 114l77 3l-30 72l147 43l26 -111l77 3l26 108l147 -43l-25 -59zM226 402l37 106l-68 -8l-34 -120l-115 19l51 343l159 -31l-23 -79
l100 1l72 -74l-44 -193zM282 358l1 -293l82 12l3 -120l-246 -78l12 474zM635 333l84 -4l7 169l-84 1z" />
    <glyph glyph-name="cid1127" unicode="&#x70b3;" 
d="M41 -65q33 88 58 180t41 190.5t23.5 204.5t6.5 222l120 -5q5 -121 -3.5 -255.5t-26.5 -265.5l49 25l89 -179l18 429l195 7l18 102l-231 4v108l555 22v-140l-204 4l-13 -94l137 6l76 -78l9 -528l-237 -1l-3 100l88 1l1 82l-91 -25l-23 143l-20 -143l-123 24l4 -180h-161
l4 132l-111 -51l-41 142q-11 -65 -24.5 -123.5t-29.5 -110.5zM293 386l28 180l81 -26l-48 -171zM87 368l-46 173l80 19l25 -175zM768 318l41 -136l3 190l-94 -1l-9 -68zM544 370l4 -227l41 227h-45z" />
    <glyph glyph-name="cid1128" unicode="&#x75c5;" 
d="M930 504l2 -135l-197 2l-7 -46l148 6l70 -76l7 -365l-200 -1l-1 88l54 1l1 74l-77 -48l-36 89l-13 -89l-119 27l4 -136l-163 -4l22 425l186 5l11 51l-198 3l5 112zM943 530l-532 12q-3 -42 -8 -96.5t-11 -114t-13.5 -121.5t-15.5 -120t-16.5 -108t-17.5 -85l-198 46
q14 33 29.5 86.5t32.5 120.5l-101 -37l-45 127l180 58q13 63 25.5 126t20.5 121l-45 1l11 111l277 6l-10 71h184l-6 -68l258 7zM139 342l-93 124l116 79l74 -150zM748 185l59 -88l2 117l-97 -1l-9 -56zM556 213l4 -132l28 132h-32z" />
    <glyph glyph-name="cid1129" unicode="&#x5e76;" 
d="M885 616l4 -166l-135 2l3 -134l165 -5l6 -135l-167 -2l8 -285h-201l14 284l-185 -1l-21 -287l-200 17l38 268l-143 -1l2 166l164 -5l18 127l-145 1l7 133l172 5l-83 67l116 84l104 -117l-35 -31l210 7l-28 24l103 117l117 -84l-68 -53zM410 327l178 -4l7 131l-176 2z" />
    <glyph glyph-name="cid1130" unicode="&#x73bb;" 
d="M800 431l4 76l-39 -1l5 -105l115 1l56 -99l-134 -179l145 -134l-117 -104l-112 126l-90 -123l-110 83l-9 -85l-183 25q6 26 12.5 56t12.5 62l-297 -72l-11 157l84 10l-2 127l-70 -4l3 145l65 -2l-3 121l-65 2l3 118l285 21l4 -144h-65l-4 -124l68 -2l1 -118l-72 -4
l-3 -120l73 8l9 -95q10 63 18.5 133.5t14.5 144t10.5 148t6.5 145.5h208l5 108h133l4 -108h105l76 -66l6 -128h-146zM640 280l67 -63l68 79l-235 -11q-2 -73 -5 -142.5t-8 -135.5l98 115l-73 83zM608 401l4 101l-69 -1v-50t-1 -50h66z" />
    <glyph glyph-name="cid1131" unicode="&#x83e0;" 
d="M501 -20l98 61l-71 47l56 48l-75 -2q-5 -63 -13.5 -125t-20.5 -121l-180 21q8 26 15 53t13 56l-175 -133l-93 127l236 120l43 -64q17 88 30 183.5t20 187.5h201l4 58h137l3 -58h139l62 -59l10 -118h-157l5 58l-51 -2l3 -75l125 1l63 -99l-114 -98l130 -64l-95 -104
l-131 85l-100 -85zM431 734l-5 -56l163 5l-3 51h185l-5 -47l164 5l4 -139l-179 2l-3 -37h-151l-3 39l-183 2l-3 -50h-150l-4 52l-175 2l4 107l163 4l-4 60h185zM264 151l-197 51l59 138l183 -93zM291 312l-181 76l82 120l160 -109zM516 242h55l6 73l-58 -1zM757 141l-125 -4
l67 -33z" />
    <glyph glyph-name="cid1132" unicode="&#x64ad;" 
d="M582 258l6 138h-45l26 -24l-105 -124l-90 81l104 68l-97 1l11 97l104 2l-71 51l59 54l-82 -1l1 100l487 36l20 -127l-63 -1l66 -61l-60 -42l94 2l1 -117l-86 1l99 -63l-91 -81l-109 124l24 21l-39 1l7 -137zM941 170l-9 -279l-539 5l6 341h462zM288 721l-1 -144l70 3
l4 -131l-75 1v-127l73 12l6 -108l-80 -22l-1 -307l-212 -10l9 122l48 2v149l-64 -18l-26 142l90 14v153l-79 2v113l78 2v152h160zM758 537l70 71l-91 -1l4 -104l55 1zM582 537l-46 -39l57 2l6 104l-83 -1zM787 151l-59 -1l2 -46l56 -1zM784 -24l1 49h-51l2 -48zM549 107
l50 -1l3 42h-53v-41zM549 -20h42l3 44l-45 -1v-43z" />
    <glyph glyph-name="cid1133" unicode="&#x62e8;" 
d="M952 582l-5 -136l-291 8l-19 -70l252 3l57 -108l-124 -178l131 -109l-102 -109l-106 108l-73 -107l-133 82l103 129l-66 68l-70 -261l-163 55l170 502l-117 4l37 225l112 -22l-23 -97l28 1l56 166l118 -32l-36 -130l114 3l-43 99l90 43l67 -104l-79 -37zM299 721l-1 -144
l76 4l3 -131l-79 1v-132l68 11l15 -107l-83 -23v-302l-222 -10l9 122l54 2l-1 144l-66 -18l-26 143l92 14v157l-82 2v113l81 3v151h162zM646 249l72 -61l66 83l-179 -2l-20 -78z" />
    <glyph glyph-name="cid1134" unicode="&#x94b5;" 
d="M585 -107l2 81h-37l2 98l38 2l13 417l-190 5v110l193 6l4 108h117l3 -104l197 7v-141l-192 5l13 -405l36 2l1 -113l-33 1l3 -79h-170zM353 464l4 -137l-60 2l3 -84l77 -4v-110l-71 -2l5 -86l45 12l21 -121l-240 -56l6 245l-83 -3v136l86 -5l2 83l-67 3v109zM812 -36
l-54 491l106 16l97 -476zM379 -5l97 476l106 -16l-54 -491zM38 505l57 241l158 -54l-22 -45l148 9v-126l-204 6l-31 -63z" />
    <glyph glyph-name="cid1135" unicode="&#x6ce2;" 
d="M796 450l4 76l-64 -2l5 -114l136 1l62 -104l-145 -173l156 -133l-115 -115l-131 140l-118 -141l-105 85q-2 -23 -4.5 -43.5t-4.5 -40.5l-187 25q17 65 30 153t22.5 185.5t15.5 199.5t9 195h227l4 87h133l4 -87h138l76 -66l6 -128h-154zM307 175l-94 -288l-163 63l143 272
zM234 491l-169 139l105 107l147 -160zM224 247l-169 139l106 106l146 -159zM604 131l-96 105l65 60l-76 -2q-2 -74 -4.5 -144.5t-7.5 -136.5zM580 410l5 111l-85 -1v-54.5t-1 -55.5h81zM776 301l-170 -4l89 -76z" />
    <glyph glyph-name="cid1136" unicode="&#x535a;" 
d="M950 679l3 -118l-232 4l1 -22l129 3l77 -48l8 -302h-143v37h-58l2 -37h-176l1 39l-48 1v-40h-153l24 342l189 3l1 27l-209 3v94l213 5l3 64h133l2 -61l57 2l-9 33l137 14l2 -44zM347 554l1 -142l-78 2l19 -523h-181l14 526l-75 2v113l78 6l5 198h129l6 -188zM881 185v-34
l68 2l2 -116h-68l3 -139l-215 -9l6 103l52 1l-2 47l-237 4l152 -35l-33 -104l-180 67l28 73l-98 2v94l363 8l-1 36h160zM795 449h-69l1 -27l67 1zM513 420l56 1l1 29l-57 1v-31zM513 313l52 1l1 27l-53 1v-29zM731 315l63 1v22l-64 1z" />
    <glyph glyph-name="cid1137" unicode="&#x52c3;" 
d="M516 -86l91 510l-52 -2v139h76l31 173l123 -16l-19 -157l99 1l84 -94l-5 -563l-213 -3l7 124l46 2l27 405l-60 -3l-63 -542zM237 47l-170 -12l-7 125l203 6l52 58l-224 -10v120l357 -1l54 -76l-65 -86l90 3v-107l-141 -10l6 -161l-229 -5l4 110l67 1zM537 436l-2 -79
l-145 -3v50l-189 -8l-1 -40l-150 -2l8 152l156 4l2 41l-128 -3l-1 121l136 -2l2 56h134l3 -58l138 -1v-107l-131 -3l2 -39l119 4z" />
    <glyph glyph-name="cid1138" unicode="&#x640f;" 
d="M952 679l3 -118l-227 4l1 -21l124 2l77 -48l8 -302h-144v37h-53l2 -37h-176l1 39l-48 1v-40h-153l24 342l190 3l1 26l-210 4v94l213 5l3 64h133l2 -61l52 2l-8 33l137 14l2 -44zM284 732l-1 -155l60 3l4 -131l-65 1v-126l63 11l6 -108l-70 -21v-308l-212 -10l8 122l49 2
l-1 147l-55 -16l-26 142l81 14v154h-71v114l70 2v163h160zM885 185v-34l66 2l2 -117l-66 1l2 -139l-214 -9l5 103l52 1l-2 47l-235 4l149 -35l-33 -104l-177 67l29 73l-98 2v94l361 8l-1 36h160zM519 420l57 1l1 29l-58 1v-31zM797 449h-64l1 -27l62 1zM519 313l52 1l1 27
l-53 1v-29zM737 316h58v22l-58 1v-23z" />
    <glyph glyph-name="cid1139" unicode="&#x94c2;" 
d="M946 536l-7 -638l-495 -2l-6 729h157l25 110l156 -40l-32 -70h114zM381 464l4 -137l-71 2l4 -84l88 -4v-110l-83 -2l5 -86l58 12l22 -121l-254 -56l6 245l-85 -3v136l88 -4l2 82l-69 3v109zM53 505l57 241l158 -54l-23 -45l163 9v-126l-218 6l-31 -63zM791 502l-195 -7
l-1 -183l195 10zM788 21l1 176l-194 -2v-171z" />
    <glyph glyph-name="cid1140" unicode="&#x7b94;" 
d="M929 296l-7 -395l-526 -10l6 481h148l15 76l161 -25l-28 -51h154zM404 433l-131 69l63 64l-77 3l-54 -117l-134 29l83 272l174 -34l-21 -45l197 10v-124l-114 4l87 -61zM834 436l-130 69l59 61l-74 3l-53 -117l-135 29l84 272l173 -34l-21 -45l197 10v-124l-109 4l83 -57
zM384 31l-243 -140l-76 134l271 93zM270 127l-190 45l52 130l178 -87zM316 256l-176 91l76 109l154 -115zM755 10l1 69l-184 -6v-65zM757 257l-185 -6v-58l184 -5z" />
    <glyph glyph-name="cid1141" unicode="&#x4f2f;" 
d="M948 519l-7 -619l-524 -2l-5 710h166l31 119l157 -40l-39 -79h152zM167 -110l25 514l-52 -58l-89 72l225 317l127 -96l-161 -180h90l25 -569h-190zM787 485l-212 -7l-1 -173l212 11zM784 23l1 167l-211 -1v-163z" />
    <glyph glyph-name="cid1142" unicode="&#x5e1b;" 
d="M399 -111l13 224l-139 1l12 -183l-209 3l34 311l309 6l2 37l-277 1l11 379l230 7l23 69l180 -26l-23 -38l158 5l124 -67l9 -331l-289 1l3 -34l245 6l96 -67l12 -259l-266 -2l-2 126h76l7 55h-156l18 -224h-201zM678 405v35l-354 -9v-34zM680 565l-355 -7v-26l355 2v31z
" />
    <glyph glyph-name="cid1143" unicode="&#x8236;" 
d="M949 548l-5 -648l-467 -2l-3 730h141l25 108l149 -40l-33 -68h115zM318 -5v64l-61 -26l-32 63v-202h-139l3 297l-39 -1v136l41 -1l3 294l103 7l24 107l134 -28l-32 -72l53 4l66 -71l9 -672h-186l-3 100zM795 504l-167 -7l1 -183l165 10zM791 23l2 176l-164 -1l1 -172z
M300 483l20 -68l1 97l-95 -1l-1 -59zM257 350l-32 63v-90l94 -2l1 57zM300 166l19 -61v89l-94 -2v-58z" />
    <glyph glyph-name="cid1144" unicode="&#x8116;" 
d="M246 7l2 120h-48l4 -236h-155l14 805l257 18l66 -72l11 -752l-168 2l-7 115h24zM616 53l-202 2v109l233 4l69 58l-264 -8v120h405l57 -87l-75 -79l108 2l-1 -125l-170 2l7 -155l-251 -9l6 111l74 1zM950 442l-2 -81l-154 -3v54l-224 -8l-1 -43l-158 -3l9 154l178 5l2 44
l-156 -3l-1 125l161 -4l3 54h144l3 -59l164 -4v-103l-159 -2l3 -43l134 4zM255 580l-61 -1l1 -110l58 2zM198 245l52 2l1 103h-54z" />
    <glyph glyph-name="cid1145" unicode="&#x818a;" 
d="M242 12l1 110h-47l4 -228h-153l14 798l247 17l71 -70l12 -743l-165 2l-8 114h24zM950 678l3 -117l-212 3l1 -21l118 2l70 -47l8 -301h-131v37h-53l2 -37h-168l1 39l-42 1v-40h-140l22 341l172 3l1 26l-191 4v94l194 5l2 54h129l1 -51l52 2l-8 33l126 14l1 -45zM888 185
v-33l61 2l2 -117l-62 1l2 -140l-195 -8l5 103h48l-2 48l-222 4l138 -35l-30 -104l-164 67l25 73l-89 2v94l337 7l-1 36h147zM251 575l-61 -1l1 -114l58 2zM195 240l50 1l2 101l-54 -1zM810 449h-64l1 -27l62 1zM546 420l50 1l1 28l-51 1v-30zM546 313l46 1l1 27l-47 1v-29z
M751 316h57v21l-58 1z" />
    <glyph glyph-name="cid1146" unicode="&#x6e24;" 
d="M613 -88l71 521l-39 -2v136h57l23 167l108 -13l-14 -154l76 1l65 -97l-5 -565l-175 -3l7 116l26 1l20 421l-25 -2l-51 -547zM374 52l-124 -10l-6 121l151 6l50 60l-175 -9v120l288 -1l44 -76l-49 -89l69 3l1 -104l-106 -9l5 -159l-203 -8l4 107l49 1zM630 442l-1 -80
l-129 -2v50l-130 -9l-1 -39l-132 -2l6 152l118 4l1 34l-95 -1l-1 120l101 -1l3 56h125l3 -58l103 -1l-1 -108l-97 -3l2 -32l87 3zM237 213l-42 -321l-156 33l93 311zM143 517l-90 144l120 67l66 -167zM135 270l-90 143l121 67l65 -167z" />
    <glyph glyph-name="cid1147" unicode="&#x6cca;" 
d="M945 549l-8 -649l-568 -2l-6 730h168l27 112l167 -38l-37 -74h178zM781 23l1 185l-255 -2v-180zM784 505l-256 -7l-1 -176l256 10zM332 161l-122 -274l-155 73l172 262zM256 471l-185 150l105 106l162 -171zM246 240l-185 150l106 106l162 -171z" />
    <glyph glyph-name="cid1148" unicode="&#x9a73;" 
d="M406 358l-15 -460l-232 -3l8 101l69 1l10 253l-191 -8l23 316h122l-16 -199h35l21 234l-188 2l11 108l264 4l67 -83l-31 -266h43zM412 -4l173 169l-128 150l97 69l127 -124l129 124l97 -69l-128 -150l173 -169l-133 -108l-138 162l-136 -162zM412 496l143 75l-102 65
l48 96l180 -95l182 95l47 -96l-102 -65l144 -75l-65 -134l-206 129l-204 -129zM54 31l-6 117l166 33l11 -107z" />
    <glyph glyph-name="cid1149" unicode="&#x6355;" 
d="M953 640l3 -134l-214 4l1 -44l122 4l73 -74l8 -505h-171l-5 106h31v38l-50 1l3 -144h-170l2 146l-48 1l1 -150h-157l23 568l190 5l1 50l-215 4l5 103l213 7l3 108h136l2 -102l45 1l-15 71l128 23l7 -89zM294 733l-1 -155l68 3l4 -131l-73 1v-122l62 10l15 -107l-78 -22
l-1 -312l-221 -10l8 122l55 2l-1 153l-61 -17l-26 142l87 13v150l-77 1v113l76 3v163h164zM537 295l55 1l1 52l-56 1v-54zM538 139h50l1 53l-52 2zM804 345l-59 1l1 -48l57 1zM749 141l53 1l1 45l-55 2z" />
    <glyph glyph-name="cid1150" unicode="&#x2f18;" 
d="M596 509l176 -321l-158 -75l-135 341zM228 -113l40 850l139 -1l23 -849h-202z" />
    <glyph glyph-name="cid1150" unicode="&#x535c;" 
d="M596 509l176 -321l-158 -75l-135 341zM228 -113l40 850l139 -1l23 -849h-202z" />
    <glyph glyph-name="cid1151" unicode="&#x54fa;" 
d="M950 642l3 -134l-205 3l1 -36l118 4l73 -74l7 -514h-167l-5 106h28v44l-46 1l4 -150h-165l4 153h-40l1 -156h-157l23 578l183 4l1 43l-209 4l5 103l207 7l3 103h126l2 -97l40 1l-12 59l128 23l6 -77zM383 539l-11 -525l-325 5l1 598h266zM239 137l-3 369l-43 -7l-3 -364z
M806 355l-55 1l1 -51l53 1zM559 302l46 1l2 54l-48 1v-56zM756 146l48 1l1 49l-50 2zM560 144h42l2 58l-45 1z" />
    <glyph glyph-name="cid1152" unicode="&#x8865;" 
d="M397 81l-59 95l19 -286h-180l21 322l-67 -75l-88 127l208 192l-178 -15v129l303 -3l55 -99l-162 -178h61l4 -65l45 39l111 -94zM521 -110l26 824h129l23 -822zM815 510l141 -298l-151 -62l-95 314zM225 582l-63 117l150 44l31 -129zM350 318l65 86l86 -76l-87 -73z" />
    <glyph glyph-name="cid1153" unicode="&#x57e0;" 
d="M924 347l5 -198l-187 1l4 -46l203 6v-137l-193 6l6 -89h-190l7 93l-195 6l2 107l201 4l4 51l-187 1l11 520l136 4l13 65l173 -20l-25 -39l95 3l88 -52l6 -206l-323 2l4 -36l253 8zM356 483l1 -141l-74 2l-4 -207l83 6l5 -112l-317 -51v143l80 5l-3 224l-73 4v115l71 3
l-3 194h170l-5 -188zM760 254l3 41l-179 -2l1 -34zM732 534l3 45l-161 -3l1 -37z" />
    <glyph glyph-name="cid1154" unicode="&#x4e0d;" 
d="M910 712l3 -167l-368 3l-52 -83h79l31 -575h-202l15 452l-169 -272l-172 106l276 374l-249 3l5 135zM738 437l187 -267l-158 -98l-146 300z" />
    <glyph glyph-name="cid1155" unicode="&#x5e03;" 
d="M746 63l9 150l-94 -1l21 -324h-200l15 323h-75l13 -265l-210 3l20 225l-40 -71l-147 101l184 276l-132 1l6 133l219 5l87 132l128 -47l-45 -80l434 12l3 -162l-522 5l-81 -141l164 6l5 93h137l6 -88l181 7l95 -67l12 -340l-227 -2l-1 116h35z" />
    <glyph glyph-name="cid1156" unicode="&#x6b65;" 
d="M883 663l2 -120l-273 -10l4 -47l317 10l4 -150l-875 7l4 118l105 3l-11 203h190l-13 -198l88 2l14 251h158l5 -63zM412 150l30 177l146 -2l23 -151l241 69l45 -129l-701 -234l-122 141l453 129h-115zM338 235l-159 -145l-107 120l183 112z" />
    <glyph glyph-name="cid1157" unicode="&#x7c3f;" 
d="M565 480l1 41h131l2 -38l59 1l-10 25l137 11l4 -35l44 1l2 -88l-233 3l1 -17l131 2l76 -35l8 -236h-143v32h-59l2 -34h-172l1 36h-44v-35h-159l24 267l191 2l1 20l-208 3l5 71zM865 106v-24l66 1l3 -89l-67 1l3 -97l-205 -6l6 72l55 1l-2 32l-216 3l120 -27l-33 -80
l-161 55l21 53l-101 1l3 71l362 6l-1 27h147zM403 510l-130 60l62 47l-73 1l-57 -96l-135 20l84 212l173 -24l-20 -34l196 7v-90l-118 3l92 -54zM834 519l-130 51l62 47l-77 1l-53 -85l-135 20l84 201l173 -24l-21 -34l197 7v-90l-114 3l88 -45zM338 27l-205 -135l-69 134
l233 93zM256 154l-177 45l46 130l164 -82zM292 327l-170 73l68 106l151 -92zM707 313l1 -19h69l1 19h-71zM502 292l53 1l1 21l-54 1v-23zM713 211h63v16l-64 1zM502 209l48 1l1 21h-49v-22z" />
    <glyph glyph-name="cid1158" unicode="&#x90e8;" 
d="M752 415l42 181l-78 -9l26 -698l-180 1l14 822l269 3l113 -81l-87 -245l82 -74l-23 -325l-174 27l8 116l34 -3l14 114l-60 61v110zM517 658v-125l-109 1l90 -51l-68 -83l118 3v-130l-506 9l2 111l112 2l-73 87l95 55l-120 2v104l149 4l-9 85h178l-9 -80zM524 162
l-18 -266l-434 4v340h382zM358 6l3 124l-130 -4l-4 -115zM310 435l53 100l-147 2l55 -102l-64 -39l161 3z" />
    <glyph glyph-name="cid1159" unicode="&#x6016;" 
d="M357 578l44 -44v107l116 4l35 96l119 -36l-16 -55l291 11l2 -148l-330 6l-44 -149l50 2l4 104h128l4 -96l111 5l73 -76l7 -343l-157 -1v108h17l4 183l-50 -1l15 -364h-169l11 363h-44l6 -290l-147 2l13 213l-92 26l114 317l-59 1l39 -39l-81 -82l-44 69l22 -579h-185
l26 836h128l6 -181zM168 473l-20 -260l-100 13l43 258z" />
    <glyph glyph-name="cid1160" unicode="&#x64e6;" 
d="M357 440l67 100l-52 1l9 139l195 2l-5 53h165l-5 -51l133 3l71 -67l-1 -83h-146l-1 51l-267 -2l-1 -23l39 -23l-17 -20h60l53 -89l-96 -115l201 7l-123 199l74 48l42 -55l138 6l62 -62l-53 -136l59 -77l-111 -61l-74 117l1 -81l-241 4v60l-84 -100l-94 70l29 30l-24 20
l53 55l21 -22l16 15l-23 20l51 56l22 -24l37 39l-63 -1l-49 -56zM281 736l-1 -159l58 3l4 -131l-63 1v-126l61 11l6 -108l-68 -20l-1 -309l-208 -10l8 122l49 2l-1 148l-58 -17l-26 142l84 14v153l-73 2v113l72 2v167h157zM905 70l-185 2l13 -172l-206 -8l5 77l36 2l7 103
l-173 2v98l502 6zM540 -14l-130 -85l-55 106l147 55zM789 62l147 -55l-55 -106l-130 85zM853 444l-44 -4l28 -37z" />
    <glyph glyph-name="cid1161" unicode="&#x731c;" 
d="M775 -27v26l-188 -1l3 -110h-178l25 415l409 9l78 -61l16 -364l-247 2l6 84h76zM267 739l41 -109l51 29l42 -97l-62 -42l8 -633l-244 9l3 125l68 -10l3 142l-68 -47l-56 118l126 67l3 122l-77 -53l-59 124l124 69l-62 131zM431 457v97l164 2l-1 30l-188 1v88l184 6l-1 44
h168l-1 -40l183 6l-2 -105h-183l-1 -28l151 2l-1 -94l-153 -3l-1 -27l205 7v-112l-563 -1l3 94l206 7l-1 29zM585 74l193 2l1 26h-194v-28zM784 207l-201 -4v-25l200 3z" />
    <glyph glyph-name="cid1162" unicode="&#x88c1;" 
d="M542 563l-142 -3l3 -54l198 3l-48 210l159 5l47 -212l178 4l1 -141l-148 3l23 -105l57 57l82 -82l-105 -125l14 -61l50 11l40 -117l-207 -66l-20 86l-68 -81l-120 97l149 151l-55 238l-565 11l6 109l169 3l2 53l-140 -3v122l144 -4l2 52h144l3 -56l143 -3zM575 328
l-1 -128l-249 6l-55 -80l63 2l1 -111l66 12l15 -109l-226 -25v117l-30 -45l-112 97l128 146l-96 3l1 99l166 4l-4 51h171l-7 -45zM506 -5l-157 133l63 69l62 -40l37 37l77 -62l-34 -25l45 -28zM823 721l98 -97l-98 -79l-81 112z" />
    <glyph glyph-name="cid1163" unicode="&#x6750;" 
d="M379 430l109 -123l-86 -89l-57 93l14 -421h-183l14 396l-51 -168l-100 73l106 231l50 -25l3 73l-116 4v108l120 5l5 148h124l5 -142l102 5l4 -137l-103 4l3 -75zM876 733l5 -126l78 4l2 -150l-75 1l22 -563l-240 -9l9 126l50 2l8 447l-262 5v118l264 12l2 133h137z
M448 -76l108 515l124 -14l-56 -523z" />
    <glyph glyph-name="cid1164" unicode="&#x624d;" 
d="M765 733l8 -135l144 5l3 -172l-139 1l30 -529l-320 -10l9 142l90 2l15 397l-516 4l3 141l520 15l6 139h147zM79 24l335 372l112 -81l-284 -410z" />
    <glyph glyph-name="cid1165" unicode="&#x8d22;" 
d="M46 -81l78 258l-73 2l10 515l324 12l63 -80l3 -438l-136 -3l10 391l-148 -15l3 -197l26 87l103 -31l-93 -535zM870 733l4 -145l78 4l2 -150l-74 1l21 -544l-230 -9l9 116l40 2l8 438l-252 5v117l255 13l3 152h136zM465 -80l93 506l125 -12l-46 -513zM375 147l81 -203
l-137 -54l-51 217z" />
    <glyph glyph-name="cid1166" unicode="&#x776c;" 
d="M377 569l-6 -585l-329 -5l3 664l249 3zM741 376l2 -58l198 7l4 -141l-196 3l13 -300h-184l14 302l-192 3l3 112l195 8l3 64h140zM416 563v114l493 57l27 -151zM564 148l-36 -248l-145 35l80 235zM878 170l80 -235l-145 -35l-36 248zM484 349l-74 137l130 47l39 -152z
M761 400l48 155l122 -54l-79 -137zM639 397l-59 121l126 42l38 -130zM235 535l-54 -4v-78l54 -2v84zM182 270l52 -4v84l-52 -2v-78zM234 86v82l-51 -1v-77z" />
    <glyph glyph-name="cid1167" unicode="&#x8e29;" 
d="M377 633l-7 -268l-53 -2l2 -77l53 4l-2 -117l-47 3l5 -121l52 6v-112l-340 -44l1 122l28 3l8 239l83 1l5 -231l21 2l6 318l-130 -3l7 353h232zM742 376l2 -58l198 7l4 -141l-196 3l13 -300h-184l14 302l-192 3l3 112l195 8l3 64h140zM417 563v114l493 57l27 -151z
M565 148l-36 -253l-145 35l80 240zM879 170l80 -240l-146 -35l-35 253zM482 349l-74 137l133 47l39 -152zM762 400l48 155l122 -54l-79 -137zM637 397l-59 121l129 42l38 -130zM244 459l2 147l-49 -4l-1 -140z" />
    <glyph glyph-name="cid1168" unicode="&#x91c7;" 
d="M925 312v-156l-138 3l129 -188l-160 -79l-101 239l69 29l-139 2l15 -270h-201l18 274l-164 3l91 -38l-101 -239l-160 79l137 199l-146 2v119l352 9l5 74h143l4 -71zM243 360l-124 153l86 56l-97 -1l4 116l759 49l23 -150l-117 -3l104 -67l-125 -153l-104 73l90 147
l-217 -5l76 -119l-103 -66l-111 140l69 44l-194 -4l85 -137z" />
    <glyph glyph-name="cid1169" unicode="&#x5f69;" 
d="M464 160l117 -101l-102 -101l-70 89l5 -153h-190l8 143l-81 -122l-115 88l143 160l57 -45l4 71l-179 2l7 111l178 9l3 62h148l2 -54l155 8l4 -140l-154 1l3 -84zM82 550v112l443 57l26 -149zM568 -6l304 234l92 -154l-338 -182zM578 271l270 201l92 -135l-307 -167z
M581 516l246 214l100 -134l-277 -173zM129 339l-71 135l126 47l39 -149zM391 393l47 152l122 -54l-85 -133zM278 390l-59 119l119 40l38 -127z" />
    <glyph glyph-name="cid1170" unicode="&#x83dc;" 
d="M925 231v-131l-141 2l132 -149l-160 -62l-101 187l78 25l-148 3l15 -215h-201l18 218l-177 3l104 -34l-101 -187l-160 62l141 160l-150 2v102l353 6l4 45h143l3 -43zM258 253l-123 121l79 48l-106 -2l4 92l759 38l23 -117l-124 -2l94 -57l-122 -121l-103 57l98 120
l-213 -3l80 -94l-103 -52l-111 110l65 35l-187 -3l92 -113zM414 735l-5 -47l179 5l-3 42h186l-4 -38l165 5l3 -126l-180 2l-3 -25h-151l-3 27l-200 3l-3 -44h-152l-3 46l-176 2l4 94l165 3l-4 51h185z" />
    <glyph glyph-name="cid1171" unicode="&#x8521;" 
d="M52 402l141 161l124 -53l-18 -17l131 1l76 -91l-100 -87l219 8l-149 157l86 63l64 -57l239 11l83 -74l-89 -141l85 -74l-119 -95l-38 40v-70l-187 -3l11 -182l-273 -9l9 88l63 1l4 99l-193 -2v77l-38 -34l-112 95l47 33l-41 28l75 63l43 -37l21 15l-41 26l73 61l44 -34
l58 41l-145 -1l-62 -57zM424 731l-5 -43l159 4l-3 39h185l-4 -35l171 4l3 -130l-186 2l-3 -31h-151l-3 34l-179 2l-3 -33h-151l-3 35l-182 3l3 98l171 3l-3 48h184zM327 -12l-163 -97l-78 107l185 74zM737 72l185 -74l-78 -107l-164 97zM647 218l-287 2v55l-99 -88l498 -4
l-113 118zM788 402l-61 -3l40 -35z" />
    <glyph glyph-name="cid1172" unicode="&#x9910;" 
d="M788 231q-1 -24 -1 -41.5t-0.5 -33t-0.5 -31t-1 -35.5l85 37l45 -82l-121 -38l98 -25l-71 -104l-416 149l19 37h-78l2 -73l64 4l7 -92l-229 -17l2 319l-74 -37l-70 127q10 2 38.5 11t66.5 22l-44 47l82 46l-27 25l46 61l71 -36l90 50l-179 -4l-46 -85l-82 22l66 219
l129 -34l-28 -51l36 1l-3 137h132l-1 -35l110 1l-4 -81l-111 4l-2 -25l74 1l64 -71l-163 -123q28 9 52 17.5t42 14.5t29 10t12 5l61 -16l-34 36l69 43l-53 35l52 55l86 -37l77 48l-225 -2l3 91l324 7l43 -110l-106 -84l137 -59l-81 -102l100 -26l-62 -116l-386 151l-184 -90
l116 2l-6 40l145 1l-4 -38l127 2zM343 200v-11l304 3v21zM649 130l-1 17l-304 -8l1 -12zM704 437l-45 -36l174 -47zM667 38l70 30l-186 -2z" />
    <glyph glyph-name="cid1173" unicode="&#x53c2;" 
d="M543 667l-132 -76l205 9l-29 37l112 67l163 -166l-128 -78l186 9v-132l-98 -1l150 -93l-105 -124l-224 199l25 -107l-356 -69l-24 94l341 95l-6 5l-249 -1l-228 -215l-118 110l133 105h-95l3 98l229 9l50 40l-138 -10l-55 121l272 162zM810 60l19 -135l-658 -48l-20 95z
M733 205l17 -127l-512 -76l-18 97zM514 468l-18 -17l228 9l-36 47l-216 -16z" />
    <glyph glyph-name="cid1174" unicode="&#x8695;" 
d="M800 -128l-21 57l-701 -33l2 140l320 -7l3 36h-224l8 193l-43 -41l-104 114l84 70l-54 -1l1 134l210 -4l91 74l-216 4l1 108l686 17l1 -136l-354 5l32 -20l-57 -55l462 -6l2 -109l-66 -1l96 -77l-104 -117l-41 38l6 -184l24 8l85 -152zM429 373l147 -2l3 -48l125 3
l75 -37l-123 119l-318 -4l-91 -88l177 4zM600 26l145 -3l-8 23l64 19h-204zM663 160l3 62l-80 -1l4 -60zM338 168l74 -2l3 54h-77v-52z" />
    <glyph glyph-name="cid1175" unicode="&#x6b8b;" 
d="M959 151l-108 -54l16 -54l60 28l33 -118l-212 -67l-42 140l-197 -99l-67 140l226 87l-27 95l-178 -25l-14 131l155 16l-17 57l-127 -14l-9 132l100 6l-48 164l155 19l51 -172l228 15l8 -111l-200 -22l17 -58l171 17l13 -110l-149 -22l18 -61l105 40zM104 -64l67 168
l-71 32l65 108l48 -37l64 158l-87 -8l-44 -109l-106 34l85 298l-53 2l3 108l356 16l3 -136l-153 5l-38 -93l113 3l70 -83l-146 -517zM809 733l69 -93l-113 -62l-47 111z" />
    <glyph glyph-name="cid1176" unicode="&#x60ed;" 
d="M284 549l62 -75l13 58l-38 1v97l60 5l22 99l113 -29l-14 -61l139 11v-125l-166 1l-43 -185h28l6 125h101l4 -123l59 1v-109l-55 -7l3 -87l43 4l5 -100l-45 -9l4 -138h-145l5 115l-116 -20l-14 126l136 11l3 85l-116 -13l-25 111l26 123l-50 -51l-23 43l17 -536h-154
l22 826h106l5 -193zM801 -103l16 451h-30q-1 -62 -3.5 -124.5t-5.5 -122t-6.5 -113.5t-7.5 -99l-146 19q9 47 16 108.5t13 129t10.5 139t7.5 139.5t4.5 129.5t1.5 109.5l256 69l28 -130l-169 -26q1 -26 1 -55.5v-59.5l176 18v-132h-35l16 -450h-143zM131 440l-13 -260l-82 8
l32 258z" />
    <glyph glyph-name="cid1177" unicode="&#x60e8;" 
d="M512 144l-11 65l-49 -68l-106 85l91 104h-65l1 95l157 10l35 38l-110 -10l-36 120l180 157l109 -72l-106 -83l130 8l-26 51l80 46l126 -161l-113 -67l-17 32l-141 -14l32 -24l-10 -13l271 17v-129h-71l93 -105l-106 -85l-103 146l14 -89zM338 598l88 -84l-76 -81l-42 62
l22 -607h-177l26 845h121l6 -166zM852 51l19 -126l-438 -41l-13 83zM796 187l18 -119l-338 -55l-12 89zM158 483l-20 -261l-95 12l42 260zM525 245l208 62l-16 23h-132z" />
    <glyph glyph-name="cid1178" unicode="&#x707f;" 
d="M826 32l-4 490h129l3 -606l-492 -20l-6 626h126l-1 -496l35 1l18 703h135l19 -699zM51 -54q36 88 63 178.5t44.5 186.5t25.5 200.5t7 220.5l129 -5q2 -66 0.5 -136.5t-7 -142.5t-14.5 -144.5t-21 -141.5l68 33l105 -237l-137 -53l-47 199q-11 -60 -25 -115.5t-30 -104.5z
M319 391l28 177l95 -28l-52 -171zM92 368l-47 173l94 27l26 -175z" />
    <glyph glyph-name="cid1179" unicode="&#x82cd;" 
d="M807 243l2 -185l-297 -5l-17 94l130 1l2 36l-244 -12l11 -165l316 10l-1 24l173 7l-7 -150l-681 -2l11 383l513 25zM397 721l-4 -48l211 5l-2 43h183l-4 -40l150 4l3 -132l-164 2l-4 -39h-149l-3 40l-231 3l-4 -43h-150l-4 45l-160 2l4 103l149 3l-4 52h183zM858 258
l-353 158l-362 -158l-89 133l450 146l442 -150z" />
    <glyph glyph-name="cid1180" unicode="&#x8231;" 
d="M307 -8v67l-60 -26l-31 64v-206h-138l3 302l-39 -1v137l41 -1l4 299l101 7l24 99l132 -28l-28 -63l50 3l65 -69v-32l249 186l278 -196l-82 -133l-193 167l-196 -175l-55 96l7 -598h-183l-3 100zM887 332l1 -230l-196 -7l-12 114l59 2l1 68l-111 -14l10 -261l169 14l-1 51
l147 10l-6 -186l-470 -1l10 485l315 35zM290 487l20 -68l1 101l-94 -1l-1 -65zM290 166l18 -60v92l-92 -2v-63zM247 354l-31 63v-92l93 -2l1 58z" />
    <glyph glyph-name="cid1181" unicode="&#x4ed3;" 
d="M879 403l-371 205l-383 -204l-72 157l454 192l439 -195zM813 369l2 -244l-297 -7l-17 121l130 1l2 82l-276 -19l11 -284l348 15l-1 56l173 10l-7 -202l-714 -1l12 523l544 37z" />
    <glyph glyph-name="cid1182" unicode="&#x6ca7;" 
d="M870 342l1 -235l-227 -7l-14 117l72 2l1 68l-143 -17l9 -261l207 14l-1 46l157 9l-5 -180l-537 -1l9 489l388 36zM293 536l332 211l330 -195l-73 -140l-254 176l-249 -191zM229 492l-169 139l106 106l146 -160zM302 175l-94 -287l-163 62l143 272zM220 248l-169 138
l105 107l146 -160z" />
    <glyph glyph-name="cid1183" unicode="&#x85cf;" 
d="M715 564l19 -71l41 -1l-23 52l99 24l18 -77h43v-98l-152 -1l29 -103l43 68l85 -37l-88 -180l29 -110l49 23l35 -105l-160 -64l-30 100l-52 -106l-138 51l20 32h-190l7 409l237 1l-7 21h-245q1 -54 -0.5 -117t-6.5 -129t-13.5 -132t-20.5 -125l-158 31q17 58 31.5 118
t25.5 122h-27q-12 -112 -34 -191l-123 18q16 45 27.5 85.5t22.5 84.5l-46 -1v95l194 -1q2 9 3 18t2 17l-165 -2l15 242h113l4 -152l43 1q3 32 5.5 63t4.5 61l318 -4l-20 67zM414 731l-4 -42l178 3l-3 39h184l-5 -37l168 3l3 -99l-183 1l-2 -20h-150l-3 21l-197 2l-4 -38
h-151l-3 39l-178 2l4 79l166 2l-4 45h184zM623 249l45 -29l5 -115l28 46l-55 184v-34l-40 -1l2 -51h15zM566 150l2 31l-70 -1v-30h68zM615 38h15l31 48h-50zM496 41l30 -1l2 46h-31zM500 247l22 1l3 49h-24z" />
    <glyph glyph-name="cid1184" unicode="&#x64cd;" 
d="M285 732l-1 -155l65 3l4 -131l-70 1v-126l68 11l6 -108l-75 -22l-1 -307l-211 -10l8 122l49 2l-1 148l-60 -17l-26 142l86 14v153l-75 1v113l74 3v163h160zM570 -110l14 233l-208 2v99l213 7l3 42h135l2 -37l216 7v-123l-208 1l14 -231h-181zM849 671l4 -141h-385l8 191
l317 5zM644 446l3 -161l-263 -1l6 223l208 5zM934 446l3 -161l-263 -1l6 223l207 5zM811 -103l-47 175l107 27l88 -163zM362 -64l87 163l108 -27l-48 -175zM711 606l2 37l-103 2v-36zM532 371l2 53h-35l-1 -50zM822 371l2 53h-35l-1 -50z" />
    <glyph glyph-name="cid1185" unicode="&#x7cd9;" 
d="M349 452l5 -127l-83 2l2 -68l29 24l76 -102l-71 -81l-32 77l6 -283h-153l6 229l-25 -94l-73 60l68 200l35 -24l2 65l-85 2v105l89 5l9 284h108l6 -278zM545 500l-10 -441l428 -16l-31 -144l-431 57l-35 -65l-133 83l61 76l12 351l-41 -2l5 114zM955 493v-124l-392 7
l1 100l138 6l3 68l-60 -1l-15 -55l-82 20l37 213l105 -23l-12 -43l33 -1l3 67h120l4 -69l97 -2v-100l-91 -2l4 -65zM938 284v-212l-359 10l8 262h302zM427 545l-67 133l139 44l37 -142zM72 490l-24 152l72 15l19 -151zM276 508l20 145l72 -19l-34 -143zM804 182l3 59l-91 -4
l2 -48z" />
    <glyph glyph-name="cid1186" unicode="&#x69fd;" 
d="M345 413l75 -59l9 200h130l1 36l-151 3v86l153 4l2 50h97l1 -46l47 1l1 45h99l1 -41l150 6l2 -115l-149 3l1 -31l58 1l75 -61l8 -273l-540 -1l4 107l-57 -76l-40 49l14 -410h-173l13 372l-42 -151l-97 73l97 232l47 -23l3 77l-105 4v110l108 5l6 142h115l4 -136l81 5
l3 -138l-79 3l2 -82zM925 141l2 -251l-484 11l7 297l393 5zM782 112l-189 1v-23l188 -7zM778 -21l1 28l-186 -2v-25zM665 555h42l1 32l-44 1zM669 428l36 1l1 35h-38zM523 424l32 1l1 37h-34zM672 311h32v36h-33zM851 467l-34 -1l1 -34l33 1v34zM526 314l26 -1l1 36h-28z
M849 309v36l-28 1l2 -37h26z" />
    <glyph glyph-name="cid1187" unicode="&#x66f9;" 
d="M886 502l12 -293l-796 -1l20 354h214l2 34l-259 5l1 86l263 6l3 42h105l1 -39l102 2l2 37h105l1 -34l257 5l1 -118l-251 3l2 -27h92zM834 139l6 -247l-680 11l11 282l548 5zM648 102l-291 -2l-1 -24l291 -6zM645 -19v28l-289 -5v-21zM469 308h68l2 40l-72 1zM457 563h91
l1 30l-93 1zM463 427l80 2l1 35l-82 -1zM262 423l65 1l2 37h-68zM265 309h55l2 41l-59 1zM740 307l1 40h-58l3 -40h54zM745 466l-68 -1l2 -33l65 2z" />
    <glyph glyph-name="cid1188" unicode="&#x8349;" 
d="M399 -112l4 75l-338 3l4 105l341 5l3 44l-283 -1l26 374l581 2l114 -64l24 -310l-293 -1l3 -41l346 7l3 -127l-340 2l6 -73h-201zM425 733l-5 -51l157 4l-3 47h185l-3 -43l166 5l4 -139l-183 2l-3 -37h-151l-3 40l-176 2l-4 -42h-151l-4 44l-178 2l5 107l165 4l-3 55h185
zM673 390l-344 -5l2 -34l341 10zM668 228l1 29l-334 3l2 -30z" />
    <glyph glyph-name="cid1189" unicode="&#x5395;" 
d="M937 728l3 -145l-625 4q-1 -161 -14.5 -340t-45.5 -361l-196 47q23 77 41 154.5t32 158t24 165.5t16 177l-48 1l14 115zM670 476l5 -337h-119l16 279l-130 -5l2 -152l17 78l95 -12q-14 -120 -31.5 -226t-44.5 -209l-163 29q27 54 49.5 107.5t41.5 110.5h-81l16 390l263 1
zM924 551l-1 -646l-200 -8l8 110l55 1l-7 543h145zM688 91l7 339h64l6 -339h-77zM605 -108l-83 137l74 51l115 -104z" />
    <glyph glyph-name="cid1190" unicode="&#x7b56;" 
d="M908 443l1 -118l-331 1l2 -28l185 3l101 -51l16 -178h-237l-2 84h52l5 39h-115l15 -306h-202l18 307l-115 1l7 -125h-192l18 219l288 4l2 32h-335l1 101l340 6l3 38l138 -1l1 -34zM401 457l-131 64l63 58l-77 3l-54 -107l-134 25l83 251l174 -31l-21 -41l197 9v-114
l-114 3l87 -55zM832 457l-131 64l62 58l-77 3l-53 -107l-135 25l85 251l173 -31l-21 -41l196 9v-114l-114 3l88 -55zM79 12l260 53l30 -91l-250 -89zM878 -115l-249 89l30 91l260 -53z" />
    <glyph glyph-name="cid1191" unicode="&#x4fa7;" 
d="M689 625l5 -448h-120l17 381l-143 -7l4 -234q5 27 10 54.5t10 56.5l106 -15q-14 -140 -36 -273.5t-54 -249.5l-162 35q26 61 49 123.5t42 128.5h-84l17 510l271 1zM138 -110l26 514l-33 -50l-86 65l163 317l124 -72l-134 -207h84l25 -567h-169zM955 713l-1 -814l-210 -10
l9 128l66 1l-6 695h142zM713 123l6 396h73l5 -396h-84zM620 -110l-85 156l72 60l125 -117z" />
    <glyph glyph-name="cid1192" unicode="&#x518c;" 
d="M733 2l3 214l-57 1l-6 -334h-155l3 335l-36 1l4 -336h-187l-5 118l32 1l3 218l-57 1l-6 -338h-155l3 338l-56 1l7 134l50 1l3 359l277 15l81 -68l4 -296l39 1l3 347l278 13l80 -68l3 -283l49 2l4 -164h-51l4 -332h-185l-7 118zM338 601l-57 -1l-4 -238l58 1zM742 598
l-57 -1l-4 -224h57z" />
    <glyph glyph-name="cid1193" unicode="&#x6d4b;" 
d="M677 636l4 -442h-119l17 394l-162 -6l4 -250q7 33 12.5 66t10.5 68l111 -15q-12 -156 -37 -298t-56 -265l-169 34q28 62 52 130t44 142h-87l17 514l280 1zM950 723l-1 -819l-199 -9l8 127l56 2l-6 699h142zM288 190l-75 -303l-163 57l124 288zM698 140l5 400h81l6 -400
h-92zM567 -111l-42 223l95 34l86 -217zM215 511l-150 119l105 107l128 -141zM205 267l-150 120l106 106l127 -140z" />
    <glyph glyph-name="cid1194" unicode="&#x5c42;" 
d="M892 669l14 -226l-581 -9q-2 -68 -7 -139.5t-11.5 -141t-16 -134.5t-20.5 -119l-207 52q22 71 40.5 152.5t33.5 166t26.5 170t18.5 164.5h-45l23 104l632 22zM788 -116l-28 66l-355 -52l-41 136l93 99h-124l3 108l600 17l1 -126h-122l112 -184zM845 396l2 -107l-425 -9
l1 126zM730 553l4 53l-408 -1q1 -13 1 -26v-27zM571 39l145 14l-20 47l89 32h-143z" />
    <glyph glyph-name="cid1195" unicode="&#x8e6d;" 
d="M953 602l2 -307l-563 -7l8 376l88 1l-25 48l161 29l14 -75l71 2l14 73l161 -29l-21 -42l29 1zM375 637l-8 -272l-51 -2l3 -79l57 3l-2 -115l-51 2l6 -133l51 5v-108l-336 -44l1 121l19 2l10 251h84l5 -242l19 1l8 333l-133 -4l9 354h233zM922 196l4 -306l-504 9l8 362
l407 9zM240 458l3 151l-49 -7l-1 -141zM761 0l1 34l-177 -5v-31zM765 158l-178 -2l-1 -25l178 -6zM764 544l59 -25l1 46l-87 -2l3 -88zM557 416l-35 76l-1 -90l82 -1l1 37zM584 544l21 -66l2 83l-84 -1l-1 -42zM823 401v86l-32 -71l-49 23l1 -38h80z" />
    <glyph glyph-name="cid1196" unicode="&#x63d2;" 
d="M391 -103l6 463l169 14l6 -125l-44 -10v-53h40v-112l-38 -2l2 -60l53 3l9 395l-205 4v107l207 6l1 55l-197 -4l3 108l520 45l19 -142l-203 -4l1 -54l213 6v-134l-209 4l11 -386l58 2l1 49l-45 2v112h49l2 57l-49 -2l-3 113l123 13l60 -82l-5 -388h-555zM296 723l-1 -149
l69 3l4 -131l-74 1v-123l63 11l15 -108l-79 -22l-1 -307l-212 -10l9 122l48 2l-1 149l-64 -18l-26 142l90 15v149l-80 2v113l79 2v157h161z" />
    <glyph glyph-name="cid1197" unicode="&#x53c9;" 
d="M61 12l296 250l-208 183l98 96l231 -176l252 213l-226 -4l92 -73l-122 -100l-101 140l43 31l-319 -5l1 132l775 24l54 -168l-312 -295l324 -248l-152 -130l-297 261l-277 -261z" />
    <glyph glyph-name="cid1198" unicode="&#x832c;" 
d="M164 -112l18 197l-120 71l149 186l-137 2l4 107l224 5l56 71l140 -29l-25 -38l450 13l3 -139l-532 6l-56 -84l20 -368h-194zM390 -112l1 139l177 -7l7 85l-153 4l1 111l162 3l7 79h146l6 -76l161 4l1 -132l-152 3l6 -87l177 -7l1 -108zM425 735l-6 -56l159 3l-3 53h184
l-3 -49l167 5l3 -139l-181 2l-4 -44h-151l-4 47l-177 2l-2 -27h-151l-2 29l-180 3l4 106l167 4l-4 61h184z" />
    <glyph glyph-name="cid1199" unicode="&#x8336;" 
d="M865 195l-67 35l3 -117l-201 3l17 -217l-297 -10l9 126l85 1l6 102l-222 4l2 107l-64 -33l-83 148l451 179l442 -183zM397 734l-4 -60l211 6l-2 54h184l-4 -51l150 4l3 -144l-164 2l-4 -48h-150l-4 50l-230 3l-4 -53h-151l-4 55l-160 2l4 112l149 4l-4 64h184zM815 -111
l-126 145l86 68l159 -112zM66 -10l158 112l86 -68l-126 -145zM583 332l5 -81l166 3l-249 134l-273 -143l198 4l5 83h148z" />
    <glyph glyph-name="cid1200" unicode="&#x67e5;" 
d="M856 303l6 -271l-725 7l11 318l594 8zM399 382l14 194l-167 2l83 -50l-111 -143l-141 100l123 93l-126 2v97l347 7l4 54h138l4 -51l358 8v-124l-118 1l115 -87l-141 -100l-111 143l74 45l-164 1l20 -192h-201zM925 16v-124l-851 13v96zM668 267l-332 -2v-29l331 5z
M665 128v22l-329 3v-28z" />
    <glyph glyph-name="cid1201" unicode="&#x78b4;" 
d="M395 324l-6 -338l-255 -6l1 248l-20 -40l-79 48l103 276l-66 2l6 110l315 18l2 -136l-123 3l-61 -124h129zM916 297l4 -267l-470 5l6 323l382 8zM955 685l-1 -120l-77 1l87 -126l-114 -63l-73 160l52 30l-77 1l12 -181h-159l9 182l-81 2l59 -34l-73 -160l-113 63l90 131
l-82 2l1 94l204 7l3 61h119l4 -57zM955 14l-1 -123l-540 13l1 95zM281 86l1 196h-31l-1 -196h31zM773 270l-174 -2v-32l173 4zM771 124v26l-172 2v-31z" />
    <glyph glyph-name="cid1202" unicode="&#x643d;" 
d="M289 732l-1 -155l65 3l4 -131l-70 1v-126l68 11l5 -108l-74 -22l-1 -307l-212 -10l9 122l48 2l-1 148l-59 -17l-26 142l85 14v153l-75 1v113l75 3v163h160zM728 307l3 -69l171 6l2 -127h-167l11 -217l-223 -10l5 117l38 1l5 109h-164l2 109l168 6l4 75h145zM603 732
l-4 -61l119 5l-2 56h163l-3 -51l62 3l3 -138l-72 1l-2 -49h-142l-2 51l-130 2l-3 -53h-141l-3 56l-69 2l3 106l62 2l-3 68h164zM880 253l-222 139l-230 -144l-71 128l300 142l299 -141zM340 -37l104 138l92 -46l-65 -163zM824 -108l-65 163l92 46l103 -138z" />
    <glyph glyph-name="cid1203" unicode="&#x5bdf;" 
d="M50 427l111 114l-67 1l15 146l314 3l-7 45h181l-7 -43l222 3l105 -70l-3 -87h-182v56l-456 -4l-1 -21l62 -28l-25 -21l121 1l75 -95l-114 -95l228 11l-143 158l80 64l56 -53l227 7l98 -91l-84 -142l94 -88l-114 -93l-38 42v-67l-206 -3l12 -182l-268 -9l9 94l61 1l5 94
l-209 -3l1 100l-49 -40l-100 81l75 56l-40 30l74 67l42 -39l18 13l-39 28l72 65l43 -37l57 44l-140 -1l-78 -66zM646 229l-281 2v77l-139 -116l537 -7l-118 132zM322 -8l-167 -111l-73 103l183 80zM735 60l181 -79l-77 -100l-159 104zM797 432l-91 -5l61 -57z" />
    <glyph glyph-name="cid1204" unicode="&#x5c94;" 
d="M184 409v69l-41 -34l-93 135l271 163l96 -75l-172 -139l437 7l99 -30l-198 162l95 75l271 -163l-93 -135l-35 29l-3 -250l-293 -4l-8 112h99l10 83l-166 -2l-132 -214l-179 67l132 145zM120 -109l21 250h174l4 -119h87l19 181h149l19 -183l107 -1l2 122h177l-7 -245z" />
    <glyph glyph-name="cid1205" unicode="&#x5dee;" 
d="M61 99q25 29 49.5 61t47.5 67l-60 -1l1 130l143 -3q8 17 20 35l-79 2l3 104l139 4l22 41l-205 -2l1 133l130 -3l-22 52l168 23l16 -77l156 -3l18 80l167 -23l-26 -60l144 -3l1 -110l-410 -5q-6 -21 -14 -39l383 11v-136l-428 8l-14 -35l526 -8l1 -103l-584 -10
q-5 -8 -9 -16.5t-9 -17.5l508 -13l1 -103l-192 -3l7 -66l264 7l-1 -132l-766 9v103l310 8l7 67l-177 -4l-1 56q-18 -30 -36.5 -57.5t-36.5 -51.5z" />
    <glyph glyph-name="cid1206" unicode="&#x8be7;" 
d="M562 -102l1 215l-206 -13l-1 140l208 7v71l-165 -5l1 107l487 45l20 -137l-177 -5l-1 -71l216 8l4 -124l-223 -14l-2 -95l71 9l1 48h147l-8 -184zM369 77l7 -132l-233 -55v457l-92 -1l2 133l169 11l78 -71l3 -358zM946 584l-1 -104h-157v65l-272 -11v-67l-159 3l10 182
l203 6l-7 63h177l-6 -58l144 4zM203 534l-88 144l150 64l54 -162z" />
    <glyph glyph-name="cid1207" unicode="&#x62c6;" 
d="M660 -105l11 197l-86 32l36 104l57 -14l4 84l-104 1q-5 -111 -13 -217t-19 -192l-202 30q18 74 33 170t26.5 196.5t19 195.5t9.5 167l442 82l41 -153l-336 -32q1 -30 1.5 -61.5t0.5 -64.5l365 20l2 -145l-114 1l9 -123l106 -26l-41 -139l-56 20l9 -133h-201zM306 725
l-1 -138l70 3l3 -131l-73 1v-129l63 9l15 -107l-78 -22v-310l-220 -10l8 122l54 2l-1 153l-70 -19l-25 142l95 14v157l-85 2v113l84 4v144h161z" />
    <glyph glyph-name="cid1208" unicode="&#x67f4;" 
d="M930 254l-1 -136h-142l128 -97l-140 -122l-132 164l75 55h-139l21 -229h-201l15 230h-127l76 -56l-131 -164l-141 122l130 98l-152 1v106l352 11l4 60h138l4 -55zM499 654l5 -105l-71 -4l4 -111l72 8l1 -121l-430 -32l1 103l28 3l-9 273l144 1l-8 -259l32 4l13 318l146 1
l3 -79h69zM533 315l1 419l162 1l-1 -100l185 62l39 -121l-225 -57v-94l73 3l6 72l143 -18l-23 -180z" />
    <glyph glyph-name="cid1209" unicode="&#x8c7a;" 
d="M870 733l5 -144l81 4l2 -150h-77l21 -544l-230 -8l8 115l41 2l8 438l-259 5v118l262 12l3 152h135zM462 405l-87 -34l48 -95l13 -383l-246 -2l3 93l82 1l3 49l-178 -67l-35 88l221 113l2 22l-194 -74l-35 88l200 100l-14 18l-155 -60l-39 88l363 176zM459 -79l93 505
l126 -11l-47 -513zM412 635l-331 -116l-39 84l315 145zM140 415l-46 76l110 50l25 -83zM280 478l-44 76l107 45l26 -79z" />
    <glyph glyph-name="cid1210" unicode="&#x6400;" 
d="M365 592l99 154l147 -34l-26 -29l201 6l55 -76l-50 -46l63 2l70 -55l5 -172h-221l-28 -23l106 4l-7 -65l57 2v32h121v-125l-320 5l-2 110l-145 -119l-117 86l152 92l-142 -1l9 218l52 1zM289 728l-1 -153l64 3l4 -131l-69 1v-124l67 11l5 -107l-73 -21l-1 -309l-212 -10
l9 122l48 2l-1 149l-60 -18l-26 142l86 14v151l-76 2v113l76 3v160h160zM874 -118l-476 59l18 91l482 -30zM811 26l-343 36l18 90l343 -11zM663 596h-154l-32 -36l159 4zM789 426l2 51l-63 -1l3 -51zM525 424h57l3 51l-62 -1z" />
    <glyph glyph-name="cid1211" unicode="&#x63ba;" 
d="M286 716l-1 -148l64 3l4 -131l-69 1v-139l57 10l8 -57l72 74h-51l1 95l152 10l40 40l-125 -12l-37 120l174 157l113 -72l-100 -83l141 9l-27 51l85 44l127 -160l-116 -66l-19 34l-129 -12l31 -21l-15 -21l270 18v-130h-59l82 -85l-109 -84l-122 168h-148l-70 -91l226 66
l23 -108l-245 -54l-15 81l-50 -67l-97 79l5 -30l-74 -21l-1 -286l-210 -10l9 122l47 2v126l-62 -18l-26 143l87 14v166l-76 2v113l75 3v155h160zM855 39l17 -117l-439 -38l-14 83zM795 173l18 -110l-336 -55l-13 90z" />
    <glyph glyph-name="cid1212" unicode="&#x8749;" 
d="M928 566l4 -378l-178 -1l1 -58l196 5l2 -134l-195 4l3 -113h-174l5 117l-185 4v108l191 5l3 61h-173l7 453l70 2l-30 64l149 36l20 -95l72 2l20 93l149 -36l-31 -65zM47 -86v146l118 13l-1 116l-117 2l5 381h107l-1 152h129l-3 -152h54l59 -68l-6 -318l-112 1l-1 -102
l20 2l-3 53l77 14l36 -222l-99 -13l-5 64zM301 275l6 206l-24 -1l-2 -205h20zM140 280l23 -1l-3 197h-20v-196zM798 529l-54 -2l2 -57h51zM562 471h51l2 53l-52 -1zM796 309v49l-47 -2l1 -49zM562 300l43 2l2 50l-45 -2v-50z" />
    <glyph glyph-name="cid1213" unicode="&#x998b;" 
d="M381 592l97 154l145 -34l-24 -29l191 6l55 -76l-50 -46l59 1l69 -54l5 -172l-219 -2l-28 -21l97 3l-6 -65l63 2v32h121v-125l-316 5l-2 112l-138 -114l-137 70l166 101h-130l8 218l52 1zM214 400l35 107l-62 -8l-32 -121l-112 19l48 345l154 -31l-21 -80l92 1l68 -74
l-42 -194zM267 356l1 -292l78 12l3 -121l-234 -78l12 474zM874 -115l-470 59l18 92l476 -31zM812 28l-339 36l17 89l340 -10zM669 596h-146l-32 -36l151 4zM790 426l2 51l-57 -1l2 -51zM539 424h51l4 50l-57 -1z" />
    <glyph glyph-name="cid1214" unicode="&#x8c17;" 
d="M346 586l103 153l153 -35l-27 -28l221 7l48 -76l-51 -45l53 1l72 -54l6 -170l-240 -2l-28 -23l111 5l-7 -64l66 2v31h126v-124l-333 6l-2 113l-197 -158l-93 112l168 99h-130l9 216l54 1zM349 80l8 -132l-233 -58v457l-77 -1l3 133l153 11l78 -72l3 -357zM870 -114
l-485 57l19 92l491 -30zM805 32l-338 31l19 89l337 -6zM184 534l-88 144l150 63l54 -161zM659 589l-164 1l-33 -36l169 4zM777 421l2 52l-61 -1l4 -52zM512 419h54l4 51l-60 -1z" />
    <glyph glyph-name="cid1215" unicode="&#x7f20;" 
d="M547 56v83l121 3l2 42l-124 2l3 336h335l47 -58l-4 -282l-121 1l2 -37l122 4v-106l-117 4l1 -43l138 -3v-92l-427 -12l1 115l136 -4l2 43zM951 551l-428 3q0 -73 -2 -159.5t-6 -175t-10 -173t-14 -154.5l-172 25l12 68l-246 -73l-18 136l262 50l7 -84q20 128 37.5 269.5
t27.5 271.5l-37 1l16 104l225 7l-5 55h164l-5 -49l192 7v-129zM302 696l-117 -210l44 1l36 60l96 -46l-117 -250l84 6l6 -108l-229 -36l-38 104l93 155l-82 -6l-31 119l155 255zM831 435l-37 -1l2 -38l34 2zM829 271v41l-29 1l2 -42h27zM649 390l29 1l2 39l-31 -1v-39z
M649 275l25 -1l1 41l-26 1v-41z" />
    <glyph glyph-name="cid1216" unicode="&#x94f2;" 
d="M952 671v-137l-137 3l84 -60l-59 -62l110 4l2 -133l-363 3q-3 -228 -30 -403l-180 27q14 47 25.5 92t20.5 91t15.5 93.5t12.5 100.5l-43 1l14 112l119 3l-67 71l90 65l-143 4l1 102l184 7l-6 65h172l-6 -57zM387 247v-110l-77 -2l4 -66l44 12l23 -121l-235 -56l5 225
l-81 -3v136l84 -5l2 83l-65 3v109l271 18l4 -137l-66 2l4 -85zM48 505l57 241l152 -54l-22 -42l154 9v-125l-210 5l-34 -66zM717 439l56 99l-172 4l57 -103l-47 -31l146 5z" />
    <glyph glyph-name="cid1217" unicode="&#x4ea7;" 
d="M934 678v-141l-195 3l63 -51l-63 -55l166 7l3 -129l-566 -11q-10 -127 -27.5 -234t-41.5 -196l-207 63q23 47 41.5 91t34 87.5t28.5 89t25 96.5l-43 -1l4 113l174 7l-72 66l76 62l-214 3l1 106l317 10l-8 70h194l-6 -65zM593 470l66 70l-268 4l75 -80l-50 -43l225 8z" />
    <glyph glyph-name="cid1218" unicode="&#x9610;" 
d="M723 418l3 -257l-155 -1l2 -32l152 5l2 -112l-148 3l5 -85h-168l5 88l-148 3v88l154 5l2 36h-155l7 319l68 2l-23 53l136 19l13 -69l46 1l18 68l135 -19l-20 -46l15 1zM745 -12l11 591h-365v108l431 7l88 -82l19 -722l-259 -1l-4 98zM257 -104h-186l28 576l136 1z
M238 519l-154 110l117 114l132 -139zM617 398l-58 -1l2 -32h55zM615 250v33l-50 -1l1 -33zM392 244l41 1l2 33l-43 -1v-33zM392 366h48l2 29l-50 -1v-28z" />
    <glyph glyph-name="cid1219" unicode="&#x98a4;" 
d="M941 713l3 -134l-125 2l-19 -59l72 2l64 -65l6 -325l-122 -4l10 260h-173l4 -190q10 32 17.5 63t15.5 66l112 -15q-15 -115 -39 -221.5t-71 -209.5l-160 46q32 50 56 98t44 99l-97 2l14 386l108 3l11 66l-130 2v113zM492 510l8 -229l-441 -1l9 294l368 -1zM482 202
l7 -192l-418 -1l8 256l347 -1zM514 698l1 -106l-471 9v85l156 4l-3 45h165l-4 -40zM515 -11v-83l-471 -12l1 97zM371 357l3 138l-189 -1l4 -135zM860 -116l-100 128l74 76l122 -108zM358 451l-3 -80l-154 2l3 111h120zM354 186l-147 -1l1 -22l145 3zM351 86v19l-140 2l1 -19
zM291 420l2 19h-25v-17z" />
    <glyph glyph-name="cid1220" unicode="&#x660c;" 
d="M901 253l6 -360l-815 12l13 398l681 15zM839 657l6 -323l-691 12l12 361l559 18zM712 17l2 39l-427 -5l1 -31zM720 190h-437l1 -27l434 -8zM660 612l-316 -1l1 -31l313 -6zM651 441l2 38l-304 -5l1 -30z" />
    <glyph glyph-name="cid1221" unicode="&#x7316;" 
d="M946 211l9 -316l-572 -2l17 396l464 3zM903 636l12 -316l-492 -2l17 395l381 3zM266 739l42 -111l55 31l42 -97l-67 -45l8 -630l-244 9l3 125l68 -10l3 142l-68 -47l-56 118l126 67l3 121l-77 -52l-59 124l125 68l-63 132zM785 8l1 38l-234 2l1 -37zM791 184l-243 -8
l1 -36l241 9zM745 431l1 40l-154 1l1 -38zM751 607l-163 -7l1 -34l161 5z" />
    <glyph glyph-name="cid1222" unicode="&#x573a;" 
d="M787 13l15 321l-380 -15l-4 132l225 155l-233 -13l4 128l418 11l56 -123l-229 -154l204 9l86 -75l3 -492l-200 -4l5 116zM366 472l1 -142l-83 4l-4 -203l93 5l4 -112l-330 -51v143l86 5l-4 220l-77 3v115l76 3l-3 209h168l-5 -203zM757 275l-26 -382l-166 19l75 380z
M590 282l-60 -360l-159 33l99 348z" />
    <glyph glyph-name="cid1223" unicode="&#x5c1d;" 
d="M743 -129l-43 69l-496 -55l-56 140l-2 1l139 101h-212l4 111l849 18v-130h-176l149 -167zM922 515l-3 -107l-157 -4l-1 65l-526 -13l-1 -65l-157 4l5 181l152 2l-86 66l102 93l110 -115l-50 -43l94 1l21 161l150 -2l16 -158l92 1l-44 40l109 115l103 -93l-79 -60l79 1z
M740 414l2 -111l-486 -9l1 130zM401 30l235 16l-23 39l98 41h-209z" />
    <glyph glyph-name="cid1224" unicode="&#x5e38;" 
d="M399 -111l13 206h-93l8 -157l-210 4l34 259l268 8l2 38h-171l12 188l371 19l110 -65l6 -138l-183 -2l4 -35l204 7l96 -68l12 -212l-267 -1l-2 108l76 1l8 46h-116l19 -206h-201zM916 512l-3 -104l-151 -3l-1 78l-526 -8l-1 -83l-151 3l6 192l139 2l-70 57l103 93
l100 -109l-43 -41l94 2l13 143l150 -2l14 -139l91 1l-38 36l100 109l104 -93l-62 -50l58 1zM582 325l3 39l-171 -6l1 -30z" />
    <glyph glyph-name="cid1225" unicode="&#x957f;" 
d="M361 726l6 -312l565 15l3 -139l-321 4l301 -270l-131 -129l-308 348l58 52l-165 2l5 -263l152 25l14 -124l-348 -43l6 407l-134 2l4 107l132 3l5 315h156zM446 545l341 163l70 -131l-351 -137z" />
    <glyph glyph-name="cid1226" unicode="&#x507f;" 
d="M827 -116l-22 52l-380 -47l-42 136l88 93h-117l3 102l602 17v-120h-320l-66 -92l189 9l-14 35l94 43l106 -159zM141 -107l24 492l-39 -48l-85 73l204 319l122 -99l-149 -181h80l23 -556h-180zM956 487l-2 -78l-150 -3l-1 51l-295 -7l-1 -45l-150 4l3 149l98 1l-76 85
l108 79l74 -118l-65 -45l78 1l14 160l134 -2l12 -156h69l-59 42l74 118l107 -79l-71 -81l42 1zM870 381l2 -101l-431 -9v120z" />
    <glyph glyph-name="cid1227" unicode="&#x80a0;" 
d="M621 269l-89 -315l-122 41l2 -103l-177 2l-8 114h32l2 118h-59l3 -235h-156l13 809l272 18l66 -71l9 -607l102 260zM792 9l13 319l-359 -16l-5 131l212 149l-221 -13l4 128l402 10l51 -121l-213 -148l191 9l81 -74l3 -489l-202 -3l5 115zM776 266l-70 -378l-149 30
l106 374zM267 584l-71 -1l1 -118l68 2zM200 245l62 2l1 100h-64z" />
    <glyph glyph-name="cid1228" unicode="&#x2f1a;" 
d="M934 730l3 -148l-614 5q-1 -80 -4.5 -166t-10.5 -176t-18 -181.5t-27 -181.5l-201 46q46 154 73 316t40 344l-57 1l14 117z" />
    <glyph glyph-name="cid1228" unicode="&#x5382;" 
d="M934 730l3 -148l-614 5q-1 -80 -4.5 -166t-10.5 -176t-18 -181.5t-27 -181.5l-201 46q46 154 73 316t40 344l-57 1l14 117z" />
    <glyph glyph-name="cid1229" unicode="&#x655e;" 
d="M409 3l3 361l-219 -2v-467h-147l19 578l159 7l13 244l126 -2l10 -234l99 6l72 -80l6 -519l-223 -1l7 108zM822 -112l-62 112l-39 -114l-156 65l98 224l-93 169l98 65l59 -88l74 167l113 -41l-92 -267l132 -194zM547 454l88 287l148 -54l-26 -53l186 10l-1 -135l-243 4
l-45 -95zM394 267l2 -229h-190l7 277l129 16zM108 505l-61 160l119 40l36 -172zM395 533l36 172l118 -40l-60 -160zM314 130l2 99l-27 -6v-91z" />
    <glyph glyph-name="cid1230" unicode="&#x7545;" 
d="M454 551l6 -498l-138 -4l3 -161l-149 1l3 157l-132 -3l12 557l133 11l3 122l118 1l1 -111l67 5zM794 12l14 318l-317 -15l-3 131l196 151l-196 -12l4 130l363 10l52 -121l-197 -153l162 8l78 -82l3 -480l-187 -4l6 117zM779 277l-34 -384l-140 19l70 379zM637 279
l-54 -358l-140 23l89 357zM350 497l-34 -2l2 -108l31 -2zM155 394l32 -1l2 97l-34 -1v-95zM347 170l1 103l-29 -1l1 -102h27zM154 174l28 -1l3 95l-31 -1v-93z" />
    <glyph glyph-name="cid1231" unicode="&#x5531;" 
d="M942 217l9 -326l-556 -2l17 406l448 3zM384 539l-11 -525l-325 5l1 598h266zM906 649l12 -323l-486 -2l17 401l384 3zM240 137l-3 369l-43 -7l-3 -364zM781 4l1 41l-218 3l1 -41zM787 188l-227 -7l1 -39l225 8zM754 619l-157 -8l1 -37l155 7zM748 438l1 39l-148 2l1 -38z
" />
    <glyph glyph-name="cid1232" unicode="&#x5021;" 
d="M947 208l10 -315l-584 -2l17 394l476 3zM905 634l12 -318l-504 -2l17 395l393 3zM158 -110l26 512l-53 -56l-89 72l229 317l120 -108l-155 -168h87l25 -569h-190zM793 179l-255 -8l1 -36l253 10zM787 6l1 32l-246 4l1 -33zM747 428l1 37l-166 2l1 -36zM753 603l-175 -8
l1 -33l173 7z" />
    <glyph glyph-name="cid1233" unicode="&#x8d85;" 
d="M219 240l-8 -155l28 -2l14 223l-164 -6l3 122l112 -1l5 90l-97 1l2 98l101 7l8 116l123 -1l6 -107l100 7v-124l-94 1l5 -89l113 -1l2 -105l-87 -3l3 -66l85 12l1 -122h-82l3 -65l537 -41l-37 -152l-696 97l-3 -81l-140 19l64 339zM930 308l1 -229l-422 5l11 296h342z
M507 439l66 160h-64l-2 107l343 2l78 -54l7 -247l-221 -1l5 96h51l13 102l-68 -2l-54 -201zM773 189l2 81l-105 -7l5 -68z" />
    <glyph glyph-name="cid1234" unicode="&#x6284;" 
d="M300 733v-147l79 4l4 -131l-83 1v-131l73 11l15 -107l-88 -24v-311l-229 -10l8 122l62 2l-1 155l-71 -19l-26 143l97 14v157l-87 2v113l86 3v153h161zM467 -120l-77 145l510 229l56 -112zM738 735l18 -520h-170l18 520h134zM390 296l74 339l109 -19l-38 -347zM810 303
l-38 313l109 19l74 -305z" />
    <glyph glyph-name="cid1235" unicode="&#x949e;" 
d="M370 464l4 -137l-72 2l4 -84l89 -4v-110l-83 -2l5 -86l58 12l21 -121l-253 -56l5 245l-84 -3v136l87 -4l2 82l-68 3v109zM480 -118l-77 145l499 229l56 -112zM745 721l18 -506h-170l17 506h135zM42 505l57 241l158 -54l-23 -45l162 9v-126l-217 6l-31 -63zM401 296
l74 325l105 -19l-38 -333zM816 303l-38 299l105 19l74 -291z" />
    <glyph glyph-name="cid1236" unicode="&#x671d;" 
d="M789 12l2 108l-91 -1l4 -227h-171l16 801l315 17l79 -73l12 -744l-200 2l-12 117h46zM193 -112l5 94l-154 1l5 105l155 4l1 51l-140 1l5 368h144l-3 46l-153 1v110l147 6l-4 62h171l-4 -56l135 5l4 -128h-146l-3 -46h79l69 -68l-7 -301h-137l3 -47l146 5l2 -122l-139 1
l7 -92h-188zM798 576l-104 -1l2 -110l100 3zM699 238l94 2l1 107l-96 -1zM355 243v41l-138 1v-39zM357 412l-140 -6v-39l139 5z" />
    <glyph glyph-name="cid1237" unicode="&#x5632;" 
d="M828 4v126l-37 1l3 -233h-139l18 796l208 7l65 -67l9 -738l-145 2l3 106h15zM417 -104l4 87l-89 1l4 105l90 4l2 55l-90 2l2 352h90l-1 54l-89 1v104l86 5l-2 70h133l-3 -63l80 5l2 -123h-88l-1 -53h47l46 -66l-5 -291l-87 1l3 -47l92 5l1 -122l-86 1l6 -87h-147z
M318 542l-4 -528l-265 -12l-4 621l202 -3zM197 106l1 412l-35 -3l-1 -407zM828 586l-42 -1l1 -145h41v146zM790 229h38v114l-40 1zM524 402l-70 -5v-35l69 2zM522 245v33l-68 2v-32z" />
    <glyph glyph-name="cid1238" unicode="&#x6f6e;" 
d="M819 1v129l-44 1l3 -235h-146l19 801l224 7l70 -65l8 -745l-158 2l3 105h21zM376 -106l3 86l-101 1l3 105l103 4l3 55l-97 1l3 350h96l-2 53l-94 1v103l91 5l-2 68h141l-3 -62l90 5l2 -122l-98 1l-3 -52h57l48 -65l-5 -289l-98 1l4 -47l97 5l1 -123l-90 1l5 -85h-154z
M273 204l-67 -320l-160 33l115 311zM166 515l-97 146l130 70l69 -164zM148 263l-95 148l129 68l70 -162zM819 590l-48 -1l1 -136h47v137zM775 228h44v127l-46 1zM494 397l-80 -5v-36l79 3zM491 241v33l-77 2v-33z" />
    <glyph glyph-name="cid1239" unicode="&#x5de2;" 
d="M392 -111l12 179l-103 2l63 -51l-157 -140l-112 109l126 84l-151 3v102l343 4l1 24l-287 -1l11 314l80 2l-124 93l184 135l83 -79l-81 -58l80 -58l-39 -31l132 3q-25 20 -49 40.5t-54 43.5l174 135l83 -79l-82 -58l81 -57l-26 -22l127 3q-23 18 -45.5 37t-50.5 40
l174 134l84 -78l-81 -58l80 -58l-60 -48l75 -59l6 -235l-290 -1l2 -22l326 4l2 -128l-115 2l99 -73l-116 -105l-148 142l48 38l-88 2l14 -176h-231zM719 431l-136 -2l2 -29h133zM717 304v26l-127 -3l2 -25zM310 401l119 -1l2 27l-121 -1v-25zM310 295l111 2l2 26l-113 -2
v-26z" />
    <glyph glyph-name="cid1240" unicode="&#x5435;" 
d="M815 303l-38 313l100 19l74 -305zM483 -112l-77 146l490 229l56 -113zM406 296l74 339l100 -19l-38 -347zM744 736l18 -521h-170l17 521h135zM242 128l-3 368l-42 -6l-3 -364zM390 530l-12 -526l-331 6l1 597h272z" />
    <glyph glyph-name="cid1241" unicode="&#x7092;" 
d="M45 -54q36 88 62.5 178.5t44 186.5t25.5 200.5t7 220.5l126 -5q4 -121 -5 -257t-29 -266l58 33l86 -183l-125 -63l-33 135q-12 -67 -26.5 -127.5t-31.5 -114.5zM487 -119l-74 145l494 222l54 -113zM749 726l19 -518h-165l18 518h128zM413 290l72 333l100 -19l-37 -341z
M824 298l-36 306l100 19l72 -298zM309 391l29 177l94 -28l-53 -171zM87 368l-48 173l92 27l27 -176z" />
    <glyph glyph-name="cid1242" unicode="&#x8f66;" 
d="M918 160l5 -150l-294 2l8 -122h-202l6 123l-367 1v124l375 10l3 71l-317 -6l-33 107l96 185l-118 1v124l185 4l53 101l173 -28l-36 -69l466 10l5 -149l-540 4l-78 -151l151 4l6 112h138l5 -108l252 6v-139l-243 -5l4 -70z" />
    <glyph glyph-name="cid1243" unicode="&#x626f;" 
d="M939 491v-129l-120 -4l11 -323l119 -1v-133l-575 -6v148l67 -1l-8 504l160 2l-8 -509l58 -1l20 696h144l7 -243h125zM308 728l-1 -150l80 4l4 -131l-84 1v-129l73 12l15 -108l-88 -23v-306l-224 -10l8 122l57 2v150l-72 -19l-25 142l97 15v153l-87 2v113l86 3v157h161z
" />
    <glyph glyph-name="cid1244" unicode="&#x64a4;" 
d="M303 219l-59 -14v-306l-188 -10l7 119l41 2l-1 160l-51 -12l-18 136l69 8v152l-57 1v109l56 3v151h143l-1 -144l55 3l3 -126l-58 1v-135l47 4zM498 -16l1 33h-55l2 -118h-136l19 448l236 6l55 -70l11 -385l-160 2v84h27zM851 -110l-50 123l-33 -123l-131 37l89 271
l-72 179l81 39l39 -75l54 166l98 -35l-75 -278l114 -219zM541 720l-3 -49l85 4v-115l-140 2l-34 -91l58 8l-8 49l88 20l50 -159l-111 -27l-5 25l-174 -20l-31 102l40 96l-40 1v97l84 2l-3 55h144zM631 453l54 281l143 -35l-23 -58l138 12l4 -126l-186 3l-41 -103zM505 246
l-65 -1v-38l64 1zM442 93l59 2l1 35h-60v-37z" />
    <glyph glyph-name="cid1245" unicode="&#x63a3;" 
d="M109 222l1 70l778 26l-1 -98h-302l2 -24l271 1v-73l-265 -9l2 -20l331 10l1 -110l-325 2l8 -106h-303l11 87l87 2l2 19l-335 1v80l344 10l2 21l-276 -9v94h285l3 25zM555 696v-87l-142 1l1 -26l179 -3l1 -73l-174 -2l1 -15l101 2l63 -48l9 -110h-145l-4 62h23l3 20h-45
l7 -99l-176 -2l4 100h-37l7 -81h-136l13 150l155 3l1 17l-183 -2v86l83 -1l-84 31l69 118l94 -21l-10 -27l39 1l2 44h131l3 -41zM910 731l-8 -396l-237 -4l6 89l67 1l-1 310h173zM617 460l1 219h100l-6 -220zM195 588l72 -2l1 26l-63 1z" />
    <glyph glyph-name="cid1246" unicode="&#x5f7b;" 
d="M583 -102l77 672l-53 -3v131l283 1l67 -94l-5 -699l-187 -4l6 119l28 1l22 556l-38 -2l-46 -687zM527 719l2 -190l63 4v-136l-61 3l5 -268l41 17l2 -132l-199 -71l15 459l-58 3v109l60 4l7 198h123zM123 -104l21 374l-41 -32l-60 86l189 194l92 -104l-141 -112h92
l22 -406h-174zM324 639l-213 -160l-68 89l201 175z" />
    <glyph glyph-name="cid1247" unicode="&#x6f88;" 
d="M471 -18l1 32h-57l2 -120h-141l20 451l245 6l57 -70l12 -388l-166 2l-1 87h28zM838 -115l-51 122l-34 -122l-137 37l94 270l-76 183l84 39l40 -80l56 160l102 -36l-79 -275l121 -230zM511 724l-4 -53l94 4v-116l-149 2l-36 -92l64 9l-8 49l93 20l51 -160l-116 -27l-5 26
l-184 -21l-33 102l41 97l-47 1v98l95 3l-5 58h149zM610 460l56 274l147 -35l-26 -69l147 14l5 -128l-194 4l-31 -85zM273 210l-78 -320l-154 50l124 305zM158 524l-103 147l125 68l77 -163zM147 277l-99 148l123 67l75 -163zM478 244l-66 -1v-39l65 2zM414 90l60 2l1 34h-61
v-36z" />
    <glyph glyph-name="cid1248" unicode="&#x90f4;" 
d="M399 -112l15 433l-34 -232l-88 40l39 150l-38 -59l-27 58l12 -390h-159l13 377l-34 -162l-67 73l76 230l30 -25l3 80l-74 1v109l78 7l5 155h104l4 -144l52 5l3 -135h-51l2 -89l19 31l60 -81l23 86l50 -31l3 86l-86 1v109l90 7l6 155h103l4 -147l91 8l2 -135l-89 1l3 -84
l50 30l56 -216l7 523l221 2l92 -80l-66 -242l63 -75l-19 -317l-139 28l7 113l26 -5l11 119l-47 52v110l32 178l-59 -8l20 -700l-153 1l3 232l-71 -32l-32 224l12 -425h-157z" />
    <glyph glyph-name="cid1249" unicode="&#x2f82;" 
d="M924 -93l-848 -1l27 809l821 -1v-141l-278 -4l10 -84h128l90 -87l15 -262l-244 -1l9 -84l270 -2v-142zM695 267l4 89l-423 -4l1 -84zM273 484h202l10 83l-213 -1zM281 54l196 -1l10 82h-208z" />
    <glyph glyph-name="cid1249" unicode="&#x81e3;" 
d="M924 -93l-848 -1l27 809l821 -1v-141l-278 -4l10 -84h128l90 -87l15 -262l-244 -1l9 -84l270 -2v-142zM695 267l4 89l-423 -4l1 -84zM273 484h202l10 83l-213 -1zM281 54l196 -1l10 82h-208z" />
    <glyph glyph-name="cid1250" unicode="&#x2fa0;" 
d="M925 583l-626 2q-2 -137 -9 -264l625 18l1 -142l-388 5l1 -176l95 9l7 -122l-275 -23l1 315h-75q-7 -90 -16.5 -168.5t-21.5 -142.5l-194 41q19 68 34.5 146t28 161.5t22 170t16.5 172.5h-34l12 116l795 28zM351 524l485 -6v-123l-487 -9zM860 -106l-272 201l65 89
l118 -62l35 61l121 -66l-45 -54l67 -35z" />
    <glyph glyph-name="cid1250" unicode="&#x8fb0;" 
d="M925 583l-626 2q-2 -137 -9 -264l625 18l1 -142l-388 5l1 -176l95 9l7 -122l-275 -23l1 315h-75q-7 -90 -16.5 -168.5t-21.5 -142.5l-194 41q19 68 34.5 146t28 161.5t22 170t16.5 172.5h-34l12 116l795 28zM351 524l485 -6v-123l-487 -9zM860 -106l-272 201l65 89
l118 -62l35 61l121 -66l-45 -54l67 -35z" />
    <glyph glyph-name="cid1251" unicode="&#x5c18;" 
d="M145 119l2 123l265 5l10 92l165 2l12 -91l261 6l3 -153l-247 6l8 -71l299 -9v-124l-841 -14l2 165l306 -10l7 68zM387 382l48 355l145 -2l42 -353h-235zM714 662l214 -164l-113 -131l-190 199zM376 571l-198 -204l-107 120l220 175z" />
    <glyph glyph-name="cid1252" unicode="&#x6668;" 
d="M881 -117l-267 117l37 66l122 -35l29 41l-275 3l1 -96l66 4l7 -82l-246 -16l1 191l-78 1q-8 -54 -17.5 -101.5t-20.5 -85.5l-191 41q35 81 62 177t41 200h-37l11 89l796 17l1 -108l-627 1q-2 -77 -9 -147l626 11l1 -99h-81l84 -39l-36 -33l70 -20zM854 684l6 -253l-677 2
l12 291l545 12zM349 284l486 -3v-86l-487 -6zM668 524l1 21l-294 -3l1 -23zM677 640h-306v-18l304 -5z" />
    <glyph glyph-name="cid1253" unicode="&#x5ff1;" 
d="M353 579l64 -64l3 88h184q5 32 8 64.5t5 66.5l126 -8q-2 -30 -4.5 -61t-4.5 -62h130l79 -65l-3 -153l-142 -3l-1 99l-79 -2q-7 -44 -14.5 -86.5t-17.5 -86.5l132 5l-1 -304l32 5v72l100 -8l-3 -181l-271 9l-4 333q-23 -98 -50.5 -187.5t-56.5 -163.5l-165 63
q59 114 107 246t78 281l-36 -1l-1 -87l-133 3l1 61l-48 -49l-41 64l22 -573h-185l26 832h128l6 -176zM166 492l-16 -259l-99 12l38 259z" />
    <glyph glyph-name="cid1254" unicode="&#x6c89;" 
d="M943 626l5 -147h-179l8 104l-269 -7l3 -97h-178l14 233h517zM319 -68q38 110 64 239.5t31 271.5l360 9l83 -93l10 -313l76 13l4 -137l-263 -24l7 415l-127 5q-2 -52 -5 -102t-9 -102t-14.5 -107t-20.5 -116zM235 492l-169 138l105 107l147 -160zM308 175l-94 -288
l-163 63l143 272zM225 247l-169 139l106 106l146 -159z" />
    <glyph glyph-name="cid1255" unicode="&#x9648;" 
d="M753 467l3 -133l168 2l2 -118l-166 -8l11 -320l-211 2l7 109l35 2l10 201l-159 -7l-33 122l68 199l-58 1l6 116l93 4l34 98l134 -33l-21 -59l253 9l3 -144l-301 5l-63 -182h52l7 134h126zM226 428l40 167l-72 -7l25 -699l-173 1l13 822l244 2l113 -80l-80 -232l71 -75
l-22 -310l-155 27l8 114l27 -5l13 99l-52 66v110zM393 -33l72 197l103 -23l-37 -207zM820 -68l-26 207l102 25l58 -203z" />
    <glyph glyph-name="cid1256" unicode="&#x8d81;" 
d="M199 241l-8 -156l27 -2l14 223l-158 -5l3 121l107 -1l4 90l-91 1l2 98l96 7l7 117l118 -1l6 -108l95 7v-123l-88 1l5 -90l108 -1l1 -105l-83 -3l2 -66l82 12l1 -122h-78l3 -63l551 -42l-37 -153l-702 99l-4 -83l-133 19l61 339zM885 492l-187 117l-189 -117l-67 129
l256 125l252 -128zM901 247l21 -135l-413 -33l-14 89zM857 397l18 -126l-361 -51l-12 100zM534 374l-16 93l288 64l19 -120z" />
    <glyph glyph-name="cid1257" unicode="&#x886c;" 
d="M873 714v-126l85 4v-149l-86 1v-544l-247 -10l8 121l88 3l-3 432l-279 3v124l277 9l-1 132h158zM355 85l-47 78l18 -273h-171l20 313l-49 -60l-84 126l188 189l-159 -15v128l271 -3l53 -98l-146 -177h51l3 -58l35 32l104 -94zM544 372l153 -149l-114 -101l-123 186z
M206 583l-61 119l143 41l32 -126zM310 319l62 86l80 -76l-81 -72z" />
    <glyph glyph-name="cid1258" unicode="&#x6491;" 
d="M776 639l62 96l108 -55l-66 -57l22 1l53 -61l-2 -103h-82l19 -15l4 -143l-464 -4l5 150h-65l4 166l78 1l-73 65l107 55l61 -96l-44 -23l77 2l9 118h144l10 -115l67 1zM287 735l-1 -158l62 3l4 -131l-67 1v-126l65 11l6 -108l-72 -20l-1 -309l-209 -10l9 122l46 2l-1 148
l-58 -17l-26 142l84 14v154l-74 1v113l73 2v166h160zM395 201v67l532 21v-90l-195 1l1 -24l175 -1v-70l-171 -6l2 -23l214 5l2 -90l-210 1l7 -100h-259l8 84l75 2l1 15l-207 1v74l212 5l2 21l-167 -4v87l172 -1l1 24zM808 527l-290 -8l-1 -32l291 12v28zM748 378l2 38
l-170 -7l1 -29z" />
    <glyph glyph-name="cid1259" unicode="&#x79f0;" 
d="M413 501l3 -138l-102 1l3 -89l39 35l80 -96l-79 -100l-37 72l12 -297h-177l12 304l-38 -181l-92 62l81 232l52 -30l4 91l-104 2v109l109 7l4 83l-89 -7l-11 94l298 78l25 -149l-100 -8l3 -82zM438 430l65 308l152 -44l-17 -49l236 4l85 -74l-35 -195l-150 33l35 119
l-213 -7l-44 -126zM755 418l22 -525l-249 -2l5 118l73 5l17 404h132zM827 40l-33 269l98 19l71 -259zM421 81l65 247l99 -19l-29 -252z" />
    <glyph glyph-name="cid1260" unicode="&#x57ce;" 
d="M300 -83q26 142 43 284t25 283l-30 1l6 113l311 9l-20 106l139 25l21 -128l148 4v-141l-125 1l26 -152l44 46l65 -73l-85 -115l21 -119l40 12l33 -117l-174 -66l-28 146l-43 -60l-56 78v-99l-169 -4l4 116l27 2l9 191l-40 -3q-3 -95 -9.5 -184.5t-15.5 -184.5zM308 501
v-141l-51 2l-6 -186l58 5l4 -111l-275 -52v144l67 5l-4 203l-58 4l1 115l54 2l-3 161h170l-4 -154zM608 380l51 -77l1 -179l70 75l-51 278l-184 4v-51t-1 -51zM893 735l34 -98l-107 -15l-12 97z" />
    <glyph glyph-name="cid1261" unicode="&#x6a59;" 
d="M842 306l-67 131v-81l-214 4l2 60l-59 -98h308l69 -68l-6 -176l-91 1l75 -43l-21 -33l89 2v-112l-536 4l-1 93l97 3l-27 43l80 46l-93 1l4 228l-82 63l63 84l-41 33l73 80l29 -30l43 57l-145 -15v119l216 4l59 -110l-82 -139l176 8l-108 212l78 61l38 -57l27 47l83 -71
l-50 -67l18 -27l36 55l78 -75l-56 -67l60 -89zM322 395l78 -78l-66 -93l-34 50l13 -385h-167l11 333l-34 -128l-88 73l89 232l38 -20l3 84l-94 4v108l97 5l6 150h112l5 -143l79 4l4 -136l-79 2l3 -92zM614 -3l92 3l37 79l-168 2zM743 171l2 58l-160 -6v-46z" />
    <glyph glyph-name="cid1262" unicode="&#x6210;" 
d="M939 288l-131 -126l31 -102l64 12l43 -117l-212 -66l-49 154l-70 -68l-81 95l2 -116l-229 -4l5 125l44 2l13 173l-83 -5q-4 -88 -13 -171t-21 -171l-199 37q36 137 58 271.5t34 271.5l-43 1l8 119l400 7l-30 99l153 31l38 -126l62 1l-48 54l88 67l100 -82l-48 -37l96 2
v-153l-206 5l50 -166l96 71zM463 380l68 -83l2 -162l101 75l-82 264l-261 5q1 -26 0.5 -50.5t-0.5 -49.5z" />
    <glyph glyph-name="cid1263" unicode="&#x5448;" 
d="M146 72l2 147l260 -8l3 44l-310 6l2 113l796 10l-2 -137l-299 5l3 -46l253 -7l-2 -114l-243 -5l4 -55l305 -4v-119l-836 -7l2 136l311 -4l3 49zM839 643l8 -226l-680 -5l11 303l560 17zM650 546l3 49l-292 -6l3 -46z" />
    <glyph glyph-name="cid1264" unicode="&#x4e58;" 
d="M396 -111l4 119l-283 -115l-55 139l237 66l-110 4l-2 34l-113 9v93l111 2l-2 33l-106 -7l4 115l98 -2l-1 34h183l-21 -303l65 18l10 316l-344 -2l2 129l347 -8l1 42l-284 -3l2 106l708 37l15 -135l-291 -4l2 -46l349 -6l6 -107l-350 -2l12 -322l55 -15l-17 305h194
l-4 -41l87 11l14 -130l-113 -3l-3 -37l99 14v-134h-201l236 -66l-55 -139l-287 117l5 -116h-204z" />
    <glyph glyph-name="cid1265" unicode="&#x7a0b;" 
d="M418 493l4 -138l-99 1l3 -91l41 37l92 -113l-85 -93l-44 83l10 -286h-181l11 289l-38 -179l-93 62l81 233l54 -31l4 92l-106 1v110l111 6l3 91l-90 -6l-11 94l309 78l24 -149l-103 -8l4 -90zM473 70l2 141l140 -6l3 52l-175 5v110l503 9v-132l-174 4l3 -56l140 -7
l-1 -112l-134 -3l3 -57l177 -3v-115l-531 -7l2 131l174 -3l3 52zM912 632l6 -222l-447 -5l9 293l342 16zM755 530l1 52l-122 -7l3 -48z" />
    <glyph glyph-name="cid1266" unicode="&#x60e9;" 
d="M918 307l2 -132l-583 6l1 110l44 1l13 241h120l17 -236l41 1l12 295l-226 3l3 111l532 16l3 -133l-168 2l5 -79l144 -4l2 -117l-139 -3l5 -87zM245 -112l17 239l139 -3l14 -120l189 -6l17 80l128 -20l-5 -168zM115 172l20 197l-45 -23l-53 84l211 136l90 -96l-142 -71h70
l26 -227h-177zM338 635l-248 -125l-53 84l211 137zM37 -29l92 180l110 -30l-47 -195zM850 143l112 -135l-138 -73l-79 160zM543 17l-114 69l70 81l107 -77z" />
    <glyph glyph-name="cid1267" unicode="&#x6f84;" 
d="M300 -102l-2 94l115 3l-29 34l78 54l-90 1l3 211l-116 88l53 58l-58 54l101 76l35 -45l66 72l-162 -13v119l248 5l66 -111l-97 -135l214 8l-141 202l80 65l56 -62l42 59l93 -75l-61 -64l30 -32l47 67l91 -73l-69 -70l65 -71l-117 -110l-98 139l1 -92l-261 4l2 68
l-74 -103h377l65 -68l-6 -176l-85 1l72 -51l-21 -24l100 2v-113zM274 174l-86 -289l-150 59l129 277zM198 503l-146 127l96 106l125 -148zM189 259l-145 126l96 106l124 -148zM555 -2l108 3l49 79l-207 2zM700 172l3 58l-177 -6v-46z" />
    <glyph glyph-name="cid1268" unicode="&#x8bda;" 
d="M300 119l5 -75q16 110 25 220t11 219l-28 1l10 113l318 8l-21 108l137 25l25 -129l145 4v-142l-118 1l30 -156l42 42l65 -75l-81 -102l24 -126l35 18l30 -122l-172 -66l-30 152l-40 -51l-60 85l1 -107l-172 -4l4 117l31 2l10 192l-57 -4q-1 -100 -6 -192.5t-14 -191.5
l-166 29q4 21 7.5 41t6.5 41l-193 -56v409l-59 -1l3 133l127 10l82 -81l4 -299zM601 393l49 -74l1 -191l69 69l-55 279l-199 4q1 -23 1.5 -45t0.5 -43zM151 538l-73 149l154 51l40 -162zM894 735l33 -98l-106 -15l-12 97z" />
    <glyph glyph-name="cid1269" unicode="&#x627f;" 
d="M535 586l-351 2l9 127l591 11l43 -138l-242 -121l59 3l7 -127l-66 1l2 -37l90 -3l-1 -105l-84 -2l2 -39l114 4l8 -114l-117 1l6 -151l-293 -6l5 116l81 1l2 43l-107 1l-1 97l112 3l2 40l-81 -1l7 124l80 -3l1 35l-61 1l-4 109l69 3l4 74zM57 334l2 129l197 10l76 -89
l-117 -450l-178 63l126 343zM769 -61l-108 510l111 37l31 -88l86 67l73 -115l-118 -61l105 -286z" />
    <glyph glyph-name="cid1270" unicode="&#x901e;" 
d="M71 384l-1 125l134 4l90 -63l3 -394l651 -28l-45 -150l-662 74l-70 -73l-120 107l77 75l5 321zM376 213l-1 97l172 5l3 36l-206 -3l-2 113l568 -7l1 -96l-207 -4l2 -34l172 5l2 -121l-167 3l3 -37h208l2 -113l-597 18v96l210 -1l2 39zM870 666l6 -182l-497 -3l9 234
l399 12zM209 531l-120 127l124 89l90 -141zM713 577l2 48l-171 -5l3 -45z" />
    <glyph glyph-name="cid1271" unicode="&#x9a8b;" 
d="M383 358l-14 -464l-217 -3l7 102l66 1l11 255l-183 -8l21 315h117l-15 -197h34l19 232l-179 2l10 109l247 3l65 -82l-30 -265h41zM919 621l-6 -296l-478 -6l5 361h180l2 56h117l3 -56h109zM753 0l2 36h-298l23 153l-78 1v103l551 12v-121l-315 3l-4 -37l200 3l76 -71
l8 -189l-247 -1l-4 108h86zM53 31l-7 118l159 32l11 -106zM798 586l-50 -1l2 -38l47 -1zM562 548h52l2 35l-54 -1v-34zM562 419h47l2 35l-49 -1v-34zM796 421v38l-41 -2l1 -37z" />
    <glyph glyph-name="cid1272" unicode="&#x79e4;" 
d="M601 -112l9 336l-173 -4l2 139l175 -4l8 232l-159 6l1 108l469 14l1 -137l-165 5l9 -232l181 -4l1 -116l-177 -4l14 -339h-196zM409 494l4 -137l-97 1l3 -95l38 34l88 -105l-79 -100l-43 80l11 -283h-177l11 288l-38 -179l-91 62l81 233l52 -30l4 97l-104 2v110l109 7
l4 88l-89 -6l-11 94l299 78l25 -149l-101 -8l3 -88zM792 403l40 162l121 -42l-64 -152zM501 373l-63 152l120 42l41 -162z" />
    <glyph glyph-name="cid1273" unicode="&#x5403;" 
d="M401 530l-11 -515l-341 6l1 587h282zM448 30l253 269l-245 -22v149l399 8l65 -133l-261 -287l136 16l11 82l145 -18l-23 -201l-439 -4zM414 481l86 262l162 -52l-28 -54l307 18l2 -157l-376 11l-33 -65zM253 138l-3 358l-51 -6l-3 -354z" />
    <glyph glyph-name="cid1274" unicode="&#x75f4;" 
d="M951 554l-572 12q-3 -42 -7 -97t-10 -117t-12.5 -126t-14.5 -124t-16.5 -111.5t-16.5 -87.5l-184 46q12 32 27 84.5t30 118.5l-84 -32l-42 127l157 54q14 69 26 137t20 131l-41 1l11 105l292 7l-7 56h170l-4 -54l277 7zM949 403l1 -490l-258 3l7 556h203zM352 -57
q29 51 52 103.5t41 112.5h-70v98l95 4q9 50 15 109l-14 1l-18 -79l-78 12l34 234l94 -17l-12 -52l171 6l4 -110l-69 2q-1 -51 -6 -101l85 5l4 -112h-102q-2 -13 -4.5 -25.5t-5.5 -24.5l57 13l57 -170l-111 -26l-18 118q-10 -38 -23 -76t-28 -78zM131 352l-83 123l108 74
l66 -145zM838 19l2 354l-34 -5l3 -346z" />
    <glyph glyph-name="cid1275" unicode="&#x6301;" 
d="M305 733l-1 -146l81 3l4 -131l-85 1v-131l73 11l16 -107l-89 -24v-311l-222 -10l9 122l55 2l-1 156l-72 -19l-25 142l97 14v157l-87 2v113l86 3v153h161zM415 319l2 136l174 -7l6 87l-132 5l1 102l137 3l5 90h131l7 -85l155 5l1 -130l-146 5l7 -90l187 -8l1 -104z
M872 305l3 -57l73 2l2 -133l-68 2l11 -220l-236 -8v114l55 -2l5 121l-309 8l1 105l313 8l3 64zM601 -70l-167 90l47 91l179 -57z" />
    <glyph glyph-name="cid1276" unicode="&#x5319;" 
d="M913 -121l-707 77l-2 -74l-158 12l48 318l122 -7l-6 -144l33 -1l14 190l-203 4l12 106l481 16v-130l-142 2l3 -45l124 8l3 -120l-121 1l3 -41l532 -24zM578 73v655l181 1l-5 -164l164 54l35 -138l-203 -42l-7 -238l61 6l1 81l141 -1l-12 -212zM535 669l-7 -274l-442 5
l5 331h377zM376 489v34h-130v-29zM377 637l-131 -5v-32l130 5z" />
    <glyph glyph-name="cid1277" unicode="&#x6c60;" 
d="M313 500l60 11l-1 136h155v-110l52 9l-4 180h156l-2 -155l118 21l95 -78l-10 -344l-176 -2l-3 106l30 7l2 176l-57 -9l-3 -330h-136l-7 304l-54 -9v-396l264 9l2 65l158 4l-6 -192l-570 -11l-2 495l-61 -10v123zM305 175l-94 -288l-163 63l143 272zM232 492l-169 138
l105 107l147 -160zM223 247l-170 139l106 106l146 -159z" />
    <glyph glyph-name="cid1278" unicode="&#x8fdf;" 
d="M899 662l7 -274l-358 -6q-4 -79 -12.5 -154.5t-19.5 -134.5l-180 38q14 51 26.5 109t22 118.5t17.5 121.5t13 119h-37l16 107l420 17zM72 387l-1 124l143 5l96 -64l4 -371l634 -44l-45 -156l-635 88l-88 -88l-129 107l82 78l6 319zM755 371l184 -203l-138 -95l-146 241z
M220 533l-129 127l133 89l96 -141zM740 501l2 98h-187v-48t-1 -51z" />
    <glyph glyph-name="cid1279" unicode="&#x5f1b;" 
d="M410 493l34 7v149h153v-117l36 8l-2 188h148l-2 -158l70 14l95 -76l-10 -344l-137 -3l-2 106l20 7l1 180l-38 -7l-2 -317h-136l-4 291l-36 -7l2 -407l205 9l3 66l143 6l-6 -187l-499 -11l-1 496l-35 -7v114zM56 580l3 127l266 -8l70 -66l-13 -264l-173 -5l-1 -104h105
l78 -85l-13 -282l-264 -4l14 112l100 2l5 146l-184 -2l23 335l163 2l5 102z" />
    <glyph glyph-name="cid1280" unicode="&#x9a70;" 
d="M395 492l37 6v149h153v-121l36 5l-5 197h157l-2 -170l76 13l95 -78l-10 -330l-144 -3l-3 106l27 7l1 163l-43 -6l-3 -301h-137l-7 281l-37 -6l2 -390l215 9l3 60l145 12l-6 -195l-512 -11v493l-38 -5v115zM400 358l-15 -460l-226 -3l8 101l69 1l10 253l-191 -8l23 316
h122l-16 -199h35l21 234l-188 2l11 108l258 4l67 -83l-31 -266h43zM54 31l-6 117l166 33l11 -107z" />
    <glyph glyph-name="cid1281" unicode="&#x803b;" 
d="M263 -110l4 135l-221 -31l1 139l31 2l17 438h-39l3 127l402 16v-140h-44l5 -418l34 3l9 -109l-42 -6l2 -156h-162zM948 477v-128l-105 -3l9 -306l101 2v-148l-485 5v133l44 1l-7 497l145 3l-8 -497h41l17 698h132l7 -255zM225 499l58 -1l3 77l-62 -1zM227 145l45 3l3 79
l-48 -1v-81zM226 330l52 -1l3 68l-56 -1z" />
    <glyph glyph-name="cid1282" unicode="&#x9f7f;" 
d="M928 481l4 -152l-865 11l7 120l98 2l17 204h150l15 -199l87 2l20 264h149l6 -70l250 15v-144l-241 6l5 -66zM100 -106l30 373l165 -1l10 -245l403 -5l18 245l162 -2l11 -362zM311 89l132 234l126 -29l-27 -78l88 17l69 -161l-150 -23l-21 129l-46 -135z" />
    <glyph glyph-name="cid1283" unicode="&#x4f88;" 
d="M584 124l25 -44l171 68l-270 -7l-42 -53l-86 41l92 165l-84 110l116 45l-24 33l102 53l25 -44l171 69l-270 -9l-42 -50l-86 40l111 192l136 -42l-25 -30l323 4l31 -162l-428 -187l99 -31l-29 -35l327 3l31 -162l-482 -212l-86 114l116 45l-24 32zM166 -110l25 519
l-60 -63l-89 72l240 316l120 -107l-162 -168h91l25 -569h-190z" />
    <glyph glyph-name="cid1284" unicode="&#x5c3a;" 
d="M872 674l14 -349l-567 -8q-3 -58 -7.5 -116t-11 -113.5t-14 -106.5t-16.5 -95l-207 52q22 71 40.5 152t33 165.5t25.5 169.5t19 165h-44l23 125l612 21zM684 300l252 -314l-159 -100l-213 341zM710 456l3 135l-388 -1q1 -31 0.5 -65t-1.5 -70z" />
    <glyph glyph-name="cid1285" unicode="&#x2f9a;" 
d="M204 -72l104 391l-218 2l1 122l314 9l6 65l-275 -5l3 148l284 -4l8 77h137l7 -79l287 -4l1 -124l-276 -5l7 -64l313 10l2 -156l-185 2l22 -408l-277 -8l7 131l65 2l16 286l-90 1l-51 -429zM46 74l83 198l114 -22l-42 -215zM799 35l-43 215l115 22l82 -198z" />
    <glyph glyph-name="cid1285" unicode="&#x8d64;" 
d="M204 -72l104 391l-218 2l1 122l314 9l6 65l-275 -5l3 148l284 -4l8 77h137l7 -79l287 -4l1 -124l-276 -5l7 -64l313 10l2 -156l-185 2l22 -408l-277 -8l7 131l65 2l16 286l-90 1l-51 -429zM46 74l83 198l114 -22l-42 -215zM799 35l-43 215l115 22l82 -198z" />
    <glyph glyph-name="cid1286" unicode="&#x7fc5;" 
d="M49 -33l103 153q-46 57 -79 131l107 40q11 -17 22.5 -32.5t23.5 -29.5l55 81l-218 -2v118l101 4l4 77l-101 2v115l110 5l7 105l126 -1l5 -98l107 5v-138l-101 2l4 -68l58 3l48 -123l-96 -176q51 -30 112.5 -48.5t137 -29t166 -14t199.5 -3.5l-23 -159q-230 7 -391 36
t-268 96l-72 -132zM799 187l1 83l-59 -50l-51 109l113 74l1 46l-32 -25l-80 85l72 67l41 -62l2 87l-107 -3l2 119l174 8l56 -83l5 -560l-181 -1l4 106h39zM545 190l1 80l-59 -50l-53 109l114 75l1 45l-32 -25l-80 85l72 67l41 -62l2 87l-106 -3l2 119l174 8l56 -83l3 -557
l-174 -1l3 106h35z" />
    <glyph glyph-name="cid1287" unicode="&#x65a5;" 
d="M532 -108l10 182l-157 61l42 104l121 -32l5 94l-216 2q-8 -106 -22.5 -206.5t-30.5 -186.5l-208 47q13 41 26 96t26 117t24.5 127.5t20.5 128.5t15.5 120t8.5 101l610 85l43 -163l-508 -35q1 -53 0 -105l582 17l-2 -149l-209 2l10 -140l195 -51l-63 -155l-119 46l8 -107
h-212z" />
    <glyph glyph-name="cid1288" unicode="&#x70bd;" 
d="M921 630l1 -392l-463 4l13 465h367zM42 -64q35 88 62 180t45 190t26 204t7 222l135 -5q5 -118 -3 -248.5t-28 -258.5l55 24l105 -216l-138 -56l-38 150q-13 -66 -28 -125t-32 -112zM423 -65l111 276l117 -33l-63 -290zM792 -112l-63 290l117 33l111 -276zM770 370l4 213
l-156 -13l2 -195zM320 386l32 180l87 -26l-52 -171zM91 368l-49 173l87 19l25 -175z" />
    <glyph glyph-name="cid1289" unicode="&#x5145;" 
d="M124 -87l107 306l-93 -4l-56 119l200 198l-201 -2l2 134l324 -3l-9 74h181l-9 -75l338 -2l-1 -118l-416 -5l-154 -182l338 10l-52 70l94 64l201 -200l-124 -94l-30 40l-29 -1l-11 -225l137 9v-134l-314 5l-7 336l-134 -7l-71 -341z" />
    <glyph glyph-name="cid1290" unicode="&#x51b2;" 
d="M950 465l3 -371l-220 -3l6 -198h-193l4 196l-219 -2l8 451l225 3l4 178h144l6 -176l149 2zM313 319l-94 -365l-172 45l136 356zM168 398l-121 227l150 70l98 -243zM794 225v185h-73l7 -185h66zM493 227l61 -1l6 181l-65 -1z" />
    <glyph glyph-name="cid1291" unicode="&#x2f8d;" 
d="M876 528v-336l-299 2l4 -123l150 1l-15 59l137 40l88 -234l-164 -49l-14 54l-705 -36l2 161l323 2l6 126l-298 2l19 408h299l5 128h147l4 -128h206zM680 337l5 134l-117 -3l5 -133zM291 331l104 1l7 133l-110 -2z" />
    <glyph glyph-name="cid1291" unicode="&#x866b;" 
d="M876 528v-336l-299 2l4 -123l150 1l-15 59l137 40l88 -234l-164 -49l-14 54l-705 -36l2 161l323 2l6 126l-298 2l19 408h299l5 128h147l4 -128h206zM680 337l5 134l-117 -3l5 -133zM291 331l104 1l7 133l-110 -2z" />
    <glyph glyph-name="cid1292" unicode="&#x5d07;" 
d="M347 2l-186 -113l-80 118l176 68l-174 -1l3 114l828 -11l4 -97l-182 -2l183 -71l-79 -118l-187 113l51 76h-108l9 -187l-257 -5l9 102l49 -1l5 89l-112 -1zM916 412l-3 -132h-153l-1 92l-518 -9l-2 -94l-154 2l14 193l317 6l-7 49h182l-6 -46l230 3zM132 540l15 165h180
l5 -61h79l13 94h150l15 -95l95 -1l2 63h183l-7 -165h-730zM736 336l1 -113l-474 9l2 93z" />
    <glyph glyph-name="cid1293" unicode="&#x5ba0;" 
d="M488 -104l2 86l-85 -33l-44 151l132 39l3 124l-91 1l-143 -380l-184 71l152 312l-151 2l4 119l208 5l67 137l132 -40l-36 -93l147 4l-46 65l87 62l108 -96l-36 -28l196 5l4 -150l-253 3l3 -73l166 49l35 -109l-195 -76l1 -14l93 -7l11 51l131 -9l-15 -176zM921 606
l-3 -134l-184 -2l-1 94l-471 -12l-1 -88l-183 3l14 209l322 6l-6 54h182l-5 -50l229 6z" />
    <glyph glyph-name="cid1294" unicode="&#x62bd;" 
d="M954 494v-596h-551v687h200v148h154v-148h113zM301 733v-145l69 3v-132h-69v-128l62 10l15 -108l-77 -22v-313h-221l9 112h53v158l-70 -19l-26 142l96 15v153h-86v118l86 4v152h159zM554 296l49 -1v168h-49v-167zM805 463h-48v-171l47 -1zM554 14l49 1v164h-49v-165z
M802 18l1 161h-46v-161h45z" />
    <glyph glyph-name="cid1295" unicode="&#x916c;" 
d="M45 600v106l365 19l2 -130l-112 1l-1 -65h54l63 -80l-2 -161l36 160l41 -8l18 290l108 -3l-5 -285l30 6l20 -87l8 318h98l7 -238l31 7l24 -100l7 388h98l23 -845h-136l6 347l-35 -9l-15 116l13 -398h-137l6 290l-31 -8l-18 145l-7 -485l-145 4l30 501l-20 -165l-55 14
l-4 -337l-368 -10l5 633h120l1 67zM142 175v-44l173 -1v40l-76 -6l1 253h-16q-2 -72 -8 -139t-16 -122zM315 19v33l-173 2v-38zM317 418h-19l-1 -155l19 2zM143 416l-1 -158q6 37 10.5 76.5t7.5 81.5h-17zM227 531h14v66h-14v-66z" />
    <glyph glyph-name="cid1296" unicode="&#x7574;" 
d="M384 -29q5 11 10.5 22.5t10.5 23.5l-361 -10l12 650l279 29l82 -89l5 -541q20 45 38.5 95.5t36.5 104.5l-52 -1l1 126l90 -2l8 25l-51 2l1 97l78 3l9 31l-110 -2l1 134l140 -4q5 20 8.5 39t7.5 36l122 -20q-2 -14 -5 -28.5t-6 -30.5l189 -6l1 -111l-214 -5
q-2 -7 -3.5 -14t-3.5 -14l200 7v-122l-226 5q-2 -6 -3 -12.5t-3 -12.5l279 -6v-102l-310 -8q-5 -17 -9.5 -33.5t-9.5 -32.5l146 4l3 45h132l1 -41l41 1l2 -125l-39 1l7 -182l-188 -7v106l30 2l5 85l-172 5q-19 -56 -36 -102.5t-33 -78.5zM698 -79l-126 59l34 86l128 -35z
M310 554l-31 -2l2 -144l28 -2zM155 415l29 -1l4 134l-33 -2v-131zM154 142l20 -1l5 144l-25 -1v-142zM307 138l1 149h-24l4 -149h19z" />
    <glyph glyph-name="cid1297" unicode="&#x8e0c;" 
d="M382 640l-7 -271l-54 -2l3 -79l52 4l-1 -117l-47 3l6 -129l29 3q22 45 43 97.5t41 109.5l-48 -1l1 125l88 -2l8 28l-39 1l1 97l68 2l10 34l-105 -2l1 134l138 -4l16 69l121 -22q-2 -12 -5 -24.5t-5 -26.5l226 -6l1 -111l-255 -5l-7 -31l235 8v-122l-262 5l-8 -26l327 -6
v-102l-360 -8l-17 -60l148 4l3 42h141l1 -39l78 2l2 -124l-76 2l7 -193l-196 -7v98l30 2l4 104l-176 4q-14 -42 -28 -75.5t-27 -59.5l-106 45v-64l-337 -43l1 121l27 3l9 245l83 1l4 -237l20 2l8 327l-130 -3l6 356h233zM653 -83l-138 65l34 87l140 -42zM249 463l2 150
l-49 -4l-1 -143z" />
    <glyph glyph-name="cid1298" unicode="&#x7a20;" 
d="M384 501l4 -138l-91 1l3 -84l33 31l72 -93q6 116 9 233.5t6 240.5l455 20l79 -79l8 -740l-208 -1l-1 82l61 1l3 606l-273 -1q1 -86 1.5 -170t0 -169t-2.5 -172.5t-6 -180.5l-155 14q8 72 12.5 143.5t9.5 146.5l-64 -86l-37 74l11 -290h-166l12 304l-36 -181l-86 61
l76 233l50 -31l3 91l-98 2v109l102 8l3 81l-83 -6l-10 94l280 78l23 -149l-94 -8l3 -82zM790 521l1 -115l-48 1l2 -32l56 -1l2 -102l-245 -8l1 114l59 -1l2 35l-51 2l2 100l54 1l2 40h110l1 -36zM794 189l4 -201l-235 -1l6 252l166 10zM692 82l2 67h-25v-65z" />
    <glyph glyph-name="cid1299" unicode="&#x6101;" 
d="M446 562l3 -113l-103 1l2 -35l22 15l116 -73l-76 -68l-56 51l11 -162h-189l11 156l-45 -93l-105 45l105 143l52 -17l3 39l-113 2l7 89l114 5l2 47l-96 -5l-11 88l313 51l23 -124l-100 -4l2 -45zM464 231q50 58 84.5 121t56.5 131l-86 -21l-64 173l128 27l29 -157
q16 52 24.5 105.5t12.5 107.5l129 -3q-5 -176 -41 -314l90 31l108 -208l-148 -46l-64 181q-18 -57 -42.5 -104t-53.5 -86zM245 -112l18 252l138 -3l14 -126l189 -6l17 84l129 -20l-6 -179zM37 -25l93 190l109 -31l-47 -206zM851 157l112 -143l-138 -77l-80 171zM799 486
l33 176l128 -27l-65 -173zM543 36l-114 78l70 87l107 -89z" />
    <glyph glyph-name="cid1300" unicode="&#x7b79;" 
d="M871 471l1 -84l-377 -4l-11 -26l351 8v-92l-389 5l-13 -24l499 -6l1 -79l-548 -7l-26 -44l286 4l3 30l153 -2l2 -27l122 2l2 -100l-117 2l8 -132l-246 -5v82l61 1l5 55l-330 5q-20 -31 -39.5 -56.5t-37.5 -44.5l-164 63q32 35 65.5 77t66.5 88h-107v98l170 -2
q5 6 8.5 12.5t7.5 11.5l-109 2l3 69l150 3l16 28l-206 -2l1 102l256 -4l13 26h-1l-131 55l63 50l-77 2l-54 -91l-134 21l83 213l174 -26l-21 -36l197 8v-96l-115 3l88 -48l-35 -26l110 -18l-15 -39zM832 504l-131 55l62 50l-77 2l-53 -91l-135 21l85 213l173 -26l-21 -36
l196 8v-96l-115 3l89 -48zM509 -107l-194 58l35 74l195 -37z" />
    <glyph glyph-name="cid1301" unicode="&#x4ec7;" 
d="M961 -102l-266 -9l26 542h-91l-74 -551l-182 33l95 519l-86 1l3 126l107 5l31 166l144 -17l-19 -140l112 7l115 -79l13 -463l72 12v-152zM155 -110l26 512l-52 -56l-90 72l229 317l120 -108l-155 -168h87l25 -569h-190z" />
    <glyph glyph-name="cid1302" unicode="&#x7ef8;" 
d="M802 -13l3 597l-291 -1q1 -87 2 -170.5t0.5 -168.5t-2.5 -172t-6 -181l-165 10q20 193 29.5 390t14.5 406l478 20l81 -82l8 -738l-217 -1v90zM293 696l-114 -211l44 1l36 61l101 -46l-117 -251l85 6l5 -108l-231 -37l-38 105l91 155l-79 -6l-30 119l148 256zM776 526
l1 -115l-53 2l2 -34l63 -1l1 -103l-260 -7l1 115l64 -1l2 35l-54 2l2 100l58 1l1 41h114l1 -37zM781 192l3 -191l-250 -1l9 243l175 10zM83 -90l-19 136l268 51l8 -112zM672 97l2 54h-26v-53z" />
    <glyph glyph-name="cid1303" unicode="&#x7785;" 
d="M588 -73q38 101 65 203.5t46 214.5l-60 -15l-33 142l3 -118l-65 1l3 -82l37 21l72 -112l-80 -63l-26 61l12 -285h-166l11 277l-35 -116l-69 34l-1 -112l-258 -10l3 649l183 2l79 -75l-5 -398l70 151l37 -16l3 76l-83 1l1 113l85 6l4 95l-77 -6l-2 103l247 60l25 -142
l-79 -6l4 -96l64 4l-11 49l92 24l21 -175q11 78 19 161t13 175l103 1q0 -64 -2.5 -133t-8 -140t-13 -142.5t-17.5 -139.5l55 20l102 -245l-133 -59l-40 191q-9 -52 -20 -100.5t-23 -92.5zM832 339l30 221l93 -21l-48 -218zM198 68v90l-42 -2v-84zM198 514l-44 -4v-78l44 -3
v85zM155 256l43 -3v80l-43 -1v-76z" />
    <glyph glyph-name="cid1304" unicode="&#x4e11;" 
d="M108 562l8 138l624 23l115 -118l-17 -564l84 -3l1 -124l-847 -18l2 169l143 -5l27 180l-140 2l6 140l156 4l28 179zM432 53l209 -6l14 187l-212 3zM681 572l-216 -4l-12 -176l215 5z" />
    <glyph glyph-name="cid1305" unicode="&#x81ed;" 
d="M814 237l3 -43l111 3l-1 -127l-255 1l187 -78l-105 -122l-218 137l55 63l-117 1l-153 -199l-175 93l112 107l-186 2v101l300 7l80 78h-318l27 430h193l20 55l180 -16l-25 -38l199 1l113 -51l24 -381h-363l91 -35l-29 -39l106 3l-12 33zM669 598l-342 -4l1 -31l340 7z
M664 357v29l-329 -3l1 -24zM332 468l334 -8v26l-335 2z" />
    <glyph glyph-name="cid1306" unicode="&#x521d;" 
d="M406 -82l119 637l-92 -2v138l441 1l81 -95l-6 -698l-264 -4l9 126h78l25 543l-128 -4l-75 -671zM337 93l-30 43l19 -243h-178l22 299l-38 -46l-88 123l179 183l-149 -14v126l255 -3l48 -116l-123 -151h41l4 -46l20 16l112 -85zM206 576l-66 126l143 41l36 -133zM296 306
l65 96l86 -74l-88 -81z" />
    <glyph glyph-name="cid1307" unicode="&#x51fa;" 
d="M883 636v-314l-288 2l8 -301l133 -1l-7 217h185v-346l-828 5l8 341h190l-7 -214l123 -1l14 301l-297 2l9 309h190l-8 -181l113 -1l13 279l151 -2l6 -278l113 -1l-6 184h185z" />
    </font>
</defs>
</svg>
